MonaSans-ExpandedBlack.ufo
<glyph name="exclam" format="2">
  <advance width="283"/>
  <unicode hex="0021"/>
  <outline>
    <contour>
      <point x="91" y="232" type="line"/>
      <point x="194" y="232" type="line"/>
      <point x="243" y="484" type="line"/>
      <point x="243" y="729" type="line"/>
      <point x="40" y="729" type="line"/>
      <point x="40" y="484" type="line"/>
    </contour>
    <contour>
      <point x="141" y="-10" type="curve" smooth="yes"/>
      <point x="225" y="-10"/>
      <point x="259" y="29"/>
      <point x="259" y="83" type="curve" smooth="yes"/>
      <point x="259" y="136"/>
      <point x="225" y="175"/>
      <point x="141" y="175" type="curve" smooth="yes"/>
      <point x="57" y="175"/>
      <point x="23" y="136"/>
      <point x="23" y="83" type="curve" smooth="yes"/>
      <point x="23" y="29"/>
      <point x="57" y="-10"/>
    </contour>
  </outline>
</glyph>
<glyph name="numbersign" format="2">
  <advance width="740"/>
  <unicode hex="0023"/>
  <outline>
    <contour>
      <point x="145" y="0" type="line"/>
      <point x="307" y="0" type="line"/>
      <point x="307" y="166" type="line"/>
      <point x="433" y="166" type="line"/>
      <point x="433" y="0" type="line"/>
      <point x="595" y="0" type="line"/>
      <point x="595" y="166" type="line"/>
      <point x="726" y="166" type="line"/>
      <point x="726" y="302" type="line"/>
      <point x="595" y="302" type="line"/>
      <point x="595" y="430" type="line"/>
      <point x="726" y="430" type="line"/>
      <point x="726" y="566" type="line"/>
      <point x="595" y="566" type="line"/>
      <point x="595" y="729" type="line"/>
      <point x="433" y="729" type="line"/>
      <point x="433" y="566" type="line"/>
      <point x="307" y="566" type="line"/>
      <point x="307" y="729" type="line"/>
      <point x="145" y="729" type="line"/>
      <point x="145" y="566" type="line"/>
      <point x="14" y="566" type="line"/>
      <point x="14" y="430" type="line"/>
      <point x="145" y="430" type="line"/>
      <point x="145" y="302" type="line"/>
      <point x="14" y="302" type="line"/>
      <point x="14" y="166" type="line"/>
      <point x="145" y="166" type="line"/>
    </contour>
    <contour>
      <point x="307" y="302" type="line"/>
      <point x="307" y="430" type="line"/>
      <point x="433" y="430" type="line"/>
      <point x="433" y="302" type="line"/>
    </contour>
  </outline>
</glyph>
<glyph name="dollar" format="2">
  <advance width="720"/>
  <unicode hex="0024"/>
  <outline>
    <contour>
      <point x="362" y="9" type="curve" smooth="yes"/>
      <point x="580" y="9"/>
      <point x="703" y="93"/>
      <point x="703" y="234" type="curve" smooth="yes"/>
      <point x="703" y="385"/>
      <point x="624" y="435"/>
      <point x="399" y="461" type="curve" smooth="yes"/>
      <point x="285" y="474"/>
      <point x="267" y="479"/>
      <point x="267" y="518" type="curve" smooth="yes"/>
      <point x="267" y="550"/>
      <point x="298" y="571"/>
      <point x="353" y="571" type="curve" smooth="yes"/>
      <point x="409" y="571"/>
      <point x="442" y="552"/>
      <point x="450" y="508" type="curve"/>
      <point x="679" y="508" type="line"/>
      <point x="665" y="648"/>
      <point x="541" y="721"/>
      <point x="363" y="721" type="curve" smooth="yes"/>
      <point x="159" y="721"/>
      <point x="34" y="641"/>
      <point x="34" y="493" type="curve" smooth="yes"/>
      <point x="34" y="359"/>
      <point x="120" y="302"/>
      <point x="342" y="276" type="curve" smooth="yes"/>
      <point x="447" y="264"/>
      <point x="468" y="258"/>
      <point x="468" y="215" type="curve" smooth="yes"/>
      <point x="468" y="181"/>
      <point x="433" y="162"/>
      <point x="372" y="162" type="curve" smooth="yes"/>
      <point x="294" y="162"/>
      <point x="254" y="195"/>
      <point x="252" y="243" type="curve"/>
      <point x="17" y="243" type="line"/>
      <point x="17" y="106"/>
      <point x="127" y="9"/>
    </contour>
    <contour>
      <point x="285" y="-85" type="line"/>
      <point x="435" y="-85" type="line"/>
      <point x="435" y="79" type="line"/>
      <point x="285" y="79" type="line"/>
    </contour>
    <contour>
      <point x="285" y="627" type="line"/>
      <point x="435" y="627" type="line"/>
      <point x="435" y="815" type="line"/>
      <point x="285" y="815" type="line"/>
    </contour>
  </outline>
</glyph>
<glyph name="percent" format="2">
  <advance width="978"/>
  <unicode hex="0025"/>
  <outline>
    <contour>
      <point x="144" y="0" type="line"/>
      <point x="304" y="0" type="line"/>
      <point x="834" y="729" type="line"/>
      <point x="674" y="729" type="line"/>
    </contour>
    <contour>
      <point x="226" y="351" type="curve" smooth="yes"/>
      <point x="351" y="351"/>
      <point x="432" y="421"/>
      <point x="432" y="540" type="curve" smooth="yes"/>
      <point x="432" y="657"/>
      <point x="352" y="729"/>
      <point x="228" y="729" type="curve" smooth="yes"/>
      <point x="104" y="729"/>
      <point x="22" y="660"/>
      <point x="22" y="540" type="curve" smooth="yes"/>
      <point x="22" y="424"/>
      <point x="101" y="351"/>
    </contour>
    <contour>
      <point x="227" y="471" type="curve" smooth="yes"/>
      <point x="198" y="471"/>
      <point x="174" y="482"/>
      <point x="174" y="540" type="curve" smooth="yes"/>
      <point x="174" y="599"/>
      <point x="198" y="610"/>
      <point x="228" y="610" type="curve" smooth="yes"/>
      <point x="255" y="610"/>
      <point x="281" y="599"/>
      <point x="281" y="540" type="curve" smooth="yes"/>
      <point x="281" y="482"/>
      <point x="257" y="471"/>
    </contour>
    <contour>
      <point x="751" y="-5" type="curve" smooth="yes"/>
      <point x="875" y="-5"/>
      <point x="956" y="65"/>
      <point x="956" y="184" type="curve" smooth="yes"/>
      <point x="956" y="302"/>
      <point x="876" y="373"/>
      <point x="753" y="373" type="curve" smooth="yes"/>
      <point x="630" y="373"/>
      <point x="547" y="305"/>
      <point x="547" y="184" type="curve" smooth="yes"/>
      <point x="547" y="68"/>
      <point x="626" y="-5"/>
    </contour>
    <contour>
      <point x="751" y="116" type="curve" smooth="yes"/>
      <point x="723" y="116"/>
      <point x="698" y="126"/>
      <point x="698" y="184" type="curve" smooth="yes"/>
      <point x="698" y="244"/>
      <point x="723" y="254"/>
      <point x="753" y="254" type="curve" smooth="yes"/>
      <point x="780" y="254"/>
      <point x="806" y="243"/>
      <point x="806" y="184" type="curve" smooth="yes"/>
      <point x="806" y="126"/>
      <point x="781" y="116"/>
    </contour>
  </outline>
</glyph>
<glyph name="ampersand" format="2">
  <advance width="801"/>
  <unicode hex="0026"/>
  <outline>
    <contour>
      <point x="680" y="-12" type="curve" smooth="yes"/>
      <point x="711" y="-12"/>
      <point x="753" y="-7"/>
      <point x="779" y="5" type="curve"/>
      <point x="779" y="158" type="line"/>
      <point x="765" y="154"/>
      <point x="751" y="152"/>
      <point x="736" y="152" type="curve" smooth="yes"/>
      <point x="695" y="152"/>
      <point x="650" y="164"/>
      <point x="577" y="232" type="curve" smooth="yes"/>
      <point x="360" y="433" type="line" smooth="yes"/>
      <point x="320" y="470"/>
      <point x="301" y="497"/>
      <point x="301" y="529" type="curve" smooth="yes"/>
      <point x="301" y="560"/>
      <point x="319" y="579"/>
      <point x="349" y="579" type="curve" smooth="yes"/>
      <point x="380" y="579"/>
      <point x="401" y="561"/>
      <point x="401" y="531" type="curve" smooth="yes"/>
      <point x="401" y="495"/>
      <point x="370" y="463"/>
      <point x="324" y="443" type="curve"/>
      <point x="414" y="363" type="line"/>
      <point x="515" y="390"/>
      <point x="583" y="451"/>
      <point x="583" y="553" type="curve" smooth="yes"/>
      <point x="583" y="663"/>
      <point x="482" y="739"/>
      <point x="339" y="739" type="curve" smooth="yes"/>
      <point x="198" y="739"/>
      <point x="95" y="659"/>
      <point x="95" y="536" type="curve" smooth="yes"/>
      <point x="95" y="454"/>
      <point x="132" y="394"/>
      <point x="249" y="286" type="curve" smooth="yes"/>
      <point x="458" y="93" type="line" smooth="yes"/>
      <point x="536" y="21"/>
      <point x="602" y="-12"/>
    </contour>
    <contour>
      <point x="251" y="-10" type="curve" smooth="yes"/>
      <point x="334" y="-10"/>
      <point x="442" y="10"/>
      <point x="496" y="77" type="curve"/>
      <point x="375" y="186" type="line"/>
      <point x="364" y="168"/>
      <point x="344" y="155"/>
      <point x="300" y="155" type="curve" smooth="yes"/>
      <point x="261" y="155"/>
      <point x="231" y="184"/>
      <point x="231" y="217" type="curve" smooth="yes"/>
      <point x="231" y="248"/>
      <point x="249" y="277"/>
      <point x="274" y="286" type="curve"/>
      <point x="186" y="389" type="line"/>
      <point x="82" y="363"/>
      <point x="11" y="280"/>
      <point x="11" y="183" type="curve" smooth="yes"/>
      <point x="11" y="67"/>
      <point x="107" y="-10"/>
    </contour>
    <contour>
      <point x="617" y="177" type="line"/>
      <point x="640" y="199"/>
      <point x="660" y="226"/>
      <point x="681" y="260" type="curve"/>
      <point x="757" y="258" type="line"/>
      <point x="767" y="400" type="line"/>
      <point x="552" y="400" type="line"/>
      <point x="549" y="368" type="line"/>
      <point x="535" y="334"/>
      <point x="521" y="301"/>
      <point x="500" y="281" type="curve"/>
    </contour>
  </outline>
</glyph>
<glyph name="quotesingle" format="2">
  <advance width="219"/>
  <unicode hex="0027"/>
  <anchor x="-49" y="0" name="#entry"/>
  <anchor x="203" y="0" name="#exit"/>
  <outline>
    <contour>
      <point x="66" y="410" type="line"/>
      <point x="152" y="410" type="line"/>
      <point x="199" y="600" type="line"/>
      <point x="199" y="729" type="line"/>
      <point x="21" y="729" type="line"/>
      <point x="21" y="600" type="line"/>
    </contour>
  </outline>
</glyph>
<glyph name="parenleft" format="2">
  <advance width="397"/>
  <unicode hex="0028"/>
  <outline>
    <contour>
      <point x="229" y="-167" type="curve"/>
      <point x="400" y="-167" type="line"/>
      <point x="290" y="-58"/>
      <point x="216" y="134"/>
      <point x="216" y="313" type="curve" smooth="yes"/>
      <point x="216" y="493"/>
      <point x="288" y="684"/>
      <point x="400" y="793" type="curve"/>
      <point x="229" y="793" type="line"/>
      <point x="100" y="695"/>
      <point x="16" y="503"/>
      <point x="16" y="313" type="curve" smooth="yes"/>
      <point x="16" y="123"/>
      <point x="100" y="-69"/>
    </contour>
  </outline>
</glyph>
<glyph name="asterisk" format="2">
  <advance width="321"/>
  <unicode hex="002A"/>
  <outline>
    <contour>
      <point x="117" y="407" type="line"/>
      <point x="204" y="407" type="line"/>
      <point x="204" y="455" type="line"/>
      <point x="185" y="523" type="line"/>
      <point x="238" y="473" type="line"/>
      <point x="280" y="450" type="line"/>
      <point x="321" y="524" type="line"/>
      <point x="281" y="547" type="line"/>
      <point x="211" y="568" type="line"/>
      <point x="281" y="589" type="line"/>
      <point x="321" y="612" type="line"/>
      <point x="280" y="685" type="line"/>
      <point x="238" y="662" type="line"/>
      <point x="185" y="612" type="line"/>
      <point x="204" y="682" type="line"/>
      <point x="204" y="729" type="line"/>
      <point x="117" y="729" type="line"/>
      <point x="117" y="682" type="line"/>
      <point x="136" y="612" type="line"/>
      <point x="84" y="662" type="line"/>
      <point x="41" y="685" type="line"/>
      <point x="0" y="612" type="line"/>
      <point x="40" y="589" type="line"/>
      <point x="110" y="568" type="line"/>
      <point x="40" y="547" type="line"/>
      <point x="0" y="524" type="line"/>
      <point x="41" y="450" type="line"/>
      <point x="84" y="473" type="line"/>
      <point x="136" y="523" type="line"/>
      <point x="117" y="455" type="line"/>
    </contour>
  </outline>
</glyph>
<glyph name="plus" format="2">
  <advance width="720"/>
  <unicode hex="002B"/>
  <outline>
    <contour>
      <point x="267" y="98" type="line"/>
      <point x="453" y="98" type="line"/>
      <point x="453" y="274" type="line"/>
      <point x="623" y="274" type="line"/>
      <point x="623" y="448" type="line"/>
      <point x="453" y="448" type="line"/>
      <point x="453" y="624" type="line"/>
      <point x="267" y="624" type="line"/>
      <point x="267" y="448" type="line"/>
      <point x="97" y="448" type="line"/>
      <point x="97" y="274" type="line"/>
      <point x="267" y="274" type="line"/>
    </contour>
  </outline>
</glyph>
<glyph name="comma" format="2">
  <advance width="267"/>
  <unicode hex="002C"/>
  <anchor x="-21" y="0" name="#entry"/>
  <anchor x="256" y="0" name="#exit"/>
  <anchor x="133" y="554" name="top"/>
  <outline>
    <contour>
      <point x="1" y="-167" type="curve"/>
      <point x="132" y="-167" type="line"/>
      <point x="190" y="-117"/>
      <point x="250" y="-18"/>
      <point x="250" y="62" type="curve" smooth="yes"/>
      <point x="250" y="139"/>
      <point x="202" y="175"/>
      <point x="129" y="175" type="curve" smooth="yes"/>
      <point x="64" y="175"/>
      <point x="15" y="142"/>
      <point x="15" y="83" type="curve" smooth="yes"/>
      <point x="15" y="31"/>
      <point x="48" y="-3"/>
      <point x="119" y="-3" type="curve" smooth="yes"/>
      <point x="128" y="-3"/>
      <point x="137" y="-2"/>
      <point x="146" y="0" type="curve"/>
      <point x="132" y="12" type="line"/>
      <point x="118" y="-38"/>
      <point x="63" y="-109"/>
    </contour>
  </outline>
</glyph>
<glyph name="hyphen" format="2">
  <advance width="418"/>
  <unicode hex="002D"/>
  <outline>
    <contour>
      <point x="30" y="187" type="line"/>
      <point x="388" y="187" type="line"/>
      <point x="388" y="355" type="line"/>
      <point x="30" y="355" type="line"/>
    </contour>
  </outline>
</glyph>
<glyph name="period" format="2">
  <advance width="262"/>
  <unicode hex="002E"/>
  <anchor x="-19" y="0" name="#entry"/>
  <anchor x="281" y="0" name="#exit"/>
  <anchor x="131" y="175" name="_top"/>
  <anchor x="131" y="554" name="top"/>
  <outline>
    <contour>
      <point x="131" y="-10" type="curve" smooth="yes"/>
      <point x="215" y="-10"/>
      <point x="249" y="29"/>
      <point x="249" y="83" type="curve" smooth="yes"/>
      <point x="249" y="136"/>
      <point x="215" y="175"/>
      <point x="131" y="175" type="curve" smooth="yes"/>
      <point x="47" y="175"/>
      <point x="13" y="136"/>
      <point x="13" y="83" type="curve" smooth="yes"/>
      <point x="13" y="29"/>
      <point x="47" y="-10"/>
    </contour>
  </outline>
</glyph>
<glyph name="slash" format="2">
  <advance width="535"/>
  <unicode hex="002F"/>
  <outline>
    <contour>
      <point x="-24" y="-82" type="line"/>
      <point x="185" y="-82" type="line"/>
      <point x="531" y="729" type="line"/>
      <point x="320" y="729" type="line"/>
    </contour>
  </outline>
</glyph>
<glyph name="zero" format="2">
  <advance width="795"/>
  <unicode hex="0030"/>
  <outline>
    <contour>
      <point x="397" y="-9" type="curve" smooth="yes"/>
      <point x="629" y="-9"/>
      <point x="783" y="124"/>
      <point x="783" y="360" type="curve" smooth="yes"/>
      <point x="783" y="594"/>
      <point x="631" y="729"/>
      <point x="398" y="729" type="curve" smooth="yes"/>
      <point x="166" y="729"/>
      <point x="12" y="596"/>
      <point x="12" y="361" type="curve" smooth="yes"/>
      <point x="12" y="127"/>
      <point x="164" y="-9"/>
    </contour>
    <contour>
      <point x="397" y="169" type="curve" smooth="yes"/>
      <point x="301" y="169"/>
      <point x="236" y="218"/>
      <point x="236" y="360" type="curve" smooth="yes"/>
      <point x="236" y="502"/>
      <point x="301" y="551"/>
      <point x="397" y="551" type="curve" smooth="yes"/>
      <point x="494" y="551"/>
      <point x="559" y="502"/>
      <point x="559" y="360" type="curve" smooth="yes"/>
      <point x="559" y="218"/>
      <point x="494" y="169"/>
    </contour>
  </outline>
</glyph>
<glyph name="one" format="2">
  <advance width="464"/>
  <unicode hex="0031"/>
  <outline>
    <contour>
      <point x="194" y="0" type="line"/>
      <point x="417" y="0" type="line"/>
      <point x="417" y="721" type="line"/>
      <point x="206" y="721" type="line"/>
      <point x="198" y="643"/>
      <point x="130" y="591"/>
      <point x="37" y="591" type="curve" smooth="yes"/>
      <point x="5" y="591" type="line"/>
      <point x="5" y="429" type="line"/>
      <point x="194" y="429" type="line"/>
    </contour>
  </outline>
</glyph>
<glyph name="two" format="2">
  <advance width="647"/>
  <unicode hex="0032"/>
  <outline>
    <contour>
      <point x="9" y="0" type="line"/>
      <point x="627" y="0" type="line"/>
      <point x="627" y="167" type="line"/>
      <point x="305" y="167" type="line"/>
      <point x="371" y="221"/>
      <point x="624" y="289"/>
      <point x="624" y="493" type="curve" smooth="yes"/>
      <point x="624" y="635"/>
      <point x="518" y="729"/>
      <point x="333" y="729" type="curve" smooth="yes"/>
      <point x="143" y="729"/>
      <point x="32" y="647"/>
      <point x="12" y="468" type="curve"/>
      <point x="226" y="468" type="line"/>
      <point x="233" y="524"/>
      <point x="263" y="559"/>
      <point x="326" y="559" type="curve" smooth="yes"/>
      <point x="356" y="559"/>
      <point x="401" y="539"/>
      <point x="401" y="488" type="curve" smooth="yes"/>
      <point x="401" y="347"/>
      <point x="9" y="311"/>
      <point x="9" y="33" type="curve" smooth="yes"/>
    </contour>
  </outline>
</glyph>
<glyph name="three" format="2">
  <advance width="692"/>
  <unicode hex="0033"/>
  <outline>
    <contour>
      <point x="338" y="-10" type="curve" smooth="yes"/>
      <point x="560" y="-10"/>
      <point x="679" y="78"/>
      <point x="679" y="207" type="curve" smooth="yes"/>
      <point x="679" y="296"/>
      <point x="620" y="359"/>
      <point x="535" y="369" type="curve"/>
      <point x="535" y="376" type="line"/>
      <point x="618" y="396"/>
      <point x="665" y="456"/>
      <point x="665" y="531" type="curve" smooth="yes"/>
      <point x="665" y="657"/>
      <point x="550" y="730"/>
      <point x="350" y="730" type="curve" smooth="yes"/>
      <point x="154" y="730"/>
      <point x="29" y="657"/>
      <point x="17" y="494" type="curve"/>
      <point x="233" y="494" type="line"/>
      <point x="242" y="547"/>
      <point x="278" y="568"/>
      <point x="341" y="568" type="curve" smooth="yes"/>
      <point x="404" y="568"/>
      <point x="440" y="545"/>
      <point x="440" y="503" type="curve" smooth="yes"/>
      <point x="440" y="463"/>
      <point x="409" y="436"/>
      <point x="344" y="436" type="curve" smooth="yes"/>
      <point x="245" y="436" type="line"/>
      <point x="245" y="295" type="line"/>
      <point x="346" y="295" type="line" smooth="yes"/>
      <point x="420" y="295"/>
      <point x="454" y="271"/>
      <point x="454" y="229" type="curve" smooth="yes"/>
      <point x="454" y="180"/>
      <point x="416" y="152"/>
      <point x="340" y="152" type="curve" smooth="yes"/>
      <point x="274" y="152"/>
      <point x="232" y="175"/>
      <point x="227" y="228" type="curve"/>
      <point x="6" y="228" type="line"/>
      <point x="14" y="77"/>
      <point x="117" y="-10"/>
    </contour>
  </outline>
</glyph>
<glyph name="four" format="2">
  <advance width="721"/>
  <unicode hex="0034"/>
  <outline>
    <contour>
      <point x="382" y="0" type="line"/>
      <point x="605" y="0" type="line"/>
      <point x="605" y="721" type="line"/>
      <point x="340" y="721" type="line"/>
      <point x="5" y="293" type="line"/>
      <point x="5" y="144" type="line"/>
      <point x="715" y="144" type="line"/>
      <point x="715" y="316" type="line"/>
      <point x="241" y="316" type="line"/>
      <point x="383" y="507" type="line"/>
      <point x="382" y="507" type="line"/>
    </contour>
  </outline>
</glyph>
<glyph name="five" format="2">
  <advance width="698"/>
  <unicode hex="0035"/>
  <outline>
    <contour>
      <point x="347" y="-10" type="curve" smooth="yes"/>
      <point x="539" y="-10"/>
      <point x="685" y="73"/>
      <point x="685" y="244" type="curve" smooth="yes"/>
      <point x="685" y="401"/>
      <point x="568" y="482"/>
      <point x="414" y="482" type="curve" smooth="yes"/>
      <point x="347" y="482"/>
      <point x="281" y="460"/>
      <point x="259" y="433" type="curve"/>
      <point x="250" y="436" type="line"/>
      <point x="260" y="547" type="line"/>
      <point x="651" y="547" type="line"/>
      <point x="651" y="721" type="line"/>
      <point x="57" y="721" type="line"/>
      <point x="32" y="272" type="line"/>
      <point x="235" y="272" type="line"/>
      <point x="253" y="305"/>
      <point x="299" y="327"/>
      <point x="354" y="327" type="curve" smooth="yes"/>
      <point x="418" y="327"/>
      <point x="461" y="298"/>
      <point x="461" y="243" type="curve" smooth="yes"/>
      <point x="461" y="191"/>
      <point x="423" y="156"/>
      <point x="350" y="156" type="curve" smooth="yes"/>
      <point x="292" y="156"/>
      <point x="251" y="173"/>
      <point x="243" y="219" type="curve"/>
      <point x="20" y="219" type="line"/>
      <point x="30" y="84"/>
      <point x="129" y="-10"/>
    </contour>
  </outline>
</glyph>
<glyph name="six" format="2">
  <advance width="725"/>
  <unicode hex="0036"/>
  <outline>
    <contour>
      <point x="371" y="-9" type="curve" smooth="yes"/>
      <point x="576" y="-9"/>
      <point x="713" y="84"/>
      <point x="713" y="250" type="curve" smooth="yes"/>
      <point x="713" y="395"/>
      <point x="605" y="477"/>
      <point x="443" y="477" type="curve" smooth="yes"/>
      <point x="354" y="477"/>
      <point x="280" y="445"/>
      <point x="247" y="397" type="curve"/>
      <point x="237" y="399" type="line"/>
      <point x="240" y="506"/>
      <point x="286" y="562"/>
      <point x="379" y="562" type="curve" smooth="yes"/>
      <point x="429" y="562"/>
      <point x="467" y="552"/>
      <point x="485" y="518" type="curve"/>
      <point x="703" y="518" type="line"/>
      <point x="682" y="645"/>
      <point x="564" y="730"/>
      <point x="386" y="730" type="curve" smooth="yes"/>
      <point x="180" y="730"/>
      <point x="15" y="629"/>
      <point x="15" y="351" type="curve" smooth="yes"/>
      <point x="15" y="68"/>
      <point x="182" y="-9"/>
    </contour>
    <contour>
      <point x="375" y="158" type="curve" smooth="yes"/>
      <point x="306" y="158"/>
      <point x="260" y="185"/>
      <point x="260" y="241" type="curve" smooth="yes"/>
      <point x="260" y="292"/>
      <point x="298" y="327"/>
      <point x="376" y="327" type="curve" smooth="yes"/>
      <point x="450" y="327"/>
      <point x="491" y="298"/>
      <point x="491" y="242" type="curve" smooth="yes"/>
      <point x="491" y="191"/>
      <point x="453" y="158"/>
    </contour>
  </outline>
</glyph>
<glyph name="seven" format="2">
  <advance width="634"/>
  <unicode hex="0037"/>
  <outline>
    <contour>
      <point x="159" y="0" type="curve"/>
      <point x="376" y="0" type="line"/>
      <point x="399" y="199"/>
      <point x="511" y="430"/>
      <point x="631" y="578" type="curve"/>
      <point x="631" y="721" type="line"/>
      <point x="14" y="721" type="line"/>
      <point x="14" y="436" type="line"/>
      <point x="179" y="436" type="line"/>
      <point x="179" y="547" type="line"/>
      <point x="408" y="547" type="line"/>
      <point x="279" y="396"/>
      <point x="182" y="198"/>
    </contour>
  </outline>
</glyph>
<glyph name="eight" format="2">
  <advance width="701"/>
  <unicode hex="0038"/>
  <outline>
    <contour>
      <point x="350" y="-9" type="curve" smooth="yes"/>
      <point x="583" y="-9"/>
      <point x="689" y="73"/>
      <point x="689" y="200" type="curve" smooth="yes"/>
      <point x="689" y="288"/>
      <point x="628" y="357"/>
      <point x="540" y="368" type="curve"/>
      <point x="540" y="375" type="line"/>
      <point x="619" y="391"/>
      <point x="673" y="447"/>
      <point x="673" y="530" type="curve" smooth="yes"/>
      <point x="673" y="675"/>
      <point x="532" y="730"/>
      <point x="350" y="730" type="curve" smooth="yes"/>
      <point x="169" y="730"/>
      <point x="29" y="675"/>
      <point x="29" y="530" type="curve" smooth="yes"/>
      <point x="29" y="447"/>
      <point x="83" y="390"/>
      <point x="162" y="375" type="curve"/>
      <point x="162" y="368" type="line"/>
      <point x="73" y="357"/>
      <point x="12" y="289"/>
      <point x="12" y="200" type="curve" smooth="yes"/>
      <point x="12" y="72"/>
      <point x="119" y="-9"/>
    </contour>
    <contour>
      <point x="350" y="154" type="curve" smooth="yes"/>
      <point x="282" y="154"/>
      <point x="238" y="176"/>
      <point x="238" y="224" type="curve" smooth="yes"/>
      <point x="238" y="268"/>
      <point x="271" y="296"/>
      <point x="350" y="296" type="curve" smooth="yes"/>
      <point x="430" y="296"/>
      <point x="463" y="268"/>
      <point x="463" y="224" type="curve" smooth="yes"/>
      <point x="463" y="176"/>
      <point x="420" y="154"/>
    </contour>
    <contour>
      <point x="350" y="435" type="curve" smooth="yes"/>
      <point x="282" y="435"/>
      <point x="251" y="461"/>
      <point x="251" y="502" type="curve" smooth="yes"/>
      <point x="251" y="544"/>
      <point x="287" y="567"/>
      <point x="350" y="567" type="curve" smooth="yes"/>
      <point x="414" y="567"/>
      <point x="451" y="544"/>
      <point x="451" y="502" type="curve" smooth="yes"/>
      <point x="451" y="461"/>
      <point x="420" y="435"/>
    </contour>
  </outline>
</glyph>
<glyph name="equal" format="2">
  <advance width="720"/>
  <unicode hex="003D"/>
  <anchor x="361" y="366" name="center"/>
  <outline>
    <contour>
      <point x="110" y="411" type="line"/>
      <point x="611" y="411" type="line"/>
      <point x="611" y="585" type="line"/>
      <point x="110" y="585" type="line"/>
    </contour>
    <contour>
      <point x="110" y="137" type="line"/>
      <point x="611" y="137" type="line"/>
      <point x="611" y="311" type="line"/>
      <point x="110" y="311" type="line"/>
    </contour>
  </outline>
</glyph>
<glyph name="question" format="2">
  <advance width="603"/>
  <unicode hex="003F"/>
  <outline>
    <contour>
      <point x="202" y="237" type="line"/>
      <point x="403" y="237" type="line"/>
      <point x="403" y="242" type="line" smooth="yes"/>
      <point x="403" y="305"/>
      <point x="595" y="358"/>
      <point x="595" y="525" type="curve" smooth="yes"/>
      <point x="595" y="653"/>
      <point x="499" y="738"/>
      <point x="301" y="738" type="curve" smooth="yes"/>
      <point x="127" y="738"/>
      <point x="8" y="660"/>
      <point x="3" y="504" type="curve"/>
      <point x="211" y="504" type="line"/>
      <point x="214" y="542"/>
      <point x="238" y="569"/>
      <point x="289" y="569" type="curve" smooth="yes"/>
      <point x="337" y="569"/>
      <point x="365" y="550"/>
      <point x="365" y="504" type="curve" smooth="yes"/>
      <point x="365" y="423"/>
      <point x="202" y="383"/>
      <point x="202" y="256" type="curve" smooth="yes"/>
    </contour>
    <contour>
      <point x="304" y="-10" type="curve" smooth="yes"/>
      <point x="388" y="-10"/>
      <point x="422" y="29"/>
      <point x="422" y="83" type="curve" smooth="yes"/>
      <point x="422" y="136"/>
      <point x="388" y="175"/>
      <point x="304" y="175" type="curve" smooth="yes"/>
      <point x="220" y="175"/>
      <point x="186" y="136"/>
      <point x="186" y="83" type="curve" smooth="yes"/>
      <point x="186" y="29"/>
      <point x="220" y="-10"/>
    </contour>
  </outline>
</glyph>
<glyph name="at" format="2">
  <advance width="938"/>
  <unicode hex="0040"/>
  <outline>
    <contour>
      <point x="485" y="-101" type="curve" smooth="yes"/>
      <point x="607" y="-101"/>
      <point x="717" y="-59"/>
      <point x="765" y="-17" type="curve"/>
      <point x="713" y="85" type="line"/>
      <point x="665" y="52"/>
      <point x="595" y="25"/>
      <point x="496" y="25" type="curve" smooth="yes"/>
      <point x="297" y="25"/>
      <point x="165" y="120"/>
      <point x="165" y="321" type="curve" smooth="yes"/>
      <point x="165" y="481"/>
      <point x="278" y="612"/>
      <point x="485" y="612" type="curve" smooth="yes"/>
      <point x="665" y="612"/>
      <point x="785" y="509"/>
      <point x="785" y="356" type="curve" smooth="yes"/>
      <point x="785" y="277"/>
      <point x="757" y="227"/>
      <point x="704" y="227" type="curve" smooth="yes"/>
      <point x="668" y="227"/>
      <point x="645" y="252"/>
      <point x="653" y="333" type="curve" smooth="yes"/>
      <point x="669" y="504" type="line"/>
      <point x="583" y="504" type="line"/>
      <point x="568" y="468" type="line"/>
      <point x="560" y="468" type="line"/>
      <point x="541" y="495"/>
      <point x="499" y="513"/>
      <point x="446" y="513" type="curve" smooth="yes"/>
      <point x="333" y="513"/>
      <point x="258" y="427"/>
      <point x="258" y="298" type="curve" smooth="yes"/>
      <point x="258" y="187"/>
      <point x="324" y="109"/>
      <point x="431" y="109" type="curve" smooth="yes"/>
      <point x="488" y="109"/>
      <point x="536" y="131"/>
      <point x="556" y="164" type="curve"/>
      <point x="565" y="164" type="line"/>
      <point x="588" y="130"/>
      <point x="639" y="105"/>
      <point x="699" y="105" type="curve" smooth="yes"/>
      <point x="833" y="105"/>
      <point x="923" y="209"/>
      <point x="923" y="366" type="curve" smooth="yes"/>
      <point x="923" y="589"/>
      <point x="746" y="738"/>
      <point x="480" y="738" type="curve" smooth="yes"/>
      <point x="211" y="738"/>
      <point x="18" y="565"/>
      <point x="18" y="320" type="curve" smooth="yes"/>
      <point x="18" y="67"/>
      <point x="187" y="-101"/>
    </contour>
    <contour>
      <point x="460" y="226" type="curve" smooth="yes"/>
      <point x="421" y="226"/>
      <point x="395" y="256"/>
      <point x="395" y="305" type="curve" smooth="yes"/>
      <point x="395" y="356"/>
      <point x="415" y="394"/>
      <point x="466" y="394" type="curve" smooth="yes"/>
      <point x="504" y="394"/>
      <point x="532" y="367"/>
      <point x="536" y="310" type="curve"/>
      <point x="530" y="260"/>
      <point x="507" y="226"/>
    </contour>
  </outline>
</glyph>
<glyph name="A" format="2">
  <advance width="871"/>
  <unicode hex="0041"/>
  <anchor x="435" y="0" name="bottom"/>
  <anchor x="877" y="0" name="ogonek"/>
  <anchor x="435" y="729" name="top"/>
  <outline>
    <contour>
      <point x="-7" y="0" type="line"/>
      <point x="240" y="0" type="line"/>
      <point x="402" y="476" type="line"/>
      <point x="430" y="565" type="line"/>
      <point x="437" y="565" type="line"/>
      <point x="466" y="476" type="line"/>
      <point x="628" y="0" type="line"/>
      <point x="877" y="0" type="line"/>
      <point x="583" y="729" type="line"/>
      <point x="285" y="729" type="line"/>
    </contour>
    <contour>
      <point x="267" y="124" type="line"/>
      <point x="600" y="124" type="line"/>
      <point x="540" y="293" type="line"/>
      <point x="328" y="293" type="line"/>
    </contour>
  </outline>
</glyph>
<glyph name="B" format="2">
  <advance width="766"/>
  <unicode hex="0042"/>
  <anchor x="382" y="0" name="bottom"/>
  <anchor x="382" y="729" name="top"/>
  <outline>
    <contour>
      <point x="47" y="0" type="line"/>
      <point x="464" y="0" type="line" smooth="yes"/>
      <point x="650" y="0"/>
      <point x="755" y="66"/>
      <point x="755" y="206" type="curve" smooth="yes"/>
      <point x="755" y="302"/>
      <point x="700" y="358"/>
      <point x="612" y="377" type="curve"/>
      <point x="612" y="384" type="line"/>
      <point x="684" y="407"/>
      <point x="732" y="461"/>
      <point x="732" y="544" type="curve" smooth="yes"/>
      <point x="732" y="665"/>
      <point x="654" y="729"/>
      <point x="476" y="729" type="curve" smooth="yes"/>
      <point x="47" y="729" type="line"/>
    </contour>
    <contour>
      <point x="275" y="155" type="line"/>
      <point x="275" y="573" type="line"/>
      <point x="412" y="573" type="line" smooth="yes"/>
      <point x="468" y="573"/>
      <point x="506" y="559"/>
      <point x="506" y="513" type="curve" smooth="yes"/>
      <point x="506" y="473"/>
      <point x="484" y="447"/>
      <point x="413" y="447" type="curve" smooth="yes"/>
      <point x="259" y="447" type="line"/>
      <point x="259" y="298" type="line"/>
      <point x="422" y="298" type="line" smooth="yes"/>
      <point x="493" y="298"/>
      <point x="526" y="277"/>
      <point x="526" y="227" type="curve" smooth="yes"/>
      <point x="526" y="184"/>
      <point x="502" y="155"/>
      <point x="422" y="155" type="curve" smooth="yes"/>
    </contour>
  </outline>
</glyph>
<glyph name="C" format="2">
  <advance width="838"/>
  <unicode hex="0043"/>
  <anchor x="422" y="0" name="bottom"/>
  <anchor x="422" y="729" name="top"/>
  <outline>
    <contour>
      <point x="437" y="-10" type="curve" smooth="yes"/>
      <point x="649" y="-10"/>
      <point x="813" y="97"/>
      <point x="832" y="259" type="curve"/>
      <point x="604" y="259" type="line"/>
      <point x="588" y="204"/>
      <point x="517" y="170"/>
      <point x="437" y="170" type="curve" smooth="yes"/>
      <point x="320" y="170"/>
      <point x="243" y="230"/>
      <point x="243" y="365" type="curve" smooth="yes"/>
      <point x="243" y="500"/>
      <point x="320" y="560"/>
      <point x="437" y="560" type="curve" smooth="yes"/>
      <point x="518" y="560"/>
      <point x="585" y="524"/>
      <point x="602" y="471" type="curve"/>
      <point x="832" y="471" type="line"/>
      <point x="813" y="630"/>
      <point x="669" y="739"/>
      <point x="437" y="739" type="curve" smooth="yes"/>
      <point x="166" y="739"/>
      <point x="12" y="592"/>
      <point x="12" y="365" type="curve" smooth="yes"/>
      <point x="12" y="138"/>
      <point x="166" y="-10"/>
    </contour>
  </outline>
</glyph>
<glyph name="D" format="2">
  <advance width="818"/>
  <unicode hex="0044"/>
  <anchor x="410" y="0" name="bottom"/>
  <anchor x="183" y="365" name="center"/>
  <anchor x="410" y="729" name="top"/>
  <outline>
    <contour>
      <point x="47" y="0" type="line"/>
      <point x="415" y="0" type="line" smooth="yes"/>
      <point x="652" y="0"/>
      <point x="805" y="121"/>
      <point x="805" y="364" type="curve" smooth="yes"/>
      <point x="805" y="583"/>
      <point x="679" y="729"/>
      <point x="415" y="729" type="curve" smooth="yes"/>
      <point x="47" y="729" type="line"/>
    </contour>
    <contour>
      <point x="275" y="175" type="line"/>
      <point x="275" y="554" type="line"/>
      <point x="368" y="554" type="line" smooth="yes"/>
      <point x="490" y="554"/>
      <point x="574" y="513"/>
      <point x="574" y="368" type="curve" smooth="yes"/>
      <point x="574" y="244"/>
      <point x="520" y="175"/>
      <point x="368" y="175" type="curve" smooth="yes"/>
    </contour>
  </outline>
</glyph>
<glyph name="E" format="2">
  <advance width="710"/>
  <unicode hex="0045"/>
  <anchor x="368" y="0" name="bottom"/>
  <anchor x="688" y="0" name="ogonek"/>
  <anchor x="366" y="729" name="top"/>
  <anchor x="13" y="729" name="topleft"/>
  <outline>
    <contour>
      <point x="47" y="0" type="line"/>
      <point x="688" y="0" type="line"/>
      <point x="688" y="179" type="line"/>
      <point x="231" y="179" type="line"/>
      <point x="276" y="134" type="line"/>
      <point x="276" y="595" type="line"/>
      <point x="231" y="550" type="line"/>
      <point x="685" y="550" type="line"/>
      <point x="685" y="729" type="line"/>
      <point x="47" y="729" type="line"/>
    </contour>
    <contour>
      <point x="231" y="282" type="line"/>
      <point x="635" y="282" type="line"/>
      <point x="635" y="449" type="line"/>
      <point x="231" y="449" type="line"/>
    </contour>
  </outline>
</glyph>
<glyph name="F" format="2">
  <advance width="666"/>
  <unicode hex="0046"/>
  <anchor x="333" y="0" name="bottom"/>
  <anchor x="333" y="729" name="top"/>
  <outline>
    <contour>
      <point x="47" y="0" type="line"/>
      <point x="276" y="0" type="line"/>
      <point x="276" y="565" type="line"/>
      <point x="261" y="550" type="line"/>
      <point x="657" y="550" type="line"/>
      <point x="657" y="729" type="line"/>
      <point x="47" y="729" type="line"/>
    </contour>
    <contour>
      <point x="245" y="257" type="line"/>
      <point x="617" y="257" type="line"/>
      <point x="617" y="426" type="line"/>
      <point x="245" y="426" type="line"/>
    </contour>
  </outline>
</glyph>
<glyph name="G" format="2">
  <advance width="877"/>
  <unicode hex="0047"/>
  <anchor x="435" y="0" name="bottom"/>
  <anchor x="445" y="729" name="top"/>
  <outline>
    <contour>
      <point x="380" y="-10" type="curve" smooth="yes"/>
      <point x="501" y="-10"/>
      <point x="609" y="28"/>
      <point x="650" y="97" type="curve"/>
      <point x="658" y="97" type="line"/>
      <point x="666" y="0" type="line"/>
      <point x="847" y="0" type="line"/>
      <point x="847" y="410" type="line"/>
      <point x="435" y="410" type="line"/>
      <point x="435" y="261" type="line"/>
      <point x="639" y="261" type="line"/>
      <point x="611" y="294" type="line"/>
      <point x="611" y="271" type="line" smooth="yes"/>
      <point x="611" y="208"/>
      <point x="528" y="163"/>
      <point x="437" y="163" type="curve" smooth="yes"/>
      <point x="321" y="163"/>
      <point x="243" y="231"/>
      <point x="243" y="358" type="curve" smooth="yes"/>
      <point x="243" y="479"/>
      <point x="305" y="563"/>
      <point x="446" y="563" type="curve" smooth="yes"/>
      <point x="531" y="563"/>
      <point x="593" y="525"/>
      <point x="606" y="475" type="curve"/>
      <point x="838" y="475" type="line"/>
      <point x="823" y="633"/>
      <point x="665" y="739"/>
      <point x="445" y="739" type="curve" smooth="yes"/>
      <point x="178" y="739"/>
      <point x="12" y="598"/>
      <point x="12" y="352" type="curve" smooth="yes"/>
      <point x="12" y="135"/>
      <point x="160" y="-10"/>
    </contour>
  </outline>
</glyph>
<glyph name="H" format="2">
  <advance width="868"/>
  <unicode hex="0048"/>
  <anchor x="434" y="0" name="bottom"/>
  <anchor x="434" y="591" name="center"/>
  <anchor x="434" y="729" name="top"/>
  <anchor x="13" y="729" name="topleft"/>
  <outline>
    <contour>
      <point x="47" y="0" type="line"/>
      <point x="276" y="0" type="line"/>
      <point x="276" y="729" type="line"/>
      <point x="47" y="729" type="line"/>
    </contour>
    <contour>
      <point x="592" y="0" type="line"/>
      <point x="821" y="0" type="line"/>
      <point x="821" y="729" type="line"/>
      <point x="592" y="729" type="line"/>
    </contour>
    <contour>
      <point x="245" y="280" type="line"/>
      <point x="623" y="280" type="line"/>
      <point x="623" y="458" type="line"/>
      <point x="245" y="458" type="line"/>
    </contour>
  </outline>
</glyph>
<glyph name="I" format="2">
  <advance width="323"/>
  <unicode hex="0049"/>
  <anchor x="162" y="0" name="bottom"/>
  <anchor x="276" y="0" name="ogonek"/>
  <anchor x="162" y="729" name="top"/>
  <anchor x="13" y="729" name="topleft"/>
  <outline>
    <contour>
      <point x="47" y="0" type="line"/>
      <point x="276" y="0" type="line"/>
      <point x="276" y="729" type="line"/>
      <point x="47" y="729" type="line"/>
    </contour>
  </outline>
</glyph>
<glyph name="J" format="2">
  <advance width="472"/>
  <unicode hex="004A"/>
  <anchor x="215" y="0" name="bottom"/>
  <anchor x="319" y="729" name="top"/>
  <outline>
    <contour>
      <point x="4" y="0" type="line"/>
      <point x="206" y="0" type="line" smooth="yes"/>
      <point x="360" y="0"/>
      <point x="433" y="82"/>
      <point x="433" y="229" type="curve" smooth="yes"/>
      <point x="433" y="729" type="line"/>
      <point x="204" y="729" type="line"/>
      <point x="204" y="242" type="line" smooth="yes"/>
      <point x="204" y="198"/>
      <point x="186" y="179"/>
      <point x="142" y="179" type="curve" smooth="yes"/>
      <point x="4" y="179" type="line"/>
    </contour>
  </outline>
</glyph>
<glyph name="K" format="2">
  <advance width="867"/>
  <unicode hex="004B"/>
  <anchor x="431" y="0" name="bottom"/>
  <anchor x="431" y="729" name="top"/>
  <outline>
    <contour>
      <point x="586" y="0" type="line"/>
      <point x="875" y="0" type="line"/>
      <point x="546" y="428" type="line"/>
      <point x="851" y="729" type="line"/>
      <point x="556" y="729" type="line"/>
      <point x="265" y="415" type="line"/>
      <point x="265" y="149" type="line"/>
      <point x="383" y="273" type="line"/>
    </contour>
    <contour>
      <point x="47" y="0" type="line"/>
      <point x="276" y="0" type="line"/>
      <point x="276" y="729" type="line"/>
      <point x="47" y="729" type="line"/>
    </contour>
  </outline>
</glyph>
<glyph name="L" format="2">
  <advance width="611"/>
  <unicode hex="004C"/>
  <anchor x="305" y="0" name="bottom"/>
  <anchor x="406" y="365" name="center"/>
  <anchor x="162" y="729" name="top"/>
  <anchor x="296" y="729" name="topright"/>
  <outline>
    <contour>
      <point x="47" y="0" type="line"/>
      <point x="606" y="0" type="line"/>
      <point x="606" y="186" type="line"/>
      <point x="231" y="186" type="line"/>
      <point x="276" y="141" type="line"/>
      <point x="276" y="729" type="line"/>
      <point x="47" y="729" type="line"/>
    </contour>
  </outline>
</glyph>
<glyph name="M" format="2">
  <advance width="1024"/>
  <unicode hex="004D"/>
  <anchor x="513" y="0" name="bottom"/>
  <anchor x="513" y="729" name="top"/>
  <outline>
    <contour>
      <point x="47" y="0" type="line"/>
      <point x="261" y="0" type="line"/>
      <point x="261" y="233" type="line"/>
      <point x="256" y="523" type="line"/>
      <point x="266" y="523" type="line"/>
      <point x="317" y="326" type="line"/>
      <point x="412" y="0" type="line"/>
      <point x="614" y="0" type="line"/>
      <point x="709" y="326" type="line"/>
      <point x="760" y="523" type="line"/>
      <point x="770" y="523" type="line"/>
      <point x="765" y="235" type="line"/>
      <point x="765" y="0" type="line"/>
      <point x="977" y="0" type="line"/>
      <point x="977" y="729" type="line"/>
      <point x="635" y="729" type="line"/>
      <point x="540" y="349" type="line"/>
      <point x="518" y="247" type="line"/>
      <point x="510" y="247" type="line"/>
      <point x="487" y="349" type="line"/>
      <point x="389" y="729" type="line"/>
      <point x="47" y="729" type="line"/>
    </contour>
  </outline>
</glyph>
<glyph name="N" format="2">
  <advance width="881"/>
  <unicode hex="004E"/>
  <anchor x="441" y="0" name="bottom"/>
  <anchor x="441" y="729" name="top"/>
  <outline>
    <contour>
      <point x="47" y="0" type="line"/>
      <point x="278" y="0" type="line"/>
      <point x="278" y="226" type="line"/>
      <point x="271" y="424" type="line"/>
      <point x="280" y="424" type="line"/>
      <point x="562" y="0" type="line"/>
      <point x="834" y="0" type="line"/>
      <point x="834" y="729" type="line"/>
      <point x="607" y="729" type="line"/>
      <point x="607" y="504" type="line"/>
      <point x="613" y="299" type="line"/>
      <point x="605" y="299" type="line"/>
      <point x="323" y="729" type="line"/>
      <point x="47" y="729" type="line"/>
    </contour>
  </outline>
</glyph>
<glyph name="O" format="2">
  <advance width="871"/>
  <unicode hex="004F"/>
  <anchor x="436" y="0" name="bottom"/>
  <anchor x="436" y="365" name="center"/>
  <anchor x="792" y="10" name="ogonek"/>
  <anchor x="436" y="729" name="top"/>
  <anchor x="10" y="729" name="topleft"/>
  <anchor x="619" y="709" name="topright"/>
  <outline>
    <contour>
      <point x="437" y="-10" type="curve" smooth="yes"/>
      <point x="705" y="-10"/>
      <point x="859" y="138"/>
      <point x="859" y="365" type="curve" smooth="yes"/>
      <point x="859" y="592"/>
      <point x="705" y="739"/>
      <point x="437" y="739" type="curve" smooth="yes"/>
      <point x="166" y="739"/>
      <point x="12" y="592"/>
      <point x="12" y="365" type="curve" smooth="yes"/>
      <point x="12" y="138"/>
      <point x="166" y="-10"/>
    </contour>
    <contour>
      <point x="437" y="170" type="curve" smooth="yes"/>
      <point x="320" y="170"/>
      <point x="243" y="230"/>
      <point x="243" y="365" type="curve" smooth="yes"/>
      <point x="243" y="500"/>
      <point x="320" y="560"/>
      <point x="437" y="560" type="curve" smooth="yes"/>
      <point x="552" y="560"/>
      <point x="629" y="500"/>
      <point x="629" y="365" type="curve" smooth="yes"/>
      <point x="629" y="230"/>
      <point x="552" y="170"/>
    </contour>
  </outline>
</glyph>
<glyph name="P" format="2">
  <advance width="740"/>
  <unicode hex="0050"/>
  <anchor x="373" y="0" name="bottom"/>
  <anchor x="373" y="729" name="top"/>
  <outline>
    <contour>
      <point x="47" y="0" type="line"/>
      <point x="276" y="0" type="line"/>
      <point x="276" y="599" type="line"/>
      <point x="231" y="554" type="line"/>
      <point x="409" y="554" type="line" smooth="yes"/>
      <point x="462" y="554"/>
      <point x="503" y="538"/>
      <point x="503" y="476" type="curve" smooth="yes"/>
      <point x="503" y="425"/>
      <point x="477" y="397"/>
      <point x="409" y="397" type="curve" smooth="yes"/>
      <point x="260" y="397" type="line"/>
      <point x="260" y="239" type="line"/>
      <point x="434" y="239" type="line" smooth="yes"/>
      <point x="613" y="239"/>
      <point x="733" y="308"/>
      <point x="733" y="484" type="curve" smooth="yes"/>
      <point x="733" y="631"/>
      <point x="649" y="729"/>
      <point x="434" y="729" type="curve" smooth="yes"/>
      <point x="47" y="729" type="line"/>
    </contour>
  </outline>
</glyph>
<glyph name="R" format="2">
  <advance width="807"/>
  <unicode hex="0052"/>
  <anchor x="400" y="0" name="bottom"/>
  <anchor x="376" y="729" name="top"/>
  <outline>
    <contour>
      <point x="47" y="0" type="line"/>
      <point x="276" y="0" type="line"/>
      <point x="276" y="558" type="line"/>
      <point x="444" y="558" type="line" smooth="yes"/>
      <point x="510" y="558"/>
      <point x="555" y="542"/>
      <point x="555" y="485" type="curve" smooth="yes"/>
      <point x="555" y="437"/>
      <point x="531" y="405"/>
      <point x="444" y="405" type="curve" smooth="yes"/>
      <point x="260" y="405" type="line"/>
      <point x="260" y="243" type="line"/>
      <point x="446" y="243" type="line" smooth="yes"/>
      <point x="515" y="243"/>
      <point x="539" y="222"/>
      <point x="539" y="164" type="curve" smooth="yes"/>
      <point x="539" y="73" type="line" smooth="yes"/>
      <point x="539" y="46"/>
      <point x="539" y="21"/>
      <point x="544" y="0" type="curve"/>
      <point x="776" y="0" type="line"/>
      <point x="769" y="26"/>
      <point x="768" y="46"/>
      <point x="768" y="76" type="curve" smooth="yes"/>
      <point x="768" y="199" type="line" smooth="yes"/>
      <point x="768" y="278"/>
      <point x="724" y="320"/>
      <point x="653" y="332" type="curve"/>
      <point x="653" y="338" type="line"/>
      <point x="731" y="360"/>
      <point x="787" y="425"/>
      <point x="787" y="520" type="curve" smooth="yes"/>
      <point x="787" y="645"/>
      <point x="709" y="729"/>
      <point x="521" y="729" type="curve" smooth="yes"/>
      <point x="47" y="729" type="line"/>
    </contour>
  </outline>
</glyph>
<glyph name="S" format="2">
  <advance width="745"/>
  <unicode hex="0053"/>
  <anchor x="376" y="0" name="bottom"/>
  <anchor x="373" y="729" name="top"/>
  <outline>
    <contour>
      <point x="376" y="-10" type="curve" smooth="yes"/>
      <point x="607" y="-10"/>
      <point x="736" y="78"/>
      <point x="736" y="226" type="curve" smooth="yes"/>
      <point x="736" y="386"/>
      <point x="646" y="436"/>
      <point x="413" y="462" type="curve" smooth="yes"/>
      <point x="284" y="476"/>
      <point x="262" y="484"/>
      <point x="262" y="526" type="curve" smooth="yes"/>
      <point x="262" y="562"/>
      <point x="299" y="585"/>
      <point x="366" y="585" type="curve" smooth="yes"/>
      <point x="428" y="585"/>
      <point x="471" y="565"/>
      <point x="479" y="514" type="curve"/>
      <point x="710" y="514" type="line"/>
      <point x="696" y="660"/>
      <point x="567" y="738"/>
      <point x="375" y="738" type="curve" smooth="yes"/>
      <point x="157" y="738"/>
      <point x="27" y="652"/>
      <point x="27" y="499" type="curve" smooth="yes"/>
      <point x="27" y="357"/>
      <point x="126" y="300"/>
      <point x="352" y="274" type="curve" smooth="yes"/>
      <point x="471" y="260"/>
      <point x="500" y="256"/>
      <point x="500" y="207" type="curve" smooth="yes"/>
      <point x="500" y="167"/>
      <point x="459" y="145"/>
      <point x="385" y="145" type="curve" smooth="yes"/>
      <point x="293" y="145"/>
      <point x="248" y="183"/>
      <point x="247" y="235" type="curve"/>
      <point x="9" y="235" type="line"/>
      <point x="9" y="92"/>
      <point x="126" y="-10"/>
    </contour>
  </outline>
</glyph>
<glyph name="T" format="2">
  <advance width="684"/>
  <unicode hex="0054"/>
  <anchor x="342" y="0" name="bottom"/>
  <anchor x="339" y="324" name="center"/>
  <anchor x="342" y="729" name="top"/>
  <outline>
    <contour>
      <point x="225" y="0" type="line"/>
      <point x="453" y="0" type="line"/>
      <point x="453" y="564" type="line"/>
      <point x="225" y="564" type="line"/>
    </contour>
    <contour>
      <point x="4" y="548" type="line"/>
      <point x="680" y="548" type="line"/>
      <point x="680" y="729" type="line"/>
      <point x="4" y="729" type="line"/>
    </contour>
  </outline>
</glyph>
<glyph name="U" format="2">
  <advance width="799"/>
  <unicode hex="0055"/>
  <anchor x="400" y="0" name="bottom"/>
  <anchor x="557" y="0" name="ogonek"/>
  <anchor x="400" y="729" name="top"/>
  <anchor x="569" y="729" name="topright"/>
  <outline>
    <contour>
      <point x="399" y="-10" type="curve" smooth="yes"/>
      <point x="659" y="-10"/>
      <point x="766" y="122"/>
      <point x="766" y="319" type="curve" smooth="yes"/>
      <point x="766" y="729" type="line"/>
      <point x="540" y="729" type="line"/>
      <point x="540" y="318" type="line" smooth="yes"/>
      <point x="540" y="206"/>
      <point x="482" y="176"/>
      <point x="399" y="176" type="curve" smooth="yes"/>
      <point x="289" y="176"/>
      <point x="258" y="234"/>
      <point x="258" y="318" type="curve" smooth="yes"/>
      <point x="258" y="729" type="line"/>
      <point x="33" y="729" type="line"/>
      <point x="33" y="319" type="line" smooth="yes"/>
      <point x="33" y="88"/>
      <point x="177" y="-10"/>
    </contour>
  </outline>
</glyph>
<glyph name="V" format="2">
  <advance width="877"/>
  <unicode hex="0056"/>
  <anchor x="438" y="0" name="bottom"/>
  <anchor x="438" y="729" name="top"/>
  <outline>
    <contour>
      <point x="291" y="0" type="line"/>
      <point x="586" y="0" type="line"/>
      <point x="884" y="729" type="line"/>
      <point x="632" y="729" type="line"/>
      <point x="470" y="262" type="line"/>
      <point x="442" y="179" type="line"/>
      <point x="435" y="179" type="line"/>
      <point x="406" y="264" type="line"/>
      <point x="245" y="729" type="line"/>
      <point x="-7" y="729" type="line"/>
    </contour>
  </outline>
</glyph>
<glyph name="W" format="2">
  <advance width="1153"/>
  <unicode hex="0057"/>
  <anchor x="577" y="0" name="bottom"/>
  <anchor x="577" y="729" name="top"/>
  <outline>
    <contour>
      <point x="189" y="0" type="line"/>
      <point x="483" y="0" type="line"/>
      <point x="544" y="297" type="line"/>
      <point x="574" y="444" type="line"/>
      <point x="582" y="444" type="line"/>
      <point x="615" y="296" type="line"/>
      <point x="681" y="0" type="line"/>
      <point x="974" y="0" type="line"/>
      <point x="1156" y="729" type="line"/>
      <point x="913" y="729" type="line"/>
      <point x="851" y="400" type="line"/>
      <point x="822" y="220" type="line"/>
      <point x="813" y="220" type="line"/>
      <point x="776" y="395" type="line"/>
      <point x="704" y="729" type="line"/>
      <point x="460" y="729" type="line"/>
      <point x="390" y="389" type="line"/>
      <point x="356" y="222" type="line"/>
      <point x="345" y="222" type="line"/>
      <point x="316" y="392" type="line"/>
      <point x="248" y="729" type="line"/>
      <point x="-3" y="729" type="line"/>
    </contour>
  </outline>
</glyph>
<glyph name="X" format="2">
  <advance width="870"/>
  <unicode hex="0058"/>
  <anchor x="434" y="0" name="bottom"/>
  <anchor x="434" y="729" name="top"/>
  <outline>
    <contour>
      <point x="-8" y="0" type="line"/>
      <point x="264" y="0" type="line"/>
      <point x="373" y="145" type="line"/>
      <point x="426" y="219" type="line"/>
      <point x="435" y="219" type="line"/>
      <point x="486" y="145" type="line"/>
      <point x="591" y="0" type="line"/>
      <point x="877" y="0" type="line"/>
      <point x="589" y="385" type="line"/>
      <point x="861" y="729" type="line"/>
      <point x="582" y="729" type="line"/>
      <point x="497" y="605" type="line"/>
      <point x="443" y="525" type="line"/>
      <point x="434" y="526" type="line"/>
      <point x="382" y="605" type="line"/>
      <point x="297" y="729" type="line"/>
      <point x="11" y="729" type="line"/>
      <point x="289" y="378" type="line"/>
    </contour>
  </outline>
</glyph>
<glyph name="Y" format="2">
  <advance width="834"/>
  <unicode hex="0059"/>
  <anchor x="417" y="0" name="bottom"/>
  <anchor x="417" y="729" name="top"/>
  <anchor x="16" y="729" name="topleft"/>
  <outline>
    <contour>
      <point x="301" y="0" type="line"/>
      <point x="530" y="0" type="line"/>
      <point x="530" y="266" type="line"/>
      <point x="843" y="729" type="line"/>
      <point x="587" y="729" type="line"/>
      <point x="475" y="545" type="line"/>
      <point x="420" y="446" type="line"/>
      <point x="412" y="446" type="line"/>
      <point x="358" y="545" type="line"/>
      <point x="249" y="729" type="line"/>
      <point x="-9" y="729" type="line"/>
      <point x="301" y="266" type="line"/>
    </contour>
  </outline>
</glyph>
<glyph name="Z" format="2">
  <advance width="699"/>
  <unicode hex="005A"/>
  <anchor x="349" y="0" name="bottom"/>
  <anchor x="349" y="365" name="center"/>
  <anchor x="349" y="729" name="top"/>
  <outline>
    <contour>
      <point x="15" y="0" type="line"/>
      <point x="681" y="0" type="line"/>
      <point x="681" y="179" type="line"/>
      <point x="295" y="179" type="line"/>
      <point x="671" y="547" type="line"/>
      <point x="671" y="729" type="line"/>
      <point x="35" y="729" type="line"/>
      <point x="35" y="549" type="line"/>
      <point x="390" y="549" type="line"/>
      <point x="15" y="180" type="line"/>
    </contour>
  </outline>
</glyph>
<glyph name="bracketleft" format="2">
  <advance width="396"/>
  <unicode hex="005B"/>
  <outline>
    <contour>
      <point x="51" y="-167" type="line"/>
      <point x="382" y="-167" type="line"/>
      <point x="382" y="-12" type="line"/>
      <point x="243" y="-12" type="line"/>
      <point x="243" y="638" type="line"/>
      <point x="382" y="638" type="line"/>
      <point x="382" y="793" type="line"/>
      <point x="51" y="793" type="line"/>
    </contour>
  </outline>
</glyph>
<glyph name="backslash" format="2">
  <advance width="507"/>
  <unicode hex="005C"/>
  <outline>
    <contour>
      <point x="322" y="-82" type="line"/>
      <point x="531" y="-82" type="line"/>
      <point x="187" y="729" type="line"/>
      <point x="-24" y="729" type="line"/>
    </contour>
  </outline>
</glyph>
<glyph name="asciicircum" format="2">
  <advance width="720"/>
  <unicode hex="005E"/>
  <outline>
    <contour>
      <point x="87" y="467" type="line"/>
      <point x="271" y="467" type="line"/>
      <point x="361" y="579" type="line"/>
      <point x="449" y="467" type="line"/>
      <point x="634" y="467" type="line"/>
      <point x="457" y="729" type="line"/>
      <point x="265" y="729" type="line"/>
    </contour>
  </outline>
</glyph>
<glyph name="underscore" format="2">
  <advance width="488"/>
  <unicode hex="005F"/>
  <outline>
    <contour>
      <point x="30" y="-158" type="line"/>
      <point x="458" y="-158" type="line"/>
      <point x="458" y="0" type="line"/>
      <point x="30" y="0" type="line"/>
    </contour>
  </outline>
</glyph>
<glyph name="a" format="2">
  <advance width="730"/>
  <unicode hex="0061"/>
  <anchor x="360" y="0" name="bottom"/>
  <anchor x="687" y="0" name="ogonek"/>
  <anchor x="360" y="544" name="top"/>
  <outline>
    <contour>
      <point x="276" y="-10" type="curve" smooth="yes"/>
      <point x="355" y="-10"/>
      <point x="424" y="19"/>
      <point x="458" y="69" type="curve"/>
      <point x="466" y="69" type="line"/>
      <point x="466" y="0" type="line"/>
      <point x="687" y="0" type="line"/>
      <point x="687" y="544" type="line"/>
      <point x="477" y="544" type="line"/>
      <point x="471" y="473" type="line"/>
      <point x="463" y="473" type="line"/>
      <point x="432" y="520"/>
      <point x="373" y="552"/>
      <point x="276" y="552" type="curve" smooth="yes"/>
      <point x="118" y="552"/>
      <point x="12" y="444"/>
      <point x="12" y="271" type="curve" smooth="yes"/>
      <point x="12" y="99"/>
      <point x="118" y="-10"/>
    </contour>
    <contour>
      <point x="347" y="155" type="curve" smooth="yes"/>
      <point x="279" y="155"/>
      <point x="234" y="195"/>
      <point x="234" y="271" type="curve" smooth="yes"/>
      <point x="234" y="347"/>
      <point x="280" y="387"/>
      <point x="347" y="387" type="curve" smooth="yes"/>
      <point x="421" y="387"/>
      <point x="465" y="342"/>
      <point x="465" y="277" type="curve" smooth="yes"/>
      <point x="465" y="265" type="line" smooth="yes"/>
      <point x="465" y="200"/>
      <point x="421" y="155"/>
    </contour>
  </outline>
</glyph>
<glyph name="b" format="2">
  <advance width="729"/>
  <unicode hex="0062"/>
  <anchor x="370" y="0" name="bottom"/>
  <anchor x="370" y="729" name="top"/>
  <outline>
    <contour>
      <point x="453" y="-8" type="curve" smooth="yes"/>
      <point x="612" y="-8"/>
      <point x="717" y="101"/>
      <point x="717" y="273" type="curve" smooth="yes"/>
      <point x="717" y="445"/>
      <point x="612" y="554"/>
      <point x="453" y="554" type="curve" smooth="yes"/>
      <point x="376" y="554"/>
      <point x="306" y="526"/>
      <point x="271" y="475" type="curve"/>
      <point x="264" y="475" type="line"/>
      <point x="264" y="729" type="line"/>
      <point x="43" y="729" type="line"/>
      <point x="43" y="0" type="line"/>
      <point x="252" y="0" type="line"/>
      <point x="259" y="71" type="line"/>
      <point x="266" y="71" type="line"/>
      <point x="298" y="24"/>
      <point x="358" y="-8"/>
    </contour>
    <contour>
      <point x="383" y="157" type="curve" smooth="yes"/>
      <point x="308" y="157"/>
      <point x="264" y="203"/>
      <point x="264" y="268" type="curve" smooth="yes"/>
      <point x="264" y="279" type="line" smooth="yes"/>
      <point x="264" y="344"/>
      <point x="308" y="389"/>
      <point x="383" y="389" type="curve" smooth="yes"/>
      <point x="451" y="389"/>
      <point x="496" y="349"/>
      <point x="496" y="273" type="curve" smooth="yes"/>
      <point x="496" y="198"/>
      <point x="451" y="157"/>
    </contour>
  </outline>
</glyph>
<glyph name="c" format="2">
  <advance width="675"/>
  <unicode hex="0063"/>
  <anchor x="338" y="0" name="bottom"/>
  <anchor x="347" y="544" name="top"/>
  <outline>
    <contour>
      <point x="337" y="-10" type="curve" smooth="yes"/>
      <point x="515" y="-10"/>
      <point x="660" y="73"/>
      <point x="666" y="212" type="curve"/>
      <point x="446" y="212" type="line"/>
      <point x="434" y="174"/>
      <point x="393" y="156"/>
      <point x="346" y="156" type="curve" smooth="yes"/>
      <point x="277" y="156"/>
      <point x="231" y="193"/>
      <point x="231" y="274" type="curve" smooth="yes"/>
      <point x="231" y="342"/>
      <point x="270" y="388"/>
      <point x="346" y="388" type="curve" smooth="yes"/>
      <point x="401" y="388"/>
      <point x="438" y="365"/>
      <point x="445" y="332" type="curve"/>
      <point x="664" y="332" type="line"/>
      <point x="659" y="464"/>
      <point x="539" y="554"/>
      <point x="347" y="554" type="curve" smooth="yes"/>
      <point x="144" y="554"/>
      <point x="10" y="453"/>
      <point x="10" y="275" type="curve" smooth="yes"/>
      <point x="10" y="103"/>
      <point x="134" y="-10"/>
    </contour>
  </outline>
</glyph>
<glyph name="d" format="2">
  <advance width="730"/>
  <unicode hex="0064"/>
  <anchor x="361" y="0" name="bottom"/>
  <anchor x="547" y="631" name="center"/>
  <anchor x="361" y="729" name="top"/>
  <anchor x="687" y="729" name="topright"/>
  <outline>
    <contour>
      <point x="275" y="-8" type="curve" smooth="yes"/>
      <point x="372" y="-8"/>
      <point x="432" y="24"/>
      <point x="463" y="70" type="curve"/>
      <point x="471" y="70" type="line"/>
      <point x="477" y="0" type="line"/>
      <point x="687" y="0" type="line"/>
      <point x="687" y="729" type="line"/>
      <point x="466" y="729" type="line"/>
      <point x="466" y="475" type="line"/>
      <point x="458" y="475" type="line"/>
      <point x="424" y="526"/>
      <point x="355" y="554"/>
      <point x="277" y="554" type="curve" smooth="yes"/>
      <point x="118" y="554"/>
      <point x="12" y="445"/>
      <point x="12" y="273" type="curve" smooth="yes"/>
      <point x="12" y="101"/>
      <point x="118" y="-8"/>
    </contour>
    <contour>
      <point x="347" y="157" type="curve" smooth="yes"/>
      <point x="279" y="157"/>
      <point x="234" y="198"/>
      <point x="234" y="273" type="curve" smooth="yes"/>
      <point x="234" y="348"/>
      <point x="279" y="388"/>
      <point x="347" y="388" type="curve" smooth="yes"/>
      <point x="422" y="388"/>
      <point x="465" y="343"/>
      <point x="465" y="279" type="curve" smooth="yes"/>
      <point x="465" y="267" type="line" smooth="yes"/>
      <point x="465" y="203"/>
      <point x="421" y="157"/>
    </contour>
  </outline>
</glyph>
<glyph name="e" format="2">
  <advance width="693"/>
  <unicode hex="0065"/>
  <anchor x="343" y="0" name="bottom"/>
  <anchor x="498" y="0" name="ogonek"/>
  <anchor x="343" y="544" name="top"/>
  <outline>
    <contour>
      <point x="344" y="-10" type="curve" smooth="yes"/>
      <point x="521" y="-10"/>
      <point x="652" y="58"/>
      <point x="674" y="180" type="curve"/>
      <point x="456" y="180" type="line"/>
      <point x="445" y="158"/>
      <point x="404" y="142"/>
      <point x="357" y="142" type="curve" smooth="yes"/>
      <point x="290" y="142"/>
      <point x="244" y="167"/>
      <point x="243" y="219" type="curve"/>
      <point x="678" y="219" type="line"/>
      <point x="701" y="419"/>
      <point x="584" y="553"/>
      <point x="348" y="553" type="curve" smooth="yes"/>
      <point x="145" y="553"/>
      <point x="10" y="450"/>
      <point x="10" y="268" type="curve" smooth="yes"/>
      <point x="10" y="102"/>
      <point x="132" y="-10"/>
    </contour>
    <contour>
      <point x="236" y="324" type="line"/>
      <point x="239" y="378"/>
      <point x="279" y="409"/>
      <point x="348" y="409" type="curve" smooth="yes"/>
      <point x="420" y="409"/>
      <point x="455" y="379"/>
      <point x="457" y="325" type="curve"/>
      <point x="465" y="334" type="line"/>
      <point x="230" y="334" type="line"/>
    </contour>
  </outline>
</glyph>
<glyph name="f" format="2">
  <advance width="432"/>
  <unicode hex="0066"/>
  <anchor x="222" y="0" name="bottom"/>
  <anchor x="222" y="729" name="top"/>
  <outline>
    <contour>
      <point x="93" y="0" type="line"/>
      <point x="314" y="0" type="line"/>
      <point x="314" y="379" type="line"/>
      <point x="428" y="379" type="line"/>
      <point x="428" y="544" type="line"/>
      <point x="314" y="544" type="line"/>
      <point x="314" y="558" type="line" smooth="yes"/>
      <point x="314" y="579"/>
      <point x="326" y="589"/>
      <point x="354" y="589" type="curve" smooth="yes"/>
      <point x="440" y="589" type="line"/>
      <point x="440" y="729" type="line"/>
      <point x="274" y="729" type="line" smooth="yes"/>
      <point x="157" y="729"/>
      <point x="93" y="675"/>
      <point x="93" y="576" type="curve" smooth="yes"/>
      <point x="93" y="544" type="line"/>
      <point x="4" y="544" type="line"/>
      <point x="4" y="379" type="line"/>
      <point x="93" y="379" type="line"/>
    </contour>
  </outline>
</glyph>
<glyph name="g" format="2">
  <advance width="701"/>
  <unicode hex="0067"/>
  <anchor x="346" y="-167" name="bottom"/>
  <anchor x="346" y="544" name="top"/>
  <outline>
    <contour>
      <point x="324" y="-177" type="curve" smooth="yes"/>
      <point x="552" y="-177"/>
      <point x="659" y="-86"/>
      <point x="659" y="75" type="curve" smooth="yes"/>
      <point x="659" y="544" type="line"/>
      <point x="452" y="544" type="line"/>
      <point x="442" y="478" type="line"/>
      <point x="433" y="478" type="line"/>
      <point x="404" y="526"/>
      <point x="335" y="554"/>
      <point x="258" y="554" type="curve" smooth="yes"/>
      <point x="110" y="554"/>
      <point x="11" y="451"/>
      <point x="11" y="295" type="curve" smooth="yes"/>
      <point x="11" y="139"/>
      <point x="110" y="37"/>
      <point x="256" y="37" type="curve" smooth="yes"/>
      <point x="328" y="37"/>
      <point x="399" y="62"/>
      <point x="431" y="116" type="curve"/>
      <point x="439" y="116" type="line"/>
      <point x="439" y="45" type="line" smooth="yes"/>
      <point x="439" y="-14"/>
      <point x="394" y="-35"/>
      <point x="327" y="-35" type="curve" smooth="yes"/>
      <point x="274" y="-35"/>
      <point x="245" y="-22"/>
      <point x="238" y="1" type="curve"/>
      <point x="28" y="1" type="line"/>
      <point x="38" y="-106"/>
      <point x="134" y="-177"/>
    </contour>
    <contour>
      <point x="337" y="196" type="curve" smooth="yes"/>
      <point x="274" y="196"/>
      <point x="233" y="234"/>
      <point x="233" y="296" type="curve" smooth="yes"/>
      <point x="233" y="359"/>
      <point x="274" y="398"/>
      <point x="338" y="398" type="curve" smooth="yes"/>
      <point x="400" y="398"/>
      <point x="439" y="359"/>
      <point x="439" y="304" type="curve" smooth="yes"/>
      <point x="439" y="291" type="line" smooth="yes"/>
      <point x="439" y="235"/>
      <point x="400" y="196"/>
    </contour>
  </outline>
</glyph>
<glyph name="h" format="2">
  <advance width="722"/>
  <unicode hex="0068"/>
  <anchor x="367" y="0" name="bottom"/>
  <anchor x="184" y="631" name="center"/>
  <anchor x="154" y="729" name="top"/>
  <outline>
    <contour>
      <point x="43" y="0" type="line"/>
      <point x="264" y="0" type="line"/>
      <point x="264" y="271" type="line" smooth="yes"/>
      <point x="264" y="338"/>
      <point x="305" y="388"/>
      <point x="376" y="388" type="curve" smooth="yes"/>
      <point x="452" y="388"/>
      <point x="470" y="336"/>
      <point x="470" y="260" type="curve" smooth="yes"/>
      <point x="470" y="0" type="line"/>
      <point x="691" y="0" type="line"/>
      <point x="691" y="299" type="line" smooth="yes"/>
      <point x="691" y="491"/>
      <point x="596" y="554"/>
      <point x="456" y="554" type="curve" smooth="yes"/>
      <point x="379" y="554"/>
      <point x="305" y="518"/>
      <point x="274" y="464" type="curve"/>
      <point x="264" y="464" type="line"/>
      <point x="264" y="729" type="line"/>
      <point x="43" y="729" type="line"/>
    </contour>
  </outline>
</glyph>
<glyph name="k" format="2">
  <advance width="732"/>
  <unicode hex="006B"/>
  <anchor x="371" y="0" name="bottom"/>
  <anchor x="371" y="729" name="top"/>
  <outline>
    <contour>
      <point x="43" y="0" type="line"/>
      <point x="264" y="0" type="line"/>
      <point x="264" y="142" type="line"/>
      <point x="324" y="196" type="line"/>
      <point x="355" y="150" type="line"/>
      <point x="467" y="0" type="line"/>
      <point x="741" y="0" type="line"/>
      <point x="484" y="326" type="line"/>
      <point x="737" y="544" type="line"/>
      <point x="462" y="544" type="line"/>
      <point x="329" y="423" type="line"/>
      <point x="264" y="360" type="line"/>
      <point x="264" y="729" type="line"/>
      <point x="43" y="729" type="line"/>
    </contour>
  </outline>
</glyph>
<glyph name="l" format="2">
  <advance width="307"/>
  <unicode hex="006C"/>
  <anchor x="154" y="0" name="bottom"/>
  <anchor x="154" y="365" name="center"/>
  <anchor x="154" y="729" name="top"/>
  <anchor x="264" y="729" name="topright"/>
  <outline>
    <contour>
      <point x="43" y="0" type="line"/>
      <point x="264" y="0" type="line"/>
      <point x="264" y="729" type="line"/>
      <point x="43" y="729" type="line"/>
    </contour>
  </outline>
</glyph>
<glyph name="m" format="2">
  <advance width="1114"/>
  <unicode hex="006D"/>
  <anchor x="563" y="0" name="bottom"/>
  <anchor x="563" y="544" name="top"/>
  <outline>
    <contour>
      <point x="43" y="0" type="line"/>
      <point x="264" y="0" type="line"/>
      <point x="264" y="280" type="line" smooth="yes"/>
      <point x="264" y="342"/>
      <point x="300" y="389"/>
      <point x="366" y="389" type="curve" smooth="yes"/>
      <point x="438" y="389"/>
      <point x="453" y="338"/>
      <point x="453" y="271" type="curve" smooth="yes"/>
      <point x="453" y="0" type="line"/>
      <point x="673" y="0" type="line"/>
      <point x="673" y="280" type="line" smooth="yes"/>
      <point x="673" y="343"/>
      <point x="710" y="389"/>
      <point x="776" y="389" type="curve" smooth="yes"/>
      <point x="845" y="389"/>
      <point x="862" y="339"/>
      <point x="862" y="269" type="curve" smooth="yes"/>
      <point x="862" y="0" type="line"/>
      <point x="1083" y="0" type="line"/>
      <point x="1083" y="297" type="line" smooth="yes"/>
      <point x="1083" y="474"/>
      <point x="998" y="554"/>
      <point x="858" y="554" type="curve" smooth="yes"/>
      <point x="768" y="554"/>
      <point x="698" y="525"/>
      <point x="654" y="445" type="curve"/>
      <point x="644" y="445" type="line"/>
      <point x="611" y="519"/>
      <point x="543" y="554"/>
      <point x="455" y="554" type="curve" smooth="yes"/>
      <point x="372" y="554"/>
      <point x="308" y="522"/>
      <point x="274" y="464" type="curve"/>
      <point x="264" y="464" type="line"/>
      <point x="254" y="544" type="line"/>
      <point x="43" y="544" type="line"/>
    </contour>
  </outline>
</glyph>
<glyph name="o" format="2">
  <advance width="694"/>
  <unicode hex="006F"/>
  <anchor x="347" y="0" name="bottom"/>
  <anchor x="347" y="272" name="center"/>
  <anchor x="634" y="10" name="ogonek"/>
  <anchor x="347" y="544" name="top"/>
  <anchor x="440" y="524" name="topright"/>
  <outline>
    <contour>
      <point x="347" y="-10" type="curve" smooth="yes"/>
      <point x="552" y="-10"/>
      <point x="684" y="93"/>
      <point x="684" y="272" type="curve" smooth="yes"/>
      <point x="684" y="454"/>
      <point x="550" y="554"/>
      <point x="347" y="554" type="curve" smooth="yes"/>
      <point x="143" y="554"/>
      <point x="10" y="452"/>
      <point x="10" y="272" type="curve" smooth="yes"/>
      <point x="10" y="91"/>
      <point x="144" y="-10"/>
    </contour>
    <contour>
      <point x="347" y="157" type="curve" smooth="yes"/>
      <point x="270" y="157"/>
      <point x="231" y="201"/>
      <point x="231" y="272" type="curve" smooth="yes"/>
      <point x="231" y="343"/>
      <point x="270" y="388"/>
      <point x="347" y="388" type="curve" smooth="yes"/>
      <point x="424" y="388"/>
      <point x="464" y="344"/>
      <point x="464" y="272" type="curve" smooth="yes"/>
      <point x="464" y="201"/>
      <point x="424" y="157"/>
    </contour>
  </outline>
</glyph>
<glyph name="q" format="2">
  <advance width="730"/>
  <unicode hex="0071"/>
  <anchor x="360" y="0" name="bottom"/>
  <anchor x="360" y="544" name="top"/>
  <outline>
    <contour>
      <point x="466" y="-167" type="line"/>
      <point x="687" y="-167" type="line"/>
      <point x="687" y="544" type="line"/>
      <point x="477" y="544" type="line"/>
      <point x="471" y="473" type="line"/>
      <point x="463" y="473" type="line"/>
      <point x="432" y="520"/>
      <point x="372" y="552"/>
      <point x="276" y="552" type="curve" smooth="yes"/>
      <point x="118" y="552"/>
      <point x="12" y="443"/>
      <point x="12" y="272" type="curve" smooth="yes"/>
      <point x="12" y="100"/>
      <point x="118" y="-10"/>
      <point x="276" y="-10" type="curve" smooth="yes"/>
      <point x="352" y="-10"/>
      <point x="422" y="17"/>
      <point x="458" y="69" type="curve"/>
      <point x="466" y="69" type="line"/>
    </contour>
    <contour>
      <point x="347" y="155" type="curve" smooth="yes"/>
      <point x="279" y="155"/>
      <point x="234" y="195"/>
      <point x="234" y="272" type="curve" smooth="yes"/>
      <point x="234" y="346"/>
      <point x="279" y="387"/>
      <point x="347" y="387" type="curve" smooth="yes"/>
      <point x="421" y="387"/>
      <point x="465" y="342"/>
      <point x="465" y="276" type="curve" smooth="yes"/>
      <point x="465" y="265" type="line" smooth="yes"/>
      <point x="465" y="200"/>
      <point x="421" y="155"/>
    </contour>
  </outline>
</glyph>
<glyph name="r" format="2">
  <advance width="447"/>
  <unicode hex="0072"/>
  <anchor x="154" y="0" name="bottom"/>
  <anchor x="231" y="544" name="top"/>
  <outline>
    <contour>
      <point x="43" y="0" type="line"/>
      <point x="264" y="0" type="line"/>
      <point x="264" y="222" type="line" smooth="yes"/>
      <point x="264" y="322"/>
      <point x="307" y="357"/>
      <point x="392" y="357" type="curve" smooth="yes"/>
      <point x="406" y="357"/>
      <point x="424" y="355"/>
      <point x="440" y="353" type="curve"/>
      <point x="440" y="551" type="line"/>
      <point x="427" y="552"/>
      <point x="414" y="552"/>
      <point x="398" y="552" type="curve" smooth="yes"/>
      <point x="330" y="552"/>
      <point x="281" y="518"/>
      <point x="259" y="466" type="curve"/>
      <point x="251" y="466" type="line"/>
      <point x="244" y="544" type="line"/>
      <point x="43" y="544" type="line"/>
    </contour>
  </outline>
</glyph>
<glyph name="s" format="2">
  <advance width="628"/>
  <unicode hex="0073"/>
  <anchor x="313" y="0" name="bottom"/>
  <anchor x="313" y="544" name="top"/>
  <outline>
    <contour>
      <point x="313" y="-10" type="curve" smooth="yes"/>
      <point x="522" y="-10"/>
      <point x="619" y="62"/>
      <point x="619" y="172" type="curve" smooth="yes"/>
      <point x="619" y="292"/>
      <point x="552" y="330"/>
      <point x="349" y="347" type="curve" smooth="yes"/>
      <point x="267" y="354"/>
      <point x="238" y="358"/>
      <point x="238" y="387" type="curve" smooth="yes"/>
      <point x="238" y="414"/>
      <point x="268" y="425"/>
      <point x="316" y="425" type="curve" smooth="yes"/>
      <point x="359" y="425"/>
      <point x="387" y="409"/>
      <point x="393" y="377" type="curve"/>
      <point x="601" y="377" type="line"/>
      <point x="588" y="493"/>
      <point x="477" y="554"/>
      <point x="317" y="554" type="curve" smooth="yes"/>
      <point x="128" y="554"/>
      <point x="24" y="479"/>
      <point x="24" y="368" type="curve" smooth="yes"/>
      <point x="24" y="256"/>
      <point x="97" y="218"/>
      <point x="301" y="199" type="curve" smooth="yes"/>
      <point x="380" y="193"/>
      <point x="402" y="189"/>
      <point x="402" y="158" type="curve" smooth="yes"/>
      <point x="402" y="133"/>
      <point x="375" y="119"/>
      <point x="320" y="119" type="curve" smooth="yes"/>
      <point x="257" y="119"/>
      <point x="228" y="136"/>
      <point x="222" y="174" type="curve"/>
      <point x="6" y="174" type="line"/>
      <point x="16" y="60"/>
      <point x="117" y="-10"/>
    </contour>
  </outline>
</glyph>
<glyph name="t" format="2">
  <advance width="471"/>
  <unicode hex="0074"/>
  <anchor x="287" y="0" name="bottom"/>
  <anchor x="224" y="284" name="center"/>
  <anchor x="225" y="544" name="top"/>
  <anchor x="313" y="754" name="topright"/>
  <outline>
    <contour>
      <point x="251" y="0" type="curve" smooth="yes"/>
      <point x="443" y="0" type="line"/>
      <point x="443" y="186" type="line"/>
      <point x="353" y="186" type="line" smooth="yes"/>
      <point x="330" y="186"/>
      <point x="314" y="193"/>
      <point x="314" y="221" type="curve" smooth="yes"/>
      <point x="314" y="379" type="line"/>
      <point x="443" y="379" type="line"/>
      <point x="443" y="544" type="line"/>
      <point x="314" y="544" type="line"/>
      <point x="314" y="710" type="line"/>
      <point x="97" y="669" type="line"/>
      <point x="97" y="544" type="line"/>
      <point x="4" y="544" type="line"/>
      <point x="4" y="379" type="line"/>
      <point x="97" y="379" type="line"/>
      <point x="97" y="155" type="line" smooth="yes"/>
      <point x="97" y="55"/>
      <point x="150" y="0"/>
    </contour>
  </outline>
</glyph>
<glyph name="u" format="2">
  <advance width="723"/>
  <unicode hex="0075"/>
  <anchor x="359" y="0" name="bottom"/>
  <anchor x="680" y="0" name="ogonek"/>
  <anchor x="356" y="544" name="top"/>
  <anchor x="494" y="544" name="topright"/>
  <outline>
    <contour>
      <point x="267" y="-10" type="curve" smooth="yes"/>
      <point x="346" y="-10"/>
      <point x="419" y="26"/>
      <point x="450" y="79" type="curve"/>
      <point x="459" y="79" type="line"/>
      <point x="468" y="0" type="line"/>
      <point x="680" y="0" type="line"/>
      <point x="680" y="544" type="line"/>
      <point x="459" y="544" type="line"/>
      <point x="459" y="273" type="line" smooth="yes"/>
      <point x="459" y="204"/>
      <point x="417" y="155"/>
      <point x="346" y="155" type="curve" smooth="yes"/>
      <point x="271" y="155"/>
      <point x="253" y="209"/>
      <point x="253" y="284" type="curve" smooth="yes"/>
      <point x="253" y="544" type="line"/>
      <point x="32" y="544" type="line"/>
      <point x="32" y="244" type="line" smooth="yes"/>
      <point x="32" y="55"/>
      <point x="124" y="-10"/>
    </contour>
  </outline>
</glyph>
<glyph name="v" format="2">
  <advance width="689"/>
  <unicode hex="0076"/>
  <anchor x="346" y="0" name="bottom"/>
  <anchor x="346" y="544" name="top"/>
  <outline>
    <contour>
      <point x="212" y="0" type="line"/>
      <point x="477" y="0" type="line"/>
      <point x="698" y="544" type="line"/>
      <point x="473" y="544" type="line"/>
      <point x="395" y="315" type="line"/>
      <point x="349" y="163" type="line"/>
      <point x="340" y="163" type="line"/>
      <point x="294" y="315" type="line"/>
      <point x="216" y="544" type="line"/>
      <point x="-9" y="544" type="line"/>
    </contour>
  </outline>
</glyph>
<glyph name="w" format="2">
  <advance width="932"/>
  <unicode hex="0077"/>
  <anchor x="467" y="0" name="bottom"/>
  <anchor x="467" y="544" name="top"/>
  <outline>
    <contour>
      <point x="144" y="0" type="line"/>
      <point x="395" y="0" type="line"/>
      <point x="432" y="173" type="line"/>
      <point x="459" y="317" type="line"/>
      <point x="465" y="317" type="line"/>
      <point x="493" y="173" type="line"/>
      <point x="530" y="0" type="line"/>
      <point x="785" y="0" type="line"/>
      <point x="937" y="544" type="line"/>
      <point x="738" y="544" type="line"/>
      <point x="685" y="306" type="line"/>
      <point x="657" y="171" type="line"/>
      <point x="652" y="171" type="line"/>
      <point x="628" y="306" type="line"/>
      <point x="581" y="544" type="line"/>
      <point x="363" y="544" type="line"/>
      <point x="314" y="306" type="line"/>
      <point x="289" y="175" type="line"/>
      <point x="281" y="175" type="line"/>
      <point x="255" y="306" type="line"/>
      <point x="203" y="544" type="line"/>
      <point x="-5" y="544" type="line"/>
    </contour>
  </outline>
</glyph>
<glyph name="x" format="2">
  <advance width="709"/>
  <unicode hex="0078"/>
  <anchor x="354" y="0" name="bottom"/>
  <anchor x="354" y="544" name="top"/>
  <outline>
    <contour>
      <point x="-10" y="0" type="line"/>
      <point x="239" y="0" type="line"/>
      <point x="332" y="135" type="line"/>
      <point x="347" y="158" type="line"/>
      <point x="353" y="158" type="line"/>
      <point x="368" y="135" type="line"/>
      <point x="461" y="0" type="line"/>
      <point x="718" y="0" type="line"/>
      <point x="503" y="287" type="line"/>
      <point x="706" y="544" type="line"/>
      <point x="456" y="544" type="line"/>
      <point x="372" y="413" type="line"/>
      <point x="359" y="392" type="line"/>
      <point x="353" y="392" type="line"/>
      <point x="340" y="413" type="line"/>
      <point x="258" y="544" type="line"/>
      <point x="1" y="544" type="line"/>
      <point x="213" y="281" type="line"/>
    </contour>
  </outline>
</glyph>
<glyph name="y" format="2">
  <advance width="673"/>
  <unicode hex="0079"/>
  <anchor x="557" y="0" name="bottom"/>
  <anchor x="337" y="544" name="top"/>
  <outline>
    <contour>
      <point x="57" y="-167" type="line"/>
      <point x="160" y="-167" type="line" smooth="yes"/>
      <point x="291" y="-167"/>
      <point x="370" y="-131"/>
      <point x="423" y="-17" type="curve" smooth="yes"/>
      <point x="683" y="544" type="line"/>
      <point x="454" y="544" type="line"/>
      <point x="374" y="324" type="line"/>
      <point x="347" y="238" type="line"/>
      <point x="338" y="238" type="line"/>
      <point x="310" y="324" type="line"/>
      <point x="227" y="544" type="line"/>
      <point x="-10" y="544" type="line"/>
      <point x="240" y="36" type="line"/>
      <point x="240" y="59" type="line"/>
      <point x="233" y="45" type="line" smooth="yes"/>
      <point x="220" y="19"/>
      <point x="197" y="5"/>
      <point x="133" y="5" type="curve" smooth="yes"/>
      <point x="57" y="5" type="line"/>
    </contour>
  </outline>
</glyph>
<glyph name="z" format="2">
  <advance width="602"/>
  <unicode hex="007A"/>
  <anchor x="300" y="0" name="bottom"/>
  <anchor x="300" y="272" name="center"/>
  <anchor x="300" y="544" name="top"/>
  <outline>
    <contour>
      <point x="16" y="0" type="line"/>
      <point x="583" y="0" type="line"/>
      <point x="583" y="165" type="line"/>
      <point x="312" y="165" type="line"/>
      <point x="572" y="404" type="line"/>
      <point x="572" y="544" type="line"/>
      <point x="34" y="544" type="line"/>
      <point x="34" y="379" type="line"/>
      <point x="274" y="379" type="line"/>
      <point x="16" y="145" type="line"/>
    </contour>
  </outline>
</glyph>
<glyph name="braceleft" format="2">
  <advance width="451"/>
  <unicode hex="007B"/>
  <outline>
    <contour>
      <point x="242" y="-167" type="curve" smooth="yes"/>
      <point x="437" y="-167" type="line"/>
      <point x="437" y="-13" type="line"/>
      <point x="297" y="-13" type="line"/>
      <point x="297" y="167" type="line" smooth="yes"/>
      <point x="297" y="230"/>
      <point x="278" y="281"/>
      <point x="207" y="309" type="curve"/>
      <point x="207" y="312" type="line"/>
      <point x="261" y="325"/>
      <point x="297" y="360"/>
      <point x="297" y="448" type="curve" smooth="yes"/>
      <point x="297" y="638" type="line"/>
      <point x="437" y="638" type="line"/>
      <point x="437" y="793" type="line"/>
      <point x="242" y="793" type="line" smooth="yes"/>
      <point x="149" y="793"/>
      <point x="106" y="734"/>
      <point x="106" y="659" type="curve" smooth="yes"/>
      <point x="106" y="465" type="line" smooth="yes"/>
      <point x="106" y="418"/>
      <point x="83" y="387"/>
      <point x="43" y="387" type="curve" smooth="yes"/>
      <point x="5" y="387" type="line"/>
      <point x="5" y="221" type="line"/>
      <point x="43" y="221" type="line" smooth="yes"/>
      <point x="81" y="221"/>
      <point x="106" y="193"/>
      <point x="106" y="145" type="curve" smooth="yes"/>
      <point x="106" y="-33" type="line" smooth="yes"/>
      <point x="106" y="-108"/>
      <point x="149" y="-167"/>
    </contour>
  </outline>
</glyph>
<glyph name="asciitilde" format="2">
  <advance width="720"/>
  <unicode hex="007E"/>
  <outline>
    <contour>
      <point x="103" y="263" type="curve"/>
      <point x="205" y="263" type="line"/>
      <point x="202" y="284"/>
      <point x="217" y="321"/>
      <point x="258" y="321" type="curve" smooth="yes"/>
      <point x="316" y="321"/>
      <point x="358" y="251"/>
      <point x="467" y="251" type="curve" smooth="yes"/>
      <point x="538" y="251"/>
      <point x="630" y="299"/>
      <point x="619" y="473" type="curve"/>
      <point x="517" y="473" type="line"/>
      <point x="516" y="446"/>
      <point x="498" y="415"/>
      <point x="453" y="415" type="curve" smooth="yes"/>
      <point x="381" y="415"/>
      <point x="343" y="480"/>
      <point x="251" y="480" type="curve" smooth="yes"/>
      <point x="164" y="480"/>
      <point x="92" y="413"/>
    </contour>
  </outline>
</glyph>
<glyph name="cent" format="2">
  <advance width="686"/>
  <unicode hex="00A2"/>
  <outline>
    <contour>
      <point x="343" y="83" type="curve" smooth="yes"/>
      <point x="521" y="83"/>
      <point x="666" y="166"/>
      <point x="671" y="305" type="curve"/>
      <point x="451" y="305" type="line"/>
      <point x="440" y="267"/>
      <point x="399" y="249"/>
      <point x="352" y="249" type="curve" smooth="yes"/>
      <point x="283" y="249"/>
      <point x="237" y="286"/>
      <point x="237" y="367" type="curve" smooth="yes"/>
      <point x="237" y="435"/>
      <point x="276" y="481"/>
      <point x="352" y="481" type="curve" smooth="yes"/>
      <point x="407" y="481"/>
      <point x="443" y="458"/>
      <point x="451" y="425" type="curve"/>
      <point x="669" y="425" type="line"/>
      <point x="665" y="557"/>
      <point x="545" y="647"/>
      <point x="353" y="647" type="curve" smooth="yes"/>
      <point x="150" y="647"/>
      <point x="16" y="546"/>
      <point x="16" y="368" type="curve" smooth="yes"/>
      <point x="16" y="196"/>
      <point x="139" y="83"/>
    </contour>
    <contour>
      <point x="274" y="0" type="line"/>
      <point x="414" y="0" type="line"/>
      <point x="414" y="166" type="line"/>
      <point x="274" y="166" type="line"/>
    </contour>
    <contour>
      <point x="274" y="548" type="line"/>
      <point x="414" y="548" type="line"/>
      <point x="414" y="729" type="line"/>
      <point x="274" y="729" type="line"/>
    </contour>
  </outline>
</glyph>
<glyph name="sterling" format="2">
  <advance width="761"/>
  <unicode hex="00A3"/>
  <outline>
    <contour>
      <point x="92" y="153" type="curve"/>
      <point x="228" y="132" type="line"/>
      <point x="354" y="183"/>
      <point x="382" y="241"/>
      <point x="382" y="301" type="curve" smooth="yes"/>
      <point x="382" y="381"/>
      <point x="338" y="438"/>
      <point x="338" y="492" type="curve" smooth="yes"/>
      <point x="338" y="543"/>
      <point x="377" y="567"/>
      <point x="426" y="567" type="curve" smooth="yes"/>
      <point x="479" y="567"/>
      <point x="509" y="540"/>
      <point x="508" y="491" type="curve"/>
      <point x="736" y="491" type="line"/>
      <point x="739" y="640"/>
      <point x="623" y="739"/>
      <point x="425" y="739" type="curve" smooth="yes"/>
      <point x="237" y="739"/>
      <point x="109" y="648"/>
      <point x="109" y="506" type="curve" smooth="yes"/>
      <point x="109" y="422"/>
      <point x="161" y="369"/>
      <point x="161" y="292" type="curve" smooth="yes"/>
      <point x="161" y="250"/>
      <point x="144" y="213"/>
    </contour>
    <contour>
      <point x="22" y="0" type="line"/>
      <point x="728" y="0" type="line"/>
      <point x="728" y="229" type="line"/>
      <point x="530" y="229" type="line"/>
      <point x="530" y="155" type="line"/>
      <point x="22" y="155" type="line"/>
    </contour>
    <contour>
      <point x="37" y="281" type="line"/>
      <point x="555" y="281" type="line"/>
      <point x="555" y="423" type="line"/>
      <point x="37" y="423" type="line"/>
    </contour>
  </outline>
</glyph>
<glyph name="currency" format="2">
  <advance width="642"/>
  <unicode hex="00A4"/>
  <outline>
    <contour>
      <point x="124" y="50" type="line"/>
      <point x="229" y="154" type="line"/>
      <point x="258" y="146"/>
      <point x="288" y="142"/>
      <point x="320" y="142" type="curve" smooth="yes"/>
      <point x="349" y="142"/>
      <point x="384" y="146"/>
      <point x="413" y="153" type="curve"/>
      <point x="519" y="50" type="line"/>
      <point x="636" y="169" type="line"/>
      <point x="539" y="264" type="line"/>
      <point x="552" y="293"/>
      <point x="559" y="326"/>
      <point x="559" y="359" type="curve" smooth="yes"/>
      <point x="559" y="391"/>
      <point x="553" y="425"/>
      <point x="537" y="456" type="curve"/>
      <point x="635" y="551" type="line"/>
      <point x="517" y="669" type="line"/>
      <point x="410" y="564" type="line"/>
      <point x="382" y="572"/>
      <point x="347" y="576"/>
      <point x="320" y="576" type="curve" smooth="yes"/>
      <point x="295" y="576"/>
      <point x="262" y="573"/>
      <point x="231" y="564" type="curve"/>
      <point x="125" y="669" type="line"/>
      <point x="7" y="551" type="line"/>
      <point x="105" y="456" type="line"/>
      <point x="91" y="428"/>
      <point x="84" y="395"/>
      <point x="84" y="359" type="curve" smooth="yes"/>
      <point x="84" y="330"/>
      <point x="88" y="297"/>
      <point x="104" y="264" type="curve"/>
      <point x="6" y="169" type="line"/>
    </contour>
    <contour>
      <point x="320" y="303" type="curve" smooth="yes"/>
      <point x="284" y="303"/>
      <point x="260" y="323"/>
      <point x="260" y="358" type="curve" smooth="yes"/>
      <point x="260" y="392"/>
      <point x="282" y="415"/>
      <point x="320" y="415" type="curve" smooth="yes"/>
      <point x="357" y="415"/>
      <point x="381" y="394"/>
      <point x="381" y="358" type="curve" smooth="yes"/>
      <point x="381" y="325"/>
      <point x="358" y="303"/>
    </contour>
  </outline>
</glyph>
<glyph name="yen" format="2">
  <advance width="810"/>
  <unicode hex="00A5"/>
  <outline>
    <contour>
      <point x="290" y="0" type="line"/>
      <point x="519" y="0" type="line"/>
      <point x="519" y="83" type="line"/>
      <point x="697" y="83" type="line"/>
      <point x="697" y="214" type="line"/>
      <point x="519" y="214" type="line"/>
      <point x="519" y="276" type="line"/>
      <point x="697" y="276" type="line"/>
      <point x="697" y="408" type="line"/>
      <point x="609" y="408" type="line"/>
      <point x="810" y="729" type="line"/>
      <point x="556" y="729" type="line"/>
      <point x="408" y="449" type="line"/>
      <point x="399" y="449" type="line"/>
      <point x="256" y="729" type="line"/>
      <point x="0" y="729" type="line"/>
      <point x="200" y="408" type="line"/>
      <point x="113" y="408" type="line"/>
      <point x="113" y="276" type="line"/>
      <point x="290" y="276" type="line"/>
      <point x="290" y="214" type="line"/>
      <point x="113" y="214" type="line"/>
      <point x="113" y="83" type="line"/>
      <point x="290" y="83" type="line"/>
    </contour>
  </outline>
</glyph>
<glyph name="section" format="2">
  <advance width="553"/>
  <unicode hex="00A7"/>
  <outline>
    <contour>
      <point x="264" y="-10" type="curve" smooth="yes"/>
      <point x="416" y="-10"/>
      <point x="517" y="56"/>
      <point x="517" y="165" type="curve" smooth="yes"/>
      <point x="517" y="207"/>
      <point x="501" y="244"/>
      <point x="469" y="276" type="curve"/>
      <point x="503" y="297"/>
      <point x="526" y="333"/>
      <point x="526" y="373" type="curve" smooth="yes"/>
      <point x="526" y="465"/>
      <point x="470" y="503"/>
      <point x="339" y="529" type="curve" smooth="yes"/>
      <point x="272" y="542"/>
      <point x="238" y="550"/>
      <point x="238" y="576" type="curve" smooth="yes"/>
      <point x="238" y="599"/>
      <point x="257" y="607"/>
      <point x="285" y="607" type="curve" smooth="yes"/>
      <point x="317" y="607"/>
      <point x="336" y="594"/>
      <point x="337" y="568" type="curve"/>
      <point x="525" y="568" type="line"/>
      <point x="515" y="670"/>
      <point x="426" y="739"/>
      <point x="291" y="739" type="curve" smooth="yes"/>
      <point x="145" y="739"/>
      <point x="47" y="670"/>
      <point x="47" y="565" type="curve" smooth="yes"/>
      <point x="47" y="521"/>
      <point x="61" y="485"/>
      <point x="99" y="457" type="curve"/>
      <point x="59" y="429"/>
      <point x="38" y="392"/>
      <point x="38" y="348" type="curve" smooth="yes"/>
      <point x="38" y="254"/>
      <point x="114" y="225"/>
      <point x="219" y="202" type="curve" smooth="yes"/>
      <point x="304" y="184"/>
      <point x="323" y="177"/>
      <point x="323" y="152" type="curve" smooth="yes"/>
      <point x="323" y="131"/>
      <point x="306" y="122"/>
      <point x="269" y="122" type="curve" smooth="yes"/>
      <point x="232" y="122"/>
      <point x="206" y="136"/>
      <point x="203" y="171" type="curve"/>
      <point x="15" y="171" type="line"/>
      <point x="17" y="63"/>
      <point x="113" y="-10"/>
    </contour>
    <contour>
      <point x="329" y="330" type="curve"/>
      <point x="319" y="334"/>
      <point x="294" y="341"/>
      <point x="263" y="348" type="curve" smooth="yes"/>
      <point x="228" y="357"/>
      <point x="216" y="367"/>
      <point x="216" y="385" type="curve" smooth="yes"/>
      <point x="216" y="391"/>
      <point x="218" y="399"/>
      <point x="222" y="407" type="curve"/>
      <point x="241" y="401"/>
      <point x="258" y="396"/>
      <point x="278" y="391" type="curve" smooth="yes"/>
      <point x="315" y="382"/>
      <point x="334" y="373"/>
      <point x="334" y="350" type="curve" smooth="yes"/>
      <point x="334" y="342"/>
      <point x="333" y="336"/>
    </contour>
  </outline>
</glyph>
<glyph name="ordfeminine" format="2">
  <advance width="502"/>
  <unicode hex="00AA"/>
  <outline>
    <contour>
      <point x="189" y="370" type="curve" smooth="yes"/>
      <point x="239" y="370"/>
      <point x="284" y="389"/>
      <point x="306" y="421" type="curve"/>
      <point x="311" y="421" type="line"/>
      <point x="311" y="377" type="line"/>
      <point x="459" y="377" type="line"/>
      <point x="459" y="731" type="line"/>
      <point x="318" y="731" type="line"/>
      <point x="314" y="686" type="line"/>
      <point x="309" y="686" type="line"/>
      <point x="289" y="716"/>
      <point x="251" y="736"/>
      <point x="189" y="736" type="curve" smooth="yes"/>
      <point x="86" y="736"/>
      <point x="17" y="666"/>
      <point x="17" y="553" type="curve" smooth="yes"/>
      <point x="17" y="442"/>
      <point x="86" y="370"/>
    </contour>
    <contour>
      <point x="236" y="481" type="curve" smooth="yes"/>
      <point x="194" y="481"/>
      <point x="165" y="505"/>
      <point x="165" y="553" type="curve" smooth="yes"/>
      <point x="165" y="601"/>
      <point x="194" y="626"/>
      <point x="236" y="626" type="curve" smooth="yes"/>
      <point x="282" y="626"/>
      <point x="310" y="598"/>
      <point x="310" y="557" type="curve" smooth="yes"/>
      <point x="310" y="550" type="line" smooth="yes"/>
      <point x="310" y="509"/>
      <point x="283" y="481"/>
    </contour>
  </outline>
</glyph>
<glyph name="guillemetleft" format="2">
  <advance width="598"/>
  <unicode hex="00AB"/>
  <outline>
    <contour>
      <point x="134" y="72" type="line"/>
      <point x="315" y="72" type="line"/>
      <point x="208" y="309" type="line"/>
      <point x="315" y="544" type="line"/>
      <point x="134" y="544" type="line"/>
      <point x="5" y="309" type="line"/>
    </contour>
    <contour>
      <point x="410" y="72" type="line"/>
      <point x="591" y="72" type="line"/>
      <point x="484" y="309" type="line"/>
      <point x="591" y="544" type="line"/>
      <point x="410" y="544" type="line"/>
      <point x="281" y="309" type="line"/>
    </contour>
  </outline>
</glyph>
<glyph name="logicalnot" format="2">
  <advance width="720"/>
  <unicode hex="00AC"/>
  <outline>
    <contour>
      <point x="417" y="115" type="line"/>
      <point x="594" y="115" type="line"/>
      <point x="594" y="447" type="line"/>
      <point x="103" y="447" type="line"/>
      <point x="103" y="273" type="line"/>
      <point x="417" y="273" type="line"/>
    </contour>
  </outline>
</glyph>
<glyph name="registered" format="2">
  <advance width="611"/>
  <unicode hex="00AE"/>
  <outline>
    <contour>
      <point x="305" y="206" type="curve" smooth="yes"/>
      <point x="464" y="206"/>
      <point x="589" y="315"/>
      <point x="589" y="473" type="curve" smooth="yes"/>
      <point x="589" y="632"/>
      <point x="463" y="738"/>
      <point x="305" y="738" type="curve" smooth="yes"/>
      <point x="147" y="738"/>
      <point x="22" y="632"/>
      <point x="22" y="473" type="curve" smooth="yes"/>
      <point x="22" y="314"/>
      <point x="147" y="206"/>
    </contour>
    <contour>
      <point x="305" y="258" type="curve" smooth="yes"/>
      <point x="181" y="258"/>
      <point x="78" y="343"/>
      <point x="78" y="471" type="curve" smooth="yes"/>
      <point x="78" y="600"/>
      <point x="182" y="686"/>
      <point x="306" y="686" type="curve" smooth="yes"/>
      <point x="433" y="686"/>
      <point x="534" y="599"/>
      <point x="534" y="472" type="curve" smooth="yes"/>
      <point x="534" y="344"/>
      <point x="432" y="258"/>
    </contour>
    <contour>
      <point x="176" y="334" type="line"/>
      <point x="270" y="334" type="line"/>
      <point x="270" y="540" type="line"/>
      <point x="325" y="540" type="line" smooth="yes"/>
      <point x="344" y="540"/>
      <point x="357" y="532"/>
      <point x="357" y="514" type="curve" smooth="yes"/>
      <point x="357" y="499"/>
      <point x="348" y="489"/>
      <point x="325" y="489" type="curve" smooth="yes"/>
      <point x="255" y="489" type="line"/>
      <point x="255" y="430" type="line"/>
      <point x="321" y="430" type="line" smooth="yes"/>
      <point x="347" y="430"/>
      <point x="355" y="419"/>
      <point x="355" y="401" type="curve" smooth="yes"/>
      <point x="355" y="365" type="line" smooth="yes"/>
      <point x="355" y="350"/>
      <point x="356" y="341"/>
      <point x="359" y="334" type="curve"/>
      <point x="454" y="334" type="line"/>
      <point x="449" y="344"/>
      <point x="449" y="356"/>
      <point x="449" y="367" type="curve" smooth="yes"/>
      <point x="449" y="412" type="line" smooth="yes"/>
      <point x="449" y="441"/>
      <point x="434" y="456"/>
      <point x="406" y="464" type="curve"/>
      <point x="406" y="466" type="line"/>
      <point x="434" y="475"/>
      <point x="456" y="498"/>
      <point x="456" y="528" type="curve" smooth="yes"/>
      <point x="456" y="577"/>
      <point x="427" y="610"/>
      <point x="335" y="610" type="curve" smooth="yes"/>
      <point x="176" y="610" type="line"/>
    </contour>
  </outline>
</glyph>
<glyph name="degree" format="2">
  <advance width="438"/>
  <unicode hex="00B0"/>
  <outline>
    <contour>
      <point x="219" y="386" type="curve" smooth="yes"/>
      <point x="330" y="386"/>
      <point x="411" y="457"/>
      <point x="411" y="563" type="curve" smooth="yes"/>
      <point x="411" y="669"/>
      <point x="330" y="739"/>
      <point x="219" y="739" type="curve" smooth="yes"/>
      <point x="108" y="739"/>
      <point x="27" y="669"/>
      <point x="27" y="563" type="curve" smooth="yes"/>
      <point x="27" y="457"/>
      <point x="108" y="386"/>
    </contour>
    <contour>
      <point x="219" y="506" type="curve" smooth="yes"/>
      <point x="187" y="506"/>
      <point x="161" y="527"/>
      <point x="161" y="563" type="curve" smooth="yes"/>
      <point x="161" y="599"/>
      <point x="187" y="619"/>
      <point x="219" y="619" type="curve" smooth="yes"/>
      <point x="251" y="619"/>
      <point x="277" y="599"/>
      <point x="277" y="563" type="curve" smooth="yes"/>
      <point x="277" y="527"/>
      <point x="251" y="506"/>
    </contour>
  </outline>
</glyph>
<glyph name="plusminus" format="2">
  <advance width="720"/>
  <unicode hex="00B1"/>
  <outline>
    <contour>
      <point x="269" y="207" type="line"/>
      <point x="447" y="207" type="line"/>
      <point x="447" y="329" type="line"/>
      <point x="617" y="329" type="line"/>
      <point x="617" y="495" type="line"/>
      <point x="447" y="495" type="line"/>
      <point x="447" y="616" type="line"/>
      <point x="269" y="616" type="line"/>
      <point x="269" y="495" type="line"/>
      <point x="103" y="495" type="line"/>
      <point x="103" y="329" type="line"/>
      <point x="269" y="329" type="line"/>
    </contour>
    <contour>
      <point x="103" y="0" type="line"/>
      <point x="617" y="0" type="line"/>
      <point x="617" y="143" type="line"/>
      <point x="103" y="143" type="line"/>
    </contour>
  </outline>
</glyph>
<glyph name="paragraph" format="2">
  <advance width="780"/>
  <unicode hex="00B6"/>
  <outline>
    <contour>
      <point x="235" y="0" type="line"/>
      <point x="389" y="0" type="line"/>
      <point x="389" y="542" type="line"/>
      <point x="460" y="542" type="line"/>
      <point x="460" y="0" type="line"/>
      <point x="674" y="0" type="line"/>
      <point x="674" y="542" type="line"/>
      <point x="767" y="542" type="line"/>
      <point x="767" y="729" type="line"/>
      <point x="275" y="729" type="line" smooth="yes"/>
      <point x="97" y="729"/>
      <point x="13" y="652"/>
      <point x="13" y="515" type="curve" smooth="yes"/>
      <point x="13" y="394"/>
      <point x="95" y="315"/>
      <point x="235" y="315" type="curve"/>
    </contour>
  </outline>
</glyph>
<glyph name="periodcentered" format="2">
  <advance width="221"/>
  <unicode hex="00B7"/>
  <outline>
    <contour>
      <point x="111" y="179" type="curve" smooth="yes"/>
      <point x="169" y="179"/>
      <point x="209" y="221"/>
      <point x="209" y="277" type="curve" smooth="yes"/>
      <point x="209" y="333"/>
      <point x="169" y="375"/>
      <point x="111" y="375" type="curve" smooth="yes"/>
      <point x="54" y="375"/>
      <point x="12" y="333"/>
      <point x="12" y="277" type="curve" smooth="yes"/>
      <point x="12" y="221"/>
      <point x="54" y="179"/>
    </contour>
  </outline>
</glyph>
<glyph name="ordmasculine" format="2">
  <advance width="468"/>
  <unicode hex="00BA"/>
  <anchor x="234" y="377" name="bottom"/>
  <anchor x="234" y="554" name="center"/>
  <anchor x="419" y="384" name="ogonek"/>
  <anchor x="234" y="731" name="top"/>
  <anchor x="453" y="731" name="topright"/>
  <outline>
    <contour>
      <point x="234" y="370" type="curve" smooth="yes"/>
      <point x="367" y="370"/>
      <point x="454" y="437"/>
      <point x="454" y="554" type="curve" smooth="yes"/>
      <point x="454" y="673"/>
      <point x="366" y="738"/>
      <point x="234" y="738" type="curve" smooth="yes"/>
      <point x="101" y="738"/>
      <point x="14" y="671"/>
      <point x="14" y="554" type="curve" smooth="yes"/>
      <point x="14" y="436"/>
      <point x="102" y="370"/>
    </contour>
    <contour>
      <point x="234" y="482" type="curve" smooth="yes"/>
      <point x="186" y="482"/>
      <point x="162" y="509"/>
      <point x="162" y="554" type="curve" smooth="yes"/>
      <point x="162" y="599"/>
      <point x="186" y="627"/>
      <point x="234" y="627" type="curve" smooth="yes"/>
      <point x="283" y="627"/>
      <point x="307" y="599"/>
      <point x="307" y="554" type="curve" smooth="yes"/>
      <point x="307" y="510"/>
      <point x="283" y="482"/>
    </contour>
  </outline>
</glyph>
<glyph name="AE" format="2">
  <advance width="1141"/>
  <unicode hex="00C6"/>
  <anchor x="571" y="0" name="bottom"/>
  <anchor x="571" y="729" name="top"/>
  <outline>
    <contour>
      <point x="-7" y="0" type="line"/>
      <point x="240" y="0" type="line"/>
      <point x="282" y="124" type="line"/>
      <point x="586" y="124" type="line"/>
      <point x="628" y="0" type="line"/>
      <point x="1119" y="0" type="line"/>
      <point x="1119" y="179" type="line"/>
      <point x="805" y="179" type="line"/>
      <point x="763" y="282" type="line"/>
      <point x="1066" y="282" type="line"/>
      <point x="1066" y="449" type="line"/>
      <point x="696" y="449" type="line"/>
      <point x="655" y="550" type="line"/>
      <point x="1116" y="550" type="line"/>
      <point x="1116" y="729" type="line"/>
      <point x="285" y="729" type="line"/>
    </contour>
    <contour>
      <point x="340" y="293" type="line"/>
      <point x="402" y="476" type="line"/>
      <point x="430" y="565" type="line"/>
      <point x="437" y="565" type="line"/>
      <point x="466" y="476" type="line"/>
      <point x="528" y="293" type="line"/>
    </contour>
  </outline>
</glyph>
<glyph name="multiply" format="2">
  <advance width="720"/>
  <unicode hex="00D7"/>
  <outline>
    <contour>
      <point x="222" y="98" type="line"/>
      <point x="360" y="236" type="line"/>
      <point x="498" y="98" type="line"/>
      <point x="623" y="223" type="line"/>
      <point x="485" y="361" type="line"/>
      <point x="623" y="499" type="line"/>
      <point x="498" y="623" type="line"/>
      <point x="360" y="486" type="line"/>
      <point x="222" y="623" type="line"/>
      <point x="98" y="499" type="line"/>
      <point x="235" y="361" type="line"/>
      <point x="98" y="223" type="line"/>
    </contour>
  </outline>
</glyph>
<glyph name="germandbls" format="2">
  <advance width="769"/>
  <unicode hex="00DF"/>
  <outline>
    <contour>
      <point x="118" y="0" type="line"/>
      <point x="339" y="0" type="line"/>
      <point x="339" y="468" type="line" smooth="yes"/>
      <point x="339" y="533"/>
      <point x="370" y="569"/>
      <point x="433" y="569" type="curve" smooth="yes"/>
      <point x="476" y="569"/>
      <point x="513" y="547"/>
      <point x="513" y="502" type="curve" smooth="yes"/>
      <point x="513" y="458"/>
      <point x="484" y="431"/>
      <point x="420" y="431" type="curve" smooth="yes"/>
      <point x="398" y="431" type="line"/>
      <point x="398" y="312" type="line"/>
      <point x="452" y="312" type="line" smooth="yes"/>
      <point x="506" y="312"/>
      <point x="540" y="290"/>
      <point x="540" y="237" type="curve" smooth="yes"/>
      <point x="540" y="188"/>
      <point x="509" y="158"/>
      <point x="443" y="158" type="curve" smooth="yes"/>
      <point x="398" y="158" type="line"/>
      <point x="398" y="0" type="line"/>
      <point x="485" y="0" type="line" smooth="yes"/>
      <point x="675" y="0"/>
      <point x="763" y="87"/>
      <point x="763" y="214" type="curve" smooth="yes"/>
      <point x="763" y="310"/>
      <point x="701" y="380"/>
      <point x="609" y="389" type="curve"/>
      <point x="609" y="399" type="line"/>
      <point x="676" y="417"/>
      <point x="714" y="469"/>
      <point x="714" y="542" type="curve" smooth="yes"/>
      <point x="714" y="660"/>
      <point x="612" y="739"/>
      <point x="430" y="739" type="curve" smooth="yes"/>
      <point x="266" y="739"/>
      <point x="118" y="659"/>
      <point x="118" y="484" type="curve" smooth="yes"/>
    </contour>
    <contour>
      <point x="3" y="387" type="line"/>
      <point x="258" y="387" type="line"/>
      <point x="258" y="544" type="line"/>
      <point x="3" y="544" type="line"/>
    </contour>
  </outline>
</glyph>
<glyph name="ae" format="2">
  <advance width="1054"/>
  <unicode hex="00E6"/>
  <outline>
    <contour>
      <point x="207" y="-10" type="curve" smooth="yes"/>
      <point x="297" y="-10"/>
      <point x="385" y="15"/>
      <point x="442" y="76" type="curve"/>
      <point x="447" y="76" type="line"/>
      <point x="509" y="15"/>
      <point x="596" y="-10"/>
      <point x="705" y="-10" type="curve" smooth="yes"/>
      <point x="882" y="-10"/>
      <point x="1013" y="58"/>
      <point x="1035" y="180" type="curve"/>
      <point x="817" y="180" type="line"/>
      <point x="806" y="158"/>
      <point x="765" y="142"/>
      <point x="718" y="142" type="curve" smooth="yes"/>
      <point x="644" y="142"/>
      <point x="597" y="172"/>
      <point x="597" y="246" type="curve" smooth="yes"/>
      <point x="597" y="308" type="line" smooth="yes"/>
      <point x="597" y="369"/>
      <point x="637" y="409"/>
      <point x="709" y="409" type="curve" smooth="yes"/>
      <point x="777" y="409"/>
      <point x="812" y="382"/>
      <point x="817" y="334" type="curve"/>
      <point x="532" y="334" type="line"/>
      <point x="532" y="219" type="line"/>
      <point x="1039" y="219" type="line"/>
      <point x="1062" y="419"/>
      <point x="945" y="553"/>
      <point x="712" y="553" type="curve" smooth="yes"/>
      <point x="638" y="553"/>
      <point x="564" y="535"/>
      <point x="516" y="503" type="curve"/>
      <point x="509" y="503" type="line"/>
      <point x="467" y="534"/>
      <point x="393" y="555"/>
      <point x="310" y="554" type="curve" smooth="yes"/>
      <point x="146" y="553"/>
      <point x="33" y="481"/>
      <point x="24" y="355" type="curve"/>
      <point x="233" y="355" type="line"/>
      <point x="235" y="396"/>
      <point x="270" y="405"/>
      <point x="309" y="405" type="curve" smooth="yes"/>
      <point x="360" y="405"/>
      <point x="380" y="386"/>
      <point x="380" y="351" type="curve" smooth="yes"/>
      <point x="380" y="196" type="line" smooth="yes"/>
      <point x="380" y="153"/>
      <point x="348" y="124"/>
      <point x="291" y="124" type="curve" smooth="yes"/>
      <point x="253" y="124"/>
      <point x="231" y="139"/>
      <point x="231" y="166" type="curve" smooth="yes"/>
      <point x="231" y="198"/>
      <point x="259" y="211"/>
      <point x="300" y="211" type="curve" smooth="yes"/>
      <point x="437" y="211" type="line"/>
      <point x="437" y="321" type="line"/>
      <point x="253" y="321" type="line" smooth="yes"/>
      <point x="107" y="321"/>
      <point x="10" y="256"/>
      <point x="10" y="144" type="curve" smooth="yes"/>
      <point x="10" y="52"/>
      <point x="82" y="-10"/>
    </contour>
  </outline>
</glyph>
<glyph name="eth" format="2">
  <advance width="665"/>
  <unicode hex="00F0"/>
  <outline>
    <contour>
      <point x="314" y="-9" type="curve" smooth="yes"/>
      <point x="511" y="-9"/>
      <point x="655" y="90"/>
      <point x="655" y="296" type="curve" smooth="yes"/>
      <point x="655" y="467"/>
      <point x="574" y="627"/>
      <point x="440" y="729" type="curve"/>
      <point x="193" y="729" type="line"/>
      <point x="315" y="626"/>
      <point x="412" y="515"/>
      <point x="441" y="439" type="curve"/>
      <point x="435" y="434" type="line"/>
      <point x="403" y="471"/>
      <point x="349" y="491"/>
      <point x="279" y="491" type="curve" smooth="yes"/>
      <point x="127" y="491"/>
      <point x="10" y="398"/>
      <point x="10" y="247" type="curve" smooth="yes"/>
      <point x="10" y="93"/>
      <point x="132" y="-9"/>
    </contour>
    <contour>
      <point x="334" y="147" type="curve" smooth="yes"/>
      <point x="272" y="147"/>
      <point x="231" y="182"/>
      <point x="231" y="255" type="curve" smooth="yes"/>
      <point x="231" y="320"/>
      <point x="264" y="363"/>
      <point x="334" y="363" type="curve" smooth="yes"/>
      <point x="396" y="363"/>
      <point x="438" y="328"/>
      <point x="438" y="255" type="curve" smooth="yes"/>
      <point x="438" y="190"/>
      <point x="405" y="147"/>
    </contour>
    <contour>
      <point x="153" y="510" type="line"/>
      <point x="639" y="604" type="line"/>
      <point x="639" y="724" type="line"/>
      <point x="153" y="630" type="line"/>
    </contour>
  </outline>
</glyph>
<glyph name="divide" format="2">
  <advance width="720"/>
  <unicode hex="00F7"/>
  <outline>
    <contour>
      <point x="100" y="274" type="line"/>
      <point x="621" y="274" type="line"/>
      <point x="621" y="448" type="line"/>
      <point x="100" y="448" type="line"/>
    </contour>
    <contour>
      <point x="265" y="65" type="line"/>
      <point x="447" y="65" type="line"/>
      <point x="447" y="212" type="line"/>
      <point x="265" y="212" type="line"/>
    </contour>
    <contour>
      <point x="265" y="510" type="line"/>
      <point x="447" y="510" type="line"/>
      <point x="447" y="657" type="line"/>
      <point x="265" y="657" type="line"/>
    </contour>
  </outline>
</glyph>
<glyph name="thorn" format="2">
  <advance width="729"/>
  <unicode hex="00FE"/>
  <anchor x="370" y="0" name="bottom"/>
  <anchor x="370" y="729" name="top"/>
  <outline>
    <contour>
      <point x="43" y="-167" type="line"/>
      <point x="264" y="-167" type="line"/>
      <point x="264" y="69" type="line"/>
      <point x="271" y="69" type="line"/>
      <point x="306" y="19"/>
      <point x="373" y="-10"/>
      <point x="452" y="-10" type="curve" smooth="yes"/>
      <point x="611" y="-10"/>
      <point x="717" y="99"/>
      <point x="717" y="271" type="curve" smooth="yes"/>
      <point x="717" y="444"/>
      <point x="611" y="552"/>
      <point x="454" y="552" type="curve" smooth="yes"/>
      <point x="357" y="552"/>
      <point x="298" y="520"/>
      <point x="266" y="473" type="curve"/>
      <point x="259" y="473" type="line"/>
      <point x="259" y="729" type="line"/>
      <point x="43" y="729" type="line"/>
    </contour>
    <contour>
      <point x="383" y="155" type="curve" smooth="yes"/>
      <point x="308" y="155"/>
      <point x="264" y="200"/>
      <point x="264" y="265" type="curve" smooth="yes"/>
      <point x="264" y="277" type="line" smooth="yes"/>
      <point x="264" y="342"/>
      <point x="308" y="387"/>
      <point x="383" y="387" type="curve" smooth="yes"/>
      <point x="451" y="387"/>
      <point x="496" y="346"/>
      <point x="496" y="271" type="curve" smooth="yes"/>
      <point x="496" y="195"/>
      <point x="450" y="155"/>
    </contour>
  </outline>
</glyph>
<glyph name="idotless" format="2">
  <advance width="307"/>
  <unicode hex="0131"/>
  <anchor x="154" y="0" name="bottom"/>
  <anchor x="264" y="0" name="ogonek"/>
  <anchor x="154" y="544" name="top"/>
  <outline>
    <contour>
      <point x="43" y="0" type="line"/>
      <point x="264" y="0" type="line"/>
      <point x="264" y="544" type="line"/>
      <point x="43" y="544" type="line"/>
    </contour>
  </outline>
</glyph>
<glyph name="Eng" format="2">
  <advance width="881"/>
  <unicode hex="014A"/>
  <outline>
    <contour>
      <point x="47" y="0" type="line"/>
      <point x="278" y="0" type="line"/>
      <point x="278" y="226" type="line"/>
      <point x="271" y="424" type="line"/>
      <point x="280" y="424" type="line"/>
      <point x="562" y="0" type="line"/>
      <point x="834" y="0" type="line"/>
      <point x="834" y="729" type="line"/>
      <point x="607" y="729" type="line"/>
      <point x="607" y="504" type="line"/>
      <point x="613" y="299" type="line"/>
      <point x="605" y="299" type="line"/>
      <point x="323" y="729" type="line"/>
      <point x="47" y="729" type="line"/>
    </contour>
    <contour>
      <point x="526" y="-167" type="line"/>
      <point x="637" y="-167" type="line" smooth="yes"/>
      <point x="771" y="-167"/>
      <point x="834" y="-122"/>
      <point x="834" y="-26" type="curve" smooth="yes"/>
      <point x="834" y="81" type="line"/>
      <point x="613" y="81" type="line"/>
      <point x="613" y="-8" type="line" smooth="yes"/>
      <point x="613" y="-40"/>
      <point x="599" y="-51"/>
      <point x="563" y="-51" type="curve" smooth="yes"/>
      <point x="526" y="-51" type="line"/>
    </contour>
  </outline>
</glyph>
<glyph name="eng" format="2">
  <advance width="722"/>
  <unicode hex="014B"/>
  <outline>
    <contour>
      <point x="363" y="-167" type="line"/>
      <point x="494" y="-167" type="line" smooth="yes"/>
      <point x="628" y="-167"/>
      <point x="691" y="-104"/>
      <point x="691" y="29" type="curve" smooth="yes"/>
      <point x="691" y="299" type="line" smooth="yes"/>
      <point x="691" y="491"/>
      <point x="596" y="554"/>
      <point x="456" y="554" type="curve" smooth="yes"/>
      <point x="382" y="554"/>
      <point x="306" y="521"/>
      <point x="274" y="465" type="curve"/>
      <point x="264" y="465" type="line"/>
      <point x="256" y="544" type="line"/>
      <point x="43" y="544" type="line"/>
      <point x="43" y="0" type="line"/>
      <point x="264" y="0" type="line"/>
      <point x="264" y="271" type="line" smooth="yes"/>
      <point x="264" y="339"/>
      <point x="306" y="389"/>
      <point x="376" y="389" type="curve" smooth="yes"/>
      <point x="452" y="389"/>
      <point x="470" y="336"/>
      <point x="470" y="260" type="curve" smooth="yes"/>
      <point x="470" y="54" type="line" smooth="yes"/>
      <point x="470" y="9"/>
      <point x="456" y="-6"/>
      <point x="420" y="-6" type="curve" smooth="yes"/>
      <point x="363" y="-6" type="line"/>
    </contour>
  </outline>
</glyph>
<glyph name="OE" format="2">
  <advance width="1146"/>
  <unicode hex="0152"/>
  <anchor x="573" y="0" name="bottom"/>
  <anchor x="573" y="729" name="top"/>
  <outline>
    <contour>
      <point x="406" y="-10" type="curve" smooth="yes"/>
      <point x="457" y="-10"/>
      <point x="508" y="-6"/>
      <point x="551" y="0" type="curve"/>
      <point x="1124" y="0" type="line"/>
      <point x="1124" y="178" type="line"/>
      <point x="754" y="178" type="line"/>
      <point x="754" y="285" type="line"/>
      <point x="1068" y="285" type="line"/>
      <point x="1068" y="451" type="line"/>
      <point x="754" y="451" type="line"/>
      <point x="754" y="551" type="line"/>
      <point x="1124" y="551" type="line"/>
      <point x="1124" y="729" type="line"/>
      <point x="551" y="729" type="line"/>
      <point x="508" y="735"/>
      <point x="457" y="739"/>
      <point x="406" y="739" type="curve" smooth="yes"/>
      <point x="158" y="739"/>
      <point x="12" y="600"/>
      <point x="12.002" y="365" type="curve" smooth="yes"/>
      <point x="12" y="129"/>
      <point x="158" y="-10"/>
    </contour>
    <contour>
      <point x="445" y="168" type="curve" smooth="yes"/>
      <point x="312" y="168"/>
      <point x="243" y="236"/>
      <point x="243" y="365" type="curve" smooth="yes"/>
      <point x="243" y="493"/>
      <point x="312" y="561"/>
      <point x="445" y="561" type="curve" smooth="yes"/>
      <point x="483" y="561"/>
      <point x="520" y="556"/>
      <point x="544" y="548" type="curve"/>
      <point x="544" y="181" type="line"/>
      <point x="520" y="173"/>
      <point x="483" y="168"/>
    </contour>
  </outline>
</glyph>
<glyph name="oe" format="2">
  <advance width="1139"/>
  <unicode hex="0153"/>
  <anchor x="568" y="0" name="bottom"/>
  <anchor x="568" y="544" name="top"/>
  <outline>
    <contour>
      <point x="347" y="-10" type="curve" smooth="yes"/>
      <point x="440" y="-10"/>
      <point x="517" y="11"/>
      <point x="574" y="51" type="curve"/>
      <point x="572" y="51" type="line"/>
      <point x="630" y="11"/>
      <point x="707" y="-10"/>
      <point x="801" y="-10" type="curve" smooth="yes"/>
      <point x="980" y="-10"/>
      <point x="1114" y="66"/>
      <point x="1127" y="179" type="curve"/>
      <point x="919" y="179" type="line"/>
      <point x="907" y="153"/>
      <point x="862" y="135"/>
      <point x="807" y="135" type="curve" smooth="yes"/>
      <point x="730" y="135"/>
      <point x="685" y="169"/>
      <point x="685" y="225" type="curve"/>
      <point x="685" y="285" type="line" smooth="yes"/>
      <point x="685" y="380"/>
      <point x="729" y="408"/>
      <point x="798" y="408" type="curve" smooth="yes"/>
      <point x="868" y="408"/>
      <point x="901" y="378"/>
      <point x="907" y="337" type="curve"/>
      <point x="909" y="338" type="line"/>
      <point x="667" y="338" type="line"/>
      <point x="667" y="223" type="line"/>
      <point x="1125" y="223" type="line"/>
      <point x="1140" y="432"/>
      <point x="1016" y="554"/>
      <point x="799" y="554" type="curve" smooth="yes"/>
      <point x="708" y="554"/>
      <point x="632" y="533"/>
      <point x="574" y="493" type="curve"/>
      <point x="576" y="493" type="line"/>
      <point x="519" y="533"/>
      <point x="440" y="554"/>
      <point x="347" y="554" type="curve" smooth="yes"/>
      <point x="143" y="554"/>
      <point x="10" y="452"/>
      <point x="10" y="272" type="curve" smooth="yes"/>
      <point x="10" y="91"/>
      <point x="144" y="-10"/>
    </contour>
    <contour>
      <point x="347" y="157" type="curve" smooth="yes"/>
      <point x="270" y="157"/>
      <point x="231" y="201"/>
      <point x="231" y="272" type="curve" smooth="yes"/>
      <point x="231" y="343"/>
      <point x="270" y="388"/>
      <point x="347" y="388" type="curve" smooth="yes"/>
      <point x="424" y="388"/>
      <point x="464" y="344"/>
      <point x="464" y="272" type="curve" smooth="yes"/>
      <point x="464" y="201"/>
      <point x="424" y="157"/>
    </contour>
  </outline>
</glyph>
<glyph name="florin" format="2">
  <advance width="479"/>
  <unicode hex="0192"/>
  <outline>
    <contour>
      <point x="20" y="-167" type="line"/>
      <point x="139" y="-167" type="line" smooth="yes"/>
      <point x="260" y="-167"/>
      <point x="342" y="-98"/>
      <point x="342" y="33" type="curve" smooth="yes"/>
      <point x="342" y="489" type="line" smooth="yes"/>
      <point x="342" y="551"/>
      <point x="366" y="571"/>
      <point x="421" y="571" type="curve" smooth="yes"/>
      <point x="459" y="571" type="line"/>
      <point x="459" y="729" type="line"/>
      <point x="340" y="729" type="line" smooth="yes"/>
      <point x="219" y="729"/>
      <point x="137" y="660"/>
      <point x="137" y="529" type="curve" smooth="yes"/>
      <point x="137" y="73" type="line" smooth="yes"/>
      <point x="137" y="11"/>
      <point x="113" y="-9"/>
      <point x="58" y="-9" type="curve" smooth="yes"/>
      <point x="20" y="-9" type="line"/>
    </contour>
    <contour>
      <point x="44" y="302" type="line"/>
      <point x="452" y="302" type="line"/>
      <point x="452" y="452" type="line"/>
      <point x="44" y="452" type="line"/>
    </contour>
  </outline>
</glyph>
<glyph name="jdotless" format="2">
  <advance width="307"/>
  <unicode hex="0237"/>
  <anchor x="154" y="-250" name="bottom"/>
  <anchor x="154" y="544" name="top"/>
  <outline>
    <contour>
      <point x="-44" y="-167" type="line"/>
      <point x="67" y="-167" type="line" smooth="yes"/>
      <point x="201" y="-167"/>
      <point x="264" y="-104"/>
      <point x="264" y="29" type="curve" smooth="yes"/>
      <point x="264" y="544" type="line"/>
      <point x="43" y="544" type="line"/>
      <point x="43" y="54" type="line" smooth="yes"/>
      <point x="43" y="9"/>
      <point x="29" y="-6"/>
      <point x="-7" y="-6" type="curve" smooth="yes"/>
      <point x="-44" y="-6" type="line"/>
    </contour>
  </outline>
</glyph>
<glyph name="gravecomb" format="2">
  <unicode hex="0300"/>
  <anchor x="234" y="673" name="_top"/>
  <outline>
    <contour>
      <point x="157" y="729" type="line"/>
      <point x="311" y="729" type="line"/>
      <point x="248" y="878" type="line"/>
      <point x="40" y="878" type="line"/>
    </contour>
  </outline>
</glyph>
<glyph name="circumflexcomb" format="2">
  <unicode hex="0302"/>
  <anchor x="291" y="673" name="_top"/>
  <outline>
    <contour>
      <point x="40" y="729" type="line"/>
      <point x="216" y="729" type="line"/>
      <point x="291" y="806" type="line"/>
      <point x="366" y="729" type="line"/>
      <point x="542" y="729" type="line"/>
      <point x="410" y="878" type="line"/>
      <point x="172" y="878" type="line"/>
    </contour>
  </outline>
</glyph>
<glyph name="tildecomb" format="2">
  <unicode hex="0303"/>
  <anchor x="264" y="673" name="_top"/>
  <outline>
    <contour>
      <point x="334" y="726" type="curve" smooth="yes"/>
      <point x="382" y="726"/>
      <point x="446" y="752"/>
      <point x="484" y="849" type="curve"/>
      <point x="400" y="896" type="line"/>
      <point x="380" y="869"/>
      <point x="368" y="856"/>
      <point x="332" y="856" type="curve" smooth="yes"/>
      <point x="276" y="856"/>
      <point x="259" y="894"/>
      <point x="190" y="894" type="curve" smooth="yes"/>
      <point x="142" y="894"/>
      <point x="78" y="868"/>
      <point x="40" y="771" type="curve"/>
      <point x="124" y="724" type="line"/>
      <point x="144" y="751"/>
      <point x="156" y="764"/>
      <point x="192" y="764" type="curve" smooth="yes"/>
      <point x="248" y="764"/>
      <point x="265" y="726"/>
    </contour>
  </outline>
</glyph>
<glyph name="macroncomb" format="2">
  <unicode hex="0304"/>
  <anchor x="264" y="673" name="_top"/>
  <outline>
    <contour>
      <point x="40" y="745" type="line"/>
      <point x="487" y="745" type="line"/>
      <point x="487" y="884" type="line"/>
      <point x="40" y="884" type="line"/>
    </contour>
  </outline>
</glyph>
<glyph name="brevecomb" format="2">
  <unicode hex="0306"/>
  <anchor x="239" y="673" name="_top"/>
  <outline>
    <contour>
      <point x="239" y="725" type="curve" smooth="yes"/>
      <point x="359" y="725"/>
      <point x="438" y="786"/>
      <point x="438" y="878" type="curve"/>
      <point x="293" y="878" type="line"/>
      <point x="294" y="840"/>
      <point x="271" y="822"/>
      <point x="239" y="822" type="curve" smooth="yes"/>
      <point x="207" y="822"/>
      <point x="184" y="840"/>
      <point x="185" y="878" type="curve"/>
      <point x="40" y="878" type="line"/>
      <point x="40" y="786"/>
      <point x="119" y="725"/>
    </contour>
  </outline>
</glyph>
<glyph name="dotaccentcomb" format="2">
  <unicode hex="0307"/>
  <anchor x="158" y="673" name="_top"/>
  <outline>
    <contour>
      <point x="158" y="715" type="curve" smooth="yes"/>
      <point x="229" y="715"/>
      <point x="276" y="742"/>
      <point x="276" y="799" type="curve" smooth="yes"/>
      <point x="276" y="849"/>
      <point x="238" y="883"/>
      <point x="158" y="883" type="curve" smooth="yes"/>
      <point x="87" y="883"/>
      <point x="40" y="856"/>
      <point x="40" y="799" type="curve" smooth="yes"/>
      <point x="40" y="749"/>
      <point x="78" y="715"/>
    </contour>
  </outline>
</glyph>
<glyph name="dieresiscomb" format="2">
  <unicode hex="0308"/>
  <anchor x="283" y="678" name="_top"/>
  <outline>
    <contour>
      <point x="412" y="719" type="curve" smooth="yes"/>
      <point x="480" y="719"/>
      <point x="525" y="744"/>
      <point x="525" y="799" type="curve" smooth="yes"/>
      <point x="525" y="847"/>
      <point x="489" y="879"/>
      <point x="412" y="879" type="curve" smooth="yes"/>
      <point x="344" y="879"/>
      <point x="299" y="854"/>
      <point x="299" y="799" type="curve" smooth="yes"/>
      <point x="299" y="751"/>
      <point x="335" y="719"/>
    </contour>
    <contour>
      <point x="153" y="719" type="curve" smooth="yes"/>
      <point x="221" y="719"/>
      <point x="266" y="744"/>
      <point x="266" y="799" type="curve" smooth="yes"/>
      <point x="266" y="847"/>
      <point x="230" y="879"/>
      <point x="153" y="879" type="curve" smooth="yes"/>
      <point x="85" y="879"/>
      <point x="40" y="854"/>
      <point x="40" y="799" type="curve" smooth="yes"/>
      <point x="40" y="751"/>
      <point x="76" y="719"/>
    </contour>
  </outline>
</glyph>
<glyph name="hookabovecomb" format="2">
  <unicode hex="0309"/>
  <anchor x="153" y="678" name="_top"/>
  <outline>
    <contour>
      <point x="112" y="720" type="line"/>
      <point x="252" y="753"/>
      <point x="321" y="798"/>
      <point x="321" y="880" type="curve" smooth="yes"/>
      <point x="321" y="946"/>
      <point x="265" y="990"/>
      <point x="148" y="990" type="curve" smooth="yes"/>
      <point x="110" y="990"/>
      <point x="72" y="986"/>
      <point x="40" y="978" type="curve"/>
      <point x="40" y="881" type="line"/>
      <point x="57" y="886"/>
      <point x="78" y="888"/>
      <point x="96" y="888" type="curve" smooth="yes"/>
      <point x="119" y="888"/>
      <point x="140" y="883"/>
      <point x="140" y="863" type="curve" smooth="yes"/>
      <point x="140" y="845"/>
      <point x="126" y="831"/>
      <point x="67" y="815" type="curve"/>
    </contour>
  </outline>
</glyph>
<glyph name="ringcomb" format="2">
  <unicode hex="030A"/>
  <anchor x="184" y="673" name="_top"/>
  <outline>
    <contour>
      <point x="184" y="715" type="curve" smooth="yes"/>
      <point x="270" y="715"/>
      <point x="328" y="758"/>
      <point x="328" y="835" type="curve" smooth="yes"/>
      <point x="328" y="907"/>
      <point x="276" y="955"/>
      <point x="184" y="955" type="curve" smooth="yes"/>
      <point x="98" y="955"/>
      <point x="40" y="912"/>
      <point x="40" y="835" type="curve" smooth="yes"/>
      <point x="40" y="763"/>
      <point x="92" y="715"/>
    </contour>
    <contour>
      <point x="184" y="797" type="curve" smooth="yes"/>
      <point x="161" y="797"/>
      <point x="145" y="811"/>
      <point x="145" y="835" type="curve" smooth="yes"/>
      <point x="145" y="858"/>
      <point x="159" y="873"/>
      <point x="184" y="873" type="curve" smooth="yes"/>
      <point x="207" y="873"/>
      <point x="223" y="859"/>
      <point x="223" y="835" type="curve" smooth="yes"/>
      <point x="223" y="812"/>
      <point x="209" y="797"/>
    </contour>
  </outline>
</glyph>
<glyph name="hungarumlautcomb" format="2">
  <unicode hex="030B"/>
  <anchor x="217" y="673" name="_top"/>
  <outline>
    <contour>
      <point x="40" y="729" type="line"/>
      <point x="184" y="729" type="line"/>
      <point x="278" y="878" type="line"/>
      <point x="91" y="878" type="line"/>
    </contour>
    <contour>
      <point x="250" y="729" type="line"/>
      <point x="409" y="729" type="line"/>
      <point x="541" y="878" type="line"/>
      <point x="341" y="878" type="line"/>
    </contour>
  </outline>
</glyph>
<glyph name="caroncomb" format="2">
  <unicode hex="030C"/>
  <anchor x="291" y="673" name="_top"/>
  <outline>
    <contour>
      <point x="172" y="729" type="line"/>
      <point x="410" y="729" type="line"/>
      <point x="542" y="878" type="line"/>
      <point x="366" y="878" type="line"/>
      <point x="291" y="801" type="line"/>
      <point x="216" y="878" type="line"/>
      <point x="40" y="878" type="line"/>
    </contour>
  </outline>
</glyph>
<glyph name="commaturnedabovecomb" format="2">
  <unicode hex="0312"/>
  <anchor x="120" y="678" name="_top"/>
  <outline>
    <contour>
      <point x="40" y="735" type="line"/>
      <point x="200" y="735" type="line"/>
      <point x="200" y="770" type="line" smooth="yes"/>
      <point x="200" y="831"/>
      <point x="208" y="862"/>
      <point x="237" y="901" type="curve"/>
      <point x="159" y="979" type="line"/>
      <point x="75" y="926"/>
      <point x="40" y="873"/>
      <point x="40" y="788" type="curve" smooth="yes"/>
    </contour>
  </outline>
</glyph>
<glyph name="horncomb" format="2">
  <unicode hex="031B"/>
  <anchor x="40" y="610" name="_topright"/>
  <outline>
    <contour>
      <point x="40" y="495" type="line"/>
      <point x="269" y="477"/>
      <point x="344" y="550"/>
      <point x="323" y="689" type="curve"/>
      <point x="137" y="689" type="line"/>
      <point x="145" y="623"/>
      <point x="132" y="604"/>
      <point x="40" y="610" type="curve"/>
    </contour>
  </outline>
</glyph>
<glyph name="dotbelowcomb" format="2">
  <unicode hex="0323"/>
  <anchor x="153" y="0" name="_bottom"/>
  <outline>
    <contour>
      <point x="153" y="-209" type="curve" smooth="yes"/>
      <point x="221" y="-209"/>
      <point x="266" y="-179"/>
      <point x="266" y="-125" type="curve" smooth="yes"/>
      <point x="266" y="-75"/>
      <point x="225" y="-41"/>
      <point x="153" y="-41" type="curve" smooth="yes"/>
      <point x="85" y="-41"/>
      <point x="40" y="-71"/>
      <point x="40" y="-125" type="curve" smooth="yes"/>
      <point x="40" y="-175"/>
      <point x="81" y="-209"/>
    </contour>
  </outline>
</glyph>
<glyph name="commaaccentcomb" format="2">
  <unicode hex="0326"/>
  <anchor x="184" y="0" name="_bottom"/>
  <outline>
    <contour>
      <point x="40" y="-231" type="line"/>
      <point x="204" y="-231" type="line"/>
      <point x="291" y="-56" type="line"/>
      <point x="77" y="-56" type="line"/>
    </contour>
  </outline>
</glyph>
<glyph name="ogonekcomb" format="2">
  <unicode hex="0328"/>
  <anchor x="307" y="0" name="_ogonek"/>
  <outline>
    <contour>
      <point x="195" y="-222" type="curve" smooth="yes"/>
      <point x="242" y="-222"/>
      <point x="291" y="-214"/>
      <point x="318" y="-201" type="curve"/>
      <point x="318" y="-119" type="line"/>
      <point x="305" y="-125"/>
      <point x="284" y="-128"/>
      <point x="266" y="-128" type="curve" smooth="yes"/>
      <point x="228" y="-128"/>
      <point x="212" y="-113"/>
      <point x="212" y="-90" type="curve" smooth="yes"/>
      <point x="212" y="-56"/>
      <point x="247" y="-25"/>
      <point x="307" y="0" type="curve"/>
      <point x="300" y="10" type="line"/>
      <point x="183" y="10" type="line"/>
      <point x="69" y="-26"/>
      <point x="40" y="-80"/>
      <point x="40" y="-125" type="curve" smooth="yes"/>
      <point x="40" y="-187"/>
      <point x="95" y="-222"/>
    </contour>
  </outline>
</glyph>
<glyph name="strokeshortcomb" format="2">
  <unicode hex="0335"/>
  <anchor x="235" y="306" name="_center"/>
  <outline>
    <contour>
      <point x="40" y="248" type="line"/>
      <point x="429" y="248" type="line"/>
      <point x="429" y="364" type="line"/>
      <point x="40" y="364" type="line"/>
    </contour>
  </outline>
</glyph>
<glyph name="strokelongcomb" format="2">
  <unicode hex="0336"/>
  <anchor x="499" y="365" name="_center"/>
  <outline>
    <contour>
      <point x="40" y="300" type="line"/>
      <point x="958" y="300" type="line"/>
      <point x="958" y="438" type="line"/>
      <point x="40" y="438" type="line"/>
    </contour>
  </outline>
</glyph>
<glyph name="slashshortcomb" format="2">
  <unicode hex="0337"/>
  <anchor x="196" y="302" name="_center"/>
  <outline>
    <contour>
      <point x="40" y="124" type="line"/>
      <point x="351" y="305" type="line"/>
      <point x="351" y="479" type="line"/>
      <point x="40" y="300" type="line"/>
    </contour>
  </outline>
</glyph>
<glyph name="slashlongcomb" format="2">
  <unicode hex="0338"/>
  <anchor x="379" y="272" name="_center"/>
  <outline>
    <contour>
      <point x="40" y="-60" type="line"/>
      <point x="182" y="-60" type="line"/>
      <point x="717" y="604" type="line"/>
      <point x="577" y="604" type="line"/>
    </contour>
  </outline>
</glyph>
<glyph name="mu" format="2">
  <advance width="734"/>
  <unicode hex="03BC"/>
  <outline>
    <contour>
      <point x="43" y="-132" type="line"/>
      <point x="264" y="-132" type="line"/>
      <point x="264" y="37" type="line"/>
      <point x="212" y="3" type="line"/>
      <point x="226" y="-5"/>
      <point x="253" y="-10"/>
      <point x="278" y="-10" type="curve" smooth="yes"/>
      <point x="357" y="-10"/>
      <point x="430" y="26"/>
      <point x="461" y="79" type="curve"/>
      <point x="470" y="79" type="line"/>
      <point x="479" y="0" type="line"/>
      <point x="691" y="0" type="line"/>
      <point x="691" y="544" type="line"/>
      <point x="470" y="544" type="line"/>
      <point x="470" y="273" type="line" smooth="yes"/>
      <point x="470" y="202"/>
      <point x="442" y="155"/>
      <point x="357" y="155" type="curve" smooth="yes"/>
      <point x="283" y="155"/>
      <point x="264" y="208"/>
      <point x="264" y="280" type="curve" smooth="yes"/>
      <point x="264" y="544" type="line"/>
      <point x="43" y="544" type="line"/>
    </contour>
  </outline>
</glyph>
<glyph name="pi" format="2">
  <advance width="715"/>
  <unicode hex="03C0"/>
  <outline>
    <contour>
      <point x="575" y="-9" type="curve" smooth="yes"/>
      <point x="615" y="-9"/>
      <point x="660" y="-2"/>
      <point x="688" y="8" type="curve"/>
      <point x="688" y="174" type="line"/>
      <point x="678" y="168"/>
      <point x="662" y="165"/>
      <point x="647" y="165" type="curve" smooth="yes"/>
      <point x="628" y="165"/>
      <point x="606" y="169"/>
      <point x="606" y="221" type="curve" smooth="yes"/>
      <point x="606" y="372" type="line"/>
      <point x="688" y="372" type="line"/>
      <point x="688" y="544" type="line"/>
      <point x="5" y="544" type="line"/>
      <point x="5" y="372" type="line"/>
      <point x="87" y="372" type="line"/>
      <point x="87" y="0" type="line"/>
      <point x="305" y="0" type="line"/>
      <point x="305" y="372" type="line"/>
      <point x="389" y="372" type="line"/>
      <point x="389" y="172" type="line" smooth="yes"/>
      <point x="389" y="59"/>
      <point x="431" y="-9"/>
    </contour>
  </outline>
</glyph>
<glyph name="Germandbls" format="2">
  <advance width="828"/>
  <unicode hex="1E9E"/>
  <outline>
    <contour>
      <point x="47" y="0" type="line"/>
      <point x="292" y="0" type="line"/>
      <point x="292" y="554" type="line"/>
      <point x="526" y="554" type="line"/>
      <point x="410" y="401" type="line"/>
      <point x="410" y="297" type="line"/>
      <point x="483" y="297" type="line" smooth="yes"/>
      <point x="535" y="297"/>
      <point x="565" y="277"/>
      <point x="565" y="233" type="curve" smooth="yes"/>
      <point x="565" y="191"/>
      <point x="539" y="168"/>
      <point x="485" y="168" type="curve" smooth="yes"/>
      <point x="368" y="168" type="line"/>
      <point x="368" y="0" type="line"/>
      <point x="544" y="0" type="line" smooth="yes"/>
      <point x="711" y="0"/>
      <point x="823" y="67"/>
      <point x="823" y="209" type="curve" smooth="yes"/>
      <point x="823" y="331"/>
      <point x="745" y="399"/>
      <point x="628" y="399" type="curve" smooth="yes"/>
      <point x="604" y="399" type="line"/>
      <point x="658" y="360" type="line"/>
      <point x="658" y="406" type="line"/>
      <point x="765" y="539" type="line"/>
      <point x="765" y="729" type="line"/>
      <point x="47" y="729" type="line"/>
    </contour>
  </outline>
</glyph>
<glyph name="endash" format="2">
  <advance width="590"/>
  <unicode hex="2013"/>
  <outline>
    <contour>
      <point x="30" y="188" type="line"/>
      <point x="560" y="188" type="line"/>
      <point x="560" y="356" type="line"/>
      <point x="30" y="356" type="line"/>
    </contour>
  </outline>
</glyph>
<glyph name="emdash" format="2">
  <advance width="768"/>
  <unicode hex="2014"/>
  <outline>
    <contour>
      <point x="30" y="188" type="line"/>
      <point x="738" y="188" type="line"/>
      <point x="738" y="356" type="line"/>
      <point x="30" y="356" type="line"/>
    </contour>
  </outline>
</glyph>
<glyph name="bullet" format="2">
  <advance width="288"/>
  <unicode hex="2022"/>
  <outline>
    <contour>
      <point x="144" y="140" type="curve" smooth="yes"/>
      <point x="227" y="140"/>
      <point x="281" y="199"/>
      <point x="281" y="277" type="curve" smooth="yes"/>
      <point x="281" y="355"/>
      <point x="227" y="414"/>
      <point x="144" y="414" type="curve" smooth="yes"/>
      <point x="65" y="414"/>
      <point x="6" y="355"/>
      <point x="6" y="277" type="curve" smooth="yes"/>
      <point x="6" y="199"/>
      <point x="65" y="140"/>
    </contour>
  </outline>
</glyph>
<glyph name="perthousand" format="2">
  <advance width="1410"/>
  <unicode hex="2030"/>
  <outline>
    <contour>
      <point x="144" y="0" type="line"/>
      <point x="304" y="0" type="line"/>
      <point x="834" y="729" type="line"/>
      <point x="674" y="729" type="line"/>
    </contour>
    <contour>
      <point x="226" y="351" type="curve" smooth="yes"/>
      <point x="351" y="351"/>
      <point x="432" y="421"/>
      <point x="432" y="540" type="curve" smooth="yes"/>
      <point x="432" y="657"/>
      <point x="352" y="729"/>
      <point x="228" y="729" type="curve" smooth="yes"/>
      <point x="104" y="729"/>
      <point x="22" y="660"/>
      <point x="22" y="540" type="curve" smooth="yes"/>
      <point x="22" y="424"/>
      <point x="101" y="351"/>
    </contour>
    <contour>
      <point x="227" y="471" type="curve" smooth="yes"/>
      <point x="198" y="471"/>
      <point x="174" y="482"/>
      <point x="174" y="540" type="curve" smooth="yes"/>
      <point x="174" y="599"/>
      <point x="198" y="610"/>
      <point x="228" y="610" type="curve" smooth="yes"/>
      <point x="255" y="610"/>
      <point x="281" y="599"/>
      <point x="281" y="540" type="curve" smooth="yes"/>
      <point x="281" y="482"/>
      <point x="257" y="471"/>
    </contour>
    <contour>
      <point x="751" y="-5" type="curve" smooth="yes"/>
      <point x="875" y="-5"/>
      <point x="956" y="65"/>
      <point x="956" y="184" type="curve" smooth="yes"/>
      <point x="956" y="302"/>
      <point x="876" y="373"/>
      <point x="753" y="373" type="curve" smooth="yes"/>
      <point x="630" y="373"/>
      <point x="547" y="305"/>
      <point x="547" y="184" type="curve" smooth="yes"/>
      <point x="547" y="68"/>
      <point x="626" y="-5"/>
    </contour>
    <contour>
      <point x="751" y="116" type="curve" smooth="yes"/>
      <point x="723" y="116"/>
      <point x="698" y="126"/>
      <point x="698" y="184" type="curve" smooth="yes"/>
      <point x="698" y="244"/>
      <point x="723" y="254"/>
      <point x="753" y="254" type="curve" smooth="yes"/>
      <point x="780" y="254"/>
      <point x="806" y="243"/>
      <point x="806" y="184" type="curve" smooth="yes"/>
      <point x="806" y="126"/>
      <point x="781" y="116"/>
    </contour>
    <contour>
      <point x="1183" y="-5" type="curve" smooth="yes"/>
      <point x="1307" y="-5"/>
      <point x="1388" y="65"/>
      <point x="1388" y="184" type="curve" smooth="yes"/>
      <point x="1388" y="302"/>
      <point x="1308" y="373"/>
      <point x="1185" y="373" type="curve" smooth="yes"/>
      <point x="1062" y="373"/>
      <point x="979" y="305"/>
      <point x="979" y="184" type="curve" smooth="yes"/>
      <point x="979" y="68"/>
      <point x="1058" y="-5"/>
    </contour>
    <contour>
      <point x="1183" y="116" type="curve" smooth="yes"/>
      <point x="1155" y="116"/>
      <point x="1130" y="126"/>
      <point x="1130" y="184" type="curve" smooth="yes"/>
      <point x="1130" y="244"/>
      <point x="1155" y="254"/>
      <point x="1185" y="254" type="curve" smooth="yes"/>
      <point x="1212" y="254"/>
      <point x="1238" y="243"/>
      <point x="1238" y="184" type="curve" smooth="yes"/>
      <point x="1238" y="126"/>
      <point x="1213" y="116"/>
    </contour>
  </outline>
</glyph>
<glyph name="guilsinglleft" format="2">
  <advance width="322"/>
  <unicode hex="2039"/>
  <outline>
    <contour>
      <point x="134" y="72" type="line"/>
      <point x="315" y="72" type="line"/>
      <point x="208" y="309" type="line"/>
      <point x="315" y="544" type="line"/>
      <point x="134" y="544" type="line"/>
      <point x="5" y="309" type="line"/>
    </contour>
  </outline>
</glyph>
<glyph name="zeroinferior" format="2">
  <advance width="500"/>
  <unicode hex="2080"/>
  <anchor x="250" y="171" name="_center"/>
  <outline>
    <contour>
      <point x="250" y="-45" type="curve" smooth="yes"/>
      <point x="392" y="-45"/>
      <point x="486" y="35"/>
      <point x="486" y="176" type="curve" smooth="yes"/>
      <point x="486" y="315"/>
      <point x="394" y="397"/>
      <point x="250" y="397" type="curve" smooth="yes"/>
      <point x="109" y="397"/>
      <point x="14" y="317"/>
      <point x="14" y="177" type="curve" smooth="yes"/>
      <point x="14" y="37"/>
      <point x="107" y="-45"/>
    </contour>
    <contour>
      <point x="250" y="74" type="curve" smooth="yes"/>
      <point x="200" y="74"/>
      <point x="164" y="97"/>
      <point x="164" y="176" type="curve" smooth="yes"/>
      <point x="164" y="255"/>
      <point x="200" y="278"/>
      <point x="250" y="278" type="curve" smooth="yes"/>
      <point x="300" y="278"/>
      <point x="336" y="255"/>
      <point x="336" y="176" type="curve" smooth="yes"/>
      <point x="336" y="97"/>
      <point x="300" y="74"/>
    </contour>
  </outline>
</glyph>
<glyph name="oneinferior" format="2">
  <advance width="314"/>
  <unicode hex="2081"/>
  <anchor x="158" y="171" name="_center"/>
  <outline>
    <contour>
      <point x="121" y="-40" type="line"/>
      <point x="271" y="-40" type="line"/>
      <point x="271" y="393" type="line"/>
      <point x="129" y="393" type="line"/>
      <point x="124" y="345"/>
      <point x="80" y="313"/>
      <point x="25" y="313" type="curve" smooth="yes"/>
      <point x="6" y="313" type="line"/>
      <point x="6" y="205" type="line"/>
      <point x="121" y="205" type="line"/>
    </contour>
  </outline>
</glyph>
<glyph name="twoinferior" format="2">
  <advance width="414"/>
  <unicode hex="2082"/>
  <anchor x="201" y="171" name="_center"/>
  <outline>
    <contour>
      <point x="12" y="-40" type="line"/>
      <point x="389" y="-40" type="line"/>
      <point x="389" y="72" type="line"/>
      <point x="212" y="72" type="line"/>
      <point x="257" y="91"/>
      <point x="388" y="137"/>
      <point x="388" y="253" type="curve" smooth="yes"/>
      <point x="388" y="340"/>
      <point x="323" y="397"/>
      <point x="211" y="397" type="curve" smooth="yes"/>
      <point x="94" y="397"/>
      <point x="28" y="348"/>
      <point x="14" y="237" type="curve"/>
      <point x="158" y="237" type="line"/>
      <point x="163" y="269"/>
      <point x="178" y="284"/>
      <point x="206" y="284" type="curve" smooth="yes"/>
      <point x="225" y="284"/>
      <point x="239" y="275"/>
      <point x="239" y="250" type="curve" smooth="yes"/>
      <point x="239" y="175"/>
      <point x="12" y="149"/>
      <point x="12" y="-19" type="curve" smooth="yes"/>
    </contour>
  </outline>
</glyph>
<glyph name="threeinferior" format="2">
  <advance width="439"/>
  <unicode hex="2083"/>
  <anchor x="216" y="171" name="_center"/>
  <outline>
    <contour>
      <point x="213" y="-46" type="curve" smooth="yes"/>
      <point x="350" y="-46"/>
      <point x="422" y="8"/>
      <point x="422" y="85" type="curve" smooth="yes"/>
      <point x="422" y="138"/>
      <point x="387" y="175"/>
      <point x="338" y="181" type="curve"/>
      <point x="338" y="186" type="line"/>
      <point x="387" y="198"/>
      <point x="413" y="234"/>
      <point x="413" y="277" type="curve" smooth="yes"/>
      <point x="413" y="352"/>
      <point x="345" y="398"/>
      <point x="221" y="398" type="curve" smooth="yes"/>
      <point x="101" y="398"/>
      <point x="25" y="356"/>
      <point x="16" y="256" type="curve"/>
      <point x="161" y="256" type="line"/>
      <point x="167" y="279"/>
      <point x="180" y="290"/>
      <point x="215" y="290" type="curve" smooth="yes"/>
      <point x="245" y="290"/>
      <point x="262" y="278"/>
      <point x="262" y="258" type="curve" smooth="yes"/>
      <point x="262" y="239"/>
      <point x="247" y="225"/>
      <point x="215" y="225" type="curve" smooth="yes"/>
      <point x="155" y="225" type="line"/>
      <point x="155" y="132" type="line"/>
      <point x="216" y="132" type="line" smooth="yes"/>
      <point x="254" y="132"/>
      <point x="271" y="119"/>
      <point x="271" y="100" type="curve" smooth="yes"/>
      <point x="271" y="76"/>
      <point x="252" y="62"/>
      <point x="215" y="62" type="curve" smooth="yes"/>
      <point x="182" y="62"/>
      <point x="162" y="72"/>
      <point x="158" y="97" type="curve"/>
      <point x="10" y="97" type="line"/>
      <point x="16" y="1"/>
      <point x="83" y="-46"/>
    </contour>
  </outline>
</glyph>
<glyph name="fourinferior" format="2">
  <advance width="442"/>
  <unicode hex="2084"/>
  <anchor x="221" y="171" name="_center"/>
  <outline>
    <contour>
      <point x="224" y="-40" type="line"/>
      <point x="373" y="-40" type="line"/>
      <point x="373" y="393" type="line"/>
      <point x="195" y="393" type="line"/>
      <point x="6" y="141" type="line"/>
      <point x="6" y="42" type="line"/>
      <point x="435" y="42" type="line"/>
      <point x="435" y="157" type="line"/>
      <point x="164" y="157" type="line"/>
      <point x="225" y="250" type="line"/>
      <point x="224" y="250" type="line"/>
    </contour>
  </outline>
</glyph>
<glyph name="fiveinferior" format="2">
  <advance width="449"/>
  <unicode hex="2085"/>
  <anchor x="228" y="171" name="_center"/>
  <outline>
    <contour>
      <point x="225" y="-46" type="curve" smooth="yes"/>
      <point x="340" y="-46"/>
      <point x="431" y="3"/>
      <point x="431" y="107" type="curve" smooth="yes"/>
      <point x="431" y="202"/>
      <point x="359" y="250"/>
      <point x="270" y="250" type="curve" smooth="yes"/>
      <point x="233" y="250"/>
      <point x="195" y="238"/>
      <point x="184" y="224" type="curve"/>
      <point x="178" y="226" type="line"/>
      <point x="183" y="276" type="line"/>
      <point x="409" y="276" type="line"/>
      <point x="409" y="393" type="line"/>
      <point x="47" y="393" type="line"/>
      <point x="32" y="118" type="line"/>
      <point x="168" y="118" type="line"/>
      <point x="177" y="135"/>
      <point x="201" y="147"/>
      <point x="229" y="147" type="curve" smooth="yes"/>
      <point x="259" y="147"/>
      <point x="280" y="132"/>
      <point x="280" y="107" type="curve" smooth="yes"/>
      <point x="280" y="82"/>
      <point x="262" y="65"/>
      <point x="227" y="65" type="curve" smooth="yes"/>
      <point x="201" y="65"/>
      <point x="181" y="69"/>
      <point x="175" y="91" type="curve"/>
      <point x="25" y="91" type="line"/>
      <point x="32" y="11"/>
      <point x="89" y="-46"/>
    </contour>
  </outline>
</glyph>
<glyph name="sixinferior" format="2">
  <advance width="461"/>
  <unicode hex="2086"/>
  <anchor x="231" y="171" name="_center"/>
  <outline>
    <contour>
      <point x="235" y="-45" type="curve" smooth="yes"/>
      <point x="361" y="-45"/>
      <point x="445" y="11"/>
      <point x="445" y="112" type="curve" smooth="yes"/>
      <point x="445" y="198"/>
      <point x="380" y="247"/>
      <point x="284" y="247" type="curve" smooth="yes"/>
      <point x="234" y="247"/>
      <point x="193" y="231"/>
      <point x="173" y="207" type="curve"/>
      <point x="166" y="208" type="line"/>
      <point x="168" y="262"/>
      <point x="197" y="286"/>
      <point x="239" y="286" type="curve" smooth="yes"/>
      <point x="267" y="286"/>
      <point x="282" y="282"/>
      <point x="293" y="268" type="curve"/>
      <point x="439" y="268" type="line"/>
      <point x="425" y="346"/>
      <point x="353" y="398"/>
      <point x="244" y="398" type="curve" smooth="yes"/>
      <point x="122" y="398"/>
      <point x="17" y="340"/>
      <point x="17" y="174" type="curve" smooth="yes"/>
      <point x="17" y="-3"/>
      <point x="125" y="-45"/>
    </contour>
    <contour>
      <point x="238" y="66" type="curve" smooth="yes"/>
      <point x="204" y="66"/>
      <point x="181" y="79"/>
      <point x="181" y="106" type="curve" smooth="yes"/>
      <point x="181" y="131"/>
      <point x="198" y="147"/>
      <point x="238" y="147" type="curve" smooth="yes"/>
      <point x="276" y="147"/>
      <point x="296" y="133"/>
      <point x="296" y="106" type="curve" smooth="yes"/>
      <point x="296" y="82"/>
      <point x="277" y="66"/>
    </contour>
  </outline>
</glyph>
<glyph name="seveninferior" format="2">
  <advance width="391"/>
  <unicode hex="2087"/>
  <anchor x="200.5" y="171" name="_center"/>
  <outline>
    <contour>
      <point x="96" y="-40" type="curve"/>
      <point x="242" y="-40" type="line"/>
      <point x="254" y="74"/>
      <point x="322" y="213"/>
      <point x="389" y="297" type="curve"/>
      <point x="389" y="393" type="line"/>
      <point x="12" y="393" type="line"/>
      <point x="12" y="214" type="line"/>
      <point x="122" y="214" type="line"/>
      <point x="122" y="276" type="line"/>
      <point x="240" y="276" type="line"/>
      <point x="165" y="189"/>
      <point x="109" y="73"/>
    </contour>
  </outline>
</glyph>
<glyph name="eightinferior" format="2">
  <advance width="448"/>
  <unicode hex="2088"/>
  <anchor x="224" y="171" name="_center"/>
  <outline>
    <contour>
      <point x="223" y="-45" type="curve" smooth="yes"/>
      <point x="368" y="-45"/>
      <point x="431" y="5"/>
      <point x="431" y="81" type="curve" smooth="yes"/>
      <point x="431" y="132"/>
      <point x="396" y="173"/>
      <point x="345" y="181" type="curve"/>
      <point x="345" y="185" type="line"/>
      <point x="390" y="195"/>
      <point x="421" y="228"/>
      <point x="421" y="277" type="curve" smooth="yes"/>
      <point x="421" y="365"/>
      <point x="335" y="398"/>
      <point x="223" y="398" type="curve" smooth="yes"/>
      <point x="113" y="398"/>
      <point x="27" y="365"/>
      <point x="27" y="277" type="curve" smooth="yes"/>
      <point x="27" y="230"/>
      <point x="56" y="195"/>
      <point x="103" y="185" type="curve"/>
      <point x="103" y="181" type="line"/>
      <point x="49" y="173"/>
      <point x="17" y="130"/>
      <point x="17" y="81" type="curve" smooth="yes"/>
      <point x="17" y="4"/>
      <point x="81" y="-45"/>
    </contour>
    <contour>
      <point x="223" y="63" type="curve" smooth="yes"/>
      <point x="192" y="63"/>
      <point x="169" y="73"/>
      <point x="169" y="97" type="curve" smooth="yes"/>
      <point x="169" y="117"/>
      <point x="183" y="132"/>
      <point x="223" y="132" type="curve" smooth="yes"/>
      <point x="264" y="132"/>
      <point x="279" y="117"/>
      <point x="279" y="97" type="curve" smooth="yes"/>
      <point x="279" y="73"/>
      <point x="256" y="63"/>
    </contour>
    <contour>
      <point x="223" y="225" type="curve" smooth="yes"/>
      <point x="192" y="225"/>
      <point x="176" y="238"/>
      <point x="176" y="258" type="curve" smooth="yes"/>
      <point x="176" y="277"/>
      <point x="192" y="289"/>
      <point x="223" y="289" type="curve" smooth="yes"/>
      <point x="255" y="289"/>
      <point x="272" y="277"/>
      <point x="272" y="258" type="curve" smooth="yes"/>
      <point x="272" y="237"/>
      <point x="256" y="225"/>
    </contour>
  </outline>
</glyph>
<glyph name="peseta" format="2">
  <advance width="1856"/>
  <unicode hex="20A7"/>
  <outline>
    <contour>
      <point x="55" y="0" type="line"/>
      <point x="284" y="0" type="line"/>
      <point x="284" y="599" type="line"/>
      <point x="239" y="554" type="line"/>
      <point x="377" y="554" type="line" smooth="yes"/>
      <point x="424" y="554"/>
      <point x="461" y="538"/>
      <point x="461" y="476" type="curve" smooth="yes"/>
      <point x="461" y="425"/>
      <point x="438" y="397"/>
      <point x="377" y="397" type="curve" smooth="yes"/>
      <point x="268" y="397" type="line"/>
      <point x="268" y="239" type="line"/>
      <point x="402" y="239" type="line" smooth="yes"/>
      <point x="575" y="239"/>
      <point x="691" y="308"/>
      <point x="691" y="484" type="curve" smooth="yes"/>
      <point x="691" y="631"/>
      <point x="610" y="729"/>
      <point x="402" y="729" type="curve" smooth="yes"/>
      <point x="55" y="729" type="line"/>
    </contour>
    <contour>
      <point x="1000" y="0" type="curve" smooth="yes"/>
      <point x="1182" y="0" type="line"/>
      <point x="1182" y="186" type="line"/>
      <point x="1094" y="186" type="line" smooth="yes"/>
      <point x="1065" y="186"/>
      <point x="1053" y="195"/>
      <point x="1053" y="223" type="curve" smooth="yes"/>
      <point x="1053" y="379" type="line"/>
      <point x="1182" y="379" type="line"/>
      <point x="1182" y="544" type="line"/>
      <point x="1053" y="544" type="line"/>
      <point x="1053" y="710" type="line"/>
      <point x="836" y="669" type="line"/>
      <point x="836" y="544" type="line"/>
      <point x="743" y="544" type="line"/>
      <point x="743" y="379" type="line"/>
      <point x="836" y="379" type="line"/>
      <point x="836" y="150" type="line" smooth="yes"/>
      <point x="836" y="48"/>
      <point x="902" y="0"/>
    </contour>
    <contour>
      <point x="1535" y="-10" type="curve" smooth="yes"/>
      <point x="1744" y="-10"/>
      <point x="1841" y="62"/>
      <point x="1841" y="172" type="curve" smooth="yes"/>
      <point x="1841" y="292"/>
      <point x="1774" y="330"/>
      <point x="1571" y="347" type="curve" smooth="yes"/>
      <point x="1489" y="354"/>
      <point x="1460" y="358"/>
      <point x="1460" y="387" type="curve" smooth="yes"/>
      <point x="1460" y="414"/>
      <point x="1490" y="425"/>
      <point x="1538" y="425" type="curve" smooth="yes"/>
      <point x="1581" y="425"/>
      <point x="1609" y="409"/>
      <point x="1615" y="377" type="curve"/>
      <point x="1823" y="377" type="line"/>
      <point x="1810" y="493"/>
      <point x="1699" y="554"/>
      <point x="1539" y="554" type="curve" smooth="yes"/>
      <point x="1350" y="554"/>
      <point x="1246" y="479"/>
      <point x="1246" y="368" type="curve" smooth="yes"/>
      <point x="1246" y="256"/>
      <point x="1319" y="218"/>
      <point x="1523" y="199" type="curve" smooth="yes"/>
      <point x="1602" y="193"/>
      <point x="1624" y="189"/>
      <point x="1624" y="158" type="curve" smooth="yes"/>
      <point x="1624" y="133"/>
      <point x="1597" y="119"/>
      <point x="1542" y="119" type="curve" smooth="yes"/>
      <point x="1479" y="119"/>
      <point x="1450" y="136"/>
      <point x="1444" y="174" type="curve"/>
      <point x="1228" y="174" type="line"/>
      <point x="1238" y="60"/>
      <point x="1339" y="-10"/>
    </contour>
  </outline>
</glyph>
<glyph name="won" format="2">
  <advance width="1096"/>
  <unicode hex="20A9"/>
  <outline>
    <contour>
      <point x="199" y="0" type="line"/>
      <point x="511" y="0" type="line"/>
      <point x="530" y="363" type="line"/>
      <point x="542" y="573" type="line"/>
      <point x="556" y="573" type="line"/>
      <point x="571" y="363" type="line"/>
      <point x="597" y="0" type="line"/>
      <point x="908" y="0" type="line"/>
      <point x="1071" y="729" type="line"/>
      <point x="839" y="729" type="line"/>
      <point x="788" y="385" type="line"/>
      <point x="758" y="174" type="line"/>
      <point x="742" y="174" type="line"/>
      <point x="727" y="385" type="line"/>
      <point x="704" y="729" type="line"/>
      <point x="399" y="729" type="line"/>
      <point x="376" y="386" type="line"/>
      <point x="361" y="174" type="line"/>
      <point x="343" y="174" type="line"/>
      <point x="313" y="385" type="line"/>
      <point x="264" y="729" type="line"/>
      <point x="24" y="729" type="line"/>
    </contour>
    <contour>
      <point x="22" y="287" type="line"/>
      <point x="1073" y="287" type="line"/>
      <point x="1073" y="435" type="line"/>
      <point x="22" y="435" type="line"/>
    </contour>
  </outline>
</glyph>
<glyph name="sheqel" format="2">
  <advance width="881"/>
  <unicode hex="20AA"/>
  <outline>
    <contour>
      <point x="293" y="0" type="line"/>
      <point x="671" y="0" type="line" smooth="yes"/>
      <point x="766" y="0"/>
      <point x="830" y="49"/>
      <point x="830" y="153" type="curve" smooth="yes"/>
      <point x="830" y="729" type="line"/>
      <point x="629" y="729" type="line"/>
      <point x="629" y="165" type="line"/>
      <point x="424" y="165" type="line"/>
      <point x="424" y="528" type="line"/>
      <point x="293" y="528" type="line"/>
    </contour>
    <contour>
      <point x="55" y="0" type="line"/>
      <point x="256" y="0" type="line"/>
      <point x="256" y="565" type="line"/>
      <point x="461" y="565" type="line"/>
      <point x="461" y="202" type="line"/>
      <point x="591" y="202" type="line"/>
      <point x="591" y="602" type="line" smooth="yes"/>
      <point x="591" y="678"/>
      <point x="551" y="729"/>
      <point x="467" y="729" type="curve" smooth="yes"/>
      <point x="55" y="729" type="line"/>
    </contour>
  </outline>
</glyph>
<glyph name="euro" format="2">
  <advance width="922"/>
  <unicode hex="20AC"/>
  <outline>
    <contour>
      <point x="510" y="-10" type="curve" smooth="yes"/>
      <point x="722" y="-10"/>
      <point x="888" y="97"/>
      <point x="907" y="260" type="curve"/>
      <point x="673" y="260" type="line"/>
      <point x="657" y="207"/>
      <point x="589" y="174"/>
      <point x="510" y="174" type="curve" smooth="yes"/>
      <point x="396" y="174"/>
      <point x="321" y="232"/>
      <point x="321" y="365" type="curve" smooth="yes"/>
      <point x="321" y="498"/>
      <point x="396" y="556"/>
      <point x="510" y="556" type="curve" smooth="yes"/>
      <point x="591" y="556"/>
      <point x="654" y="521"/>
      <point x="671" y="470" type="curve"/>
      <point x="907" y="470" type="line"/>
      <point x="888" y="630"/>
      <point x="743" y="739"/>
      <point x="510" y="739" type="curve" smooth="yes"/>
      <point x="238" y="739"/>
      <point x="84" y="592"/>
      <point x="84" y="365" type="curve" smooth="yes"/>
      <point x="84" y="138"/>
      <point x="238" y="-10"/>
    </contour>
    <contour>
      <point x="21" y="237" type="line"/>
      <point x="536" y="237" type="line"/>
      <point x="551" y="341" type="line"/>
      <point x="21" y="341" type="line"/>
    </contour>
    <contour>
      <point x="21" y="388" type="line"/>
      <point x="558" y="388" type="line"/>
      <point x="573" y="491" type="line"/>
      <point x="21" y="491" type="line"/>
    </contour>
  </outline>
</glyph>
<glyph name="tenge" format="2">
  <advance width="688"/>
  <unicode hex="20B8"/>
  <outline>
    <contour>
      <point x="235" y="357" type="line"/>
      <point x="235" y="0" type="line"/>
      <point x="448" y="0" type="line"/>
      <point x="448" y="357" type="line"/>
    </contour>
    <contour>
      <point x="660" y="342" type="line"/>
      <point x="660" y="502" type="line"/>
      <point x="28" y="502" type="line"/>
      <point x="28" y="342" type="line"/>
    </contour>
    <contour>
      <point x="660" y="559" type="line"/>
      <point x="660" y="729" type="line"/>
      <point x="28" y="729" type="line"/>
      <point x="28" y="559" type="line"/>
    </contour>
  </outline>
</glyph>
<glyph name="rupeeIndian" format="2">
  <advance width="663"/>
  <unicode hex="20B9"/>
  <outline>
    <contour>
      <point x="320" y="0" type="line"/>
      <point x="572" y="0" type="line"/>
      <point x="517" y="175" type="line" smooth="yes"/>
      <point x="492" y="253"/>
      <point x="465" y="289"/>
      <point x="398" y="305" type="curve"/>
      <point x="398" y="313" type="line"/>
      <point x="474" y="325"/>
      <point x="531" y="362"/>
      <point x="551" y="423" type="curve"/>
      <point x="642" y="423" type="line"/>
      <point x="642" y="539" type="line"/>
      <point x="553" y="539" type="line"/>
      <point x="547" y="565"/>
      <point x="526" y="592"/>
      <point x="500" y="606" type="curve"/>
      <point x="500" y="613" type="line"/>
      <point x="642" y="613" type="line"/>
      <point x="642" y="729" type="line"/>
      <point x="36" y="729" type="line"/>
      <point x="36" y="577" type="line"/>
      <point x="205" y="577" type="line" smooth="yes"/>
      <point x="263" y="577"/>
      <point x="302" y="562"/>
      <point x="311" y="529" type="curve"/>
      <point x="36" y="529" type="line"/>
      <point x="36" y="433" type="line"/>
      <point x="310" y="433" type="line"/>
      <point x="301" y="404"/>
      <point x="267" y="384"/>
      <point x="206" y="384" type="curve" smooth="yes"/>
      <point x="36" y="384" type="line"/>
      <point x="36" y="244" type="line"/>
      <point x="155" y="244" type="line" smooth="yes"/>
      <point x="218" y="244"/>
      <point x="242" y="230"/>
      <point x="267" y="156" type="curve" smooth="yes"/>
    </contour>
  </outline>
</glyph>
<glyph name="liraTurkish" format="2">
  <advance width="791"/>
  <unicode hex="20BA"/>
  <outline>
    <contour>
      <point x="107" y="0" type="line"/>
      <point x="289" y="0" type="line" smooth="yes"/>
      <point x="561" y="0"/>
      <point x="760" y="93"/>
      <point x="783" y="362" type="curve"/>
      <point x="543" y="362" type="line"/>
      <point x="531" y="271"/>
      <point x="480" y="210"/>
      <point x="329" y="208" type="curve"/>
      <point x="329" y="729" type="line"/>
      <point x="107" y="729" type="line"/>
    </contour>
    <contour>
      <point x="30" y="192" type="line"/>
      <point x="487" y="350" type="line"/>
      <point x="487" y="509" type="line"/>
      <point x="30" y="351" type="line"/>
    </contour>
    <contour>
      <point x="30" y="408" type="line"/>
      <point x="487" y="566" type="line"/>
      <point x="487" y="725" type="line"/>
      <point x="30" y="567" type="line"/>
    </contour>
  </outline>
</glyph>
<glyph name="literSign" format="2">
  <advance width="556"/>
  <unicode hex="2113"/>
  <outline>
    <contour>
      <point x="308" y="-8" type="curve" smooth="yes"/>
      <point x="417" y="-8"/>
      <point x="511" y="52"/>
      <point x="544" y="136" type="curve"/>
      <point x="401" y="199" type="line"/>
      <point x="387" y="166"/>
      <point x="355" y="147"/>
      <point x="325" y="147" type="curve" smooth="yes"/>
      <point x="275" y="147"/>
      <point x="253" y="191"/>
      <point x="253" y="380" type="curve" smooth="yes"/>
      <point x="253" y="521"/>
      <point x="278" y="559"/>
      <point x="315" y="559" type="curve" smooth="yes"/>
      <point x="335" y="559"/>
      <point x="346" y="542"/>
      <point x="346" y="517" type="curve" smooth="yes"/>
      <point x="346" y="400"/>
      <point x="213" y="298"/>
      <point x="13" y="263" type="curve"/>
      <point x="13" y="130" type="line"/>
      <point x="340" y="174"/>
      <point x="522" y="336"/>
      <point x="522" y="534" type="curve" smooth="yes"/>
      <point x="522" y="655"/>
      <point x="454" y="739"/>
      <point x="334" y="739" type="curve" smooth="yes"/>
      <point x="159" y="739"/>
      <point x="61" y="590"/>
      <point x="61" y="367" type="curve" smooth="yes"/>
      <point x="61" y="147"/>
      <point x="124" y="-8"/>
    </contour>
  </outline>
</glyph>
<glyph name="numero" format="2">
  <advance width="1430"/>
  <unicode hex="2116"/>
  <outline>
    <contour>
      <point x="55" y="0" type="line"/>
      <point x="286" y="0" type="line"/>
      <point x="286" y="226" type="line"/>
      <point x="279" y="424" type="line"/>
      <point x="288" y="424" type="line"/>
      <point x="570" y="0" type="line"/>
      <point x="842" y="0" type="line"/>
      <point x="842" y="729" type="line"/>
      <point x="615" y="729" type="line"/>
      <point x="615" y="504" type="line"/>
      <point x="621" y="299" type="line"/>
      <point x="613" y="299" type="line"/>
      <point x="331" y="729" type="line"/>
      <point x="55" y="729" type="line"/>
    </contour>
    <contour>
      <point x="922" y="139" type="line"/>
      <point x="1381" y="139" type="line"/>
      <point x="1381" y="255" type="line"/>
      <point x="922" y="255" type="line"/>
    </contour>
    <contour>
      <point x="1150" y="300" type="curve" smooth="yes"/>
      <point x="1308" y="300"/>
      <point x="1411" y="381"/>
      <point x="1411" y="519" type="curve" smooth="yes"/>
      <point x="1411" y="656"/>
      <point x="1310" y="739"/>
      <point x="1152" y="739" type="curve" smooth="yes"/>
      <point x="995" y="739"/>
      <point x="891" y="658"/>
      <point x="891" y="519" type="curve" smooth="yes"/>
      <point x="891" y="384"/>
      <point x="991" y="300"/>
    </contour>
    <contour>
      <point x="1151" y="439" type="curve" smooth="yes"/>
      <point x="1114" y="439"/>
      <point x="1084" y="452"/>
      <point x="1084" y="519" type="curve" smooth="yes"/>
      <point x="1084" y="588"/>
      <point x="1114" y="601"/>
      <point x="1152" y="601" type="curve" smooth="yes"/>
      <point x="1186" y="601"/>
      <point x="1219" y="588"/>
      <point x="1219" y="519" type="curve" smooth="yes"/>
      <point x="1219" y="452"/>
      <point x="1189" y="439"/>
    </contour>
  </outline>
</glyph>
<glyph name="trademark" format="2">
  <advance width="915"/>
  <unicode hex="2122"/>
  <outline>
    <contour>
      <point x="383" y="415" type="line"/>
      <point x="505" y="415" type="line"/>
      <point x="505" y="500" type="line"/>
      <point x="504" y="579" type="line"/>
      <point x="507" y="579" type="line"/>
      <point x="573" y="415" type="line"/>
      <point x="670" y="415" type="line"/>
      <point x="736" y="579" type="line"/>
      <point x="739" y="579" type="line"/>
      <point x="739" y="500" type="line"/>
      <point x="739" y="415" type="line"/>
      <point x="860" y="415" type="line"/>
      <point x="860" y="729" type="line"/>
      <point x="686" y="729" type="line"/>
      <point x="625" y="574" type="line"/>
      <point x="621" y="574" type="line"/>
      <point x="558" y="729" type="line"/>
      <point x="383" y="729" type="line"/>
    </contour>
    <contour>
      <point x="117" y="415" type="line"/>
      <point x="247" y="415" type="line"/>
      <point x="247" y="619" type="line"/>
      <point x="343" y="619" type="line"/>
      <point x="343" y="729" type="line"/>
      <point x="22" y="729" type="line"/>
      <point x="22" y="619" type="line"/>
      <point x="117" y="619" type="line"/>
    </contour>
  </outline>
</glyph>
<glyph name="leftArrow" format="2">
  <advance width="670"/>
  <unicode hex="2190"/>
  <outline>
    <contour>
      <point x="627" y="460" type="line"/>
      <point x="290" y="460" type="line"/>
      <point x="381" y="605" type="line"/>
      <point x="189" y="605" type="line"/>
      <point x="38" y="365" type="line"/>
      <point x="189" y="125" type="line"/>
      <point x="381" y="125" type="line"/>
      <point x="290" y="270" type="line"/>
      <point x="627" y="270" type="line"/>
    </contour>
  </outline>
</glyph>
<glyph name="upArrow" format="2">
  <advance width="545"/>
  <unicode hex="2191"/>
  <outline>
    <contour>
      <point x="177" y="75" type="line"/>
      <point x="367" y="75" type="line"/>
      <point x="367" y="412" type="line"/>
      <point x="512" y="321" type="line"/>
      <point x="512" y="513" type="line"/>
      <point x="272" y="664" type="line"/>
      <point x="32" y="513" type="line"/>
      <point x="32" y="321" type="line"/>
      <point x="177" y="412" type="line"/>
    </contour>
  </outline>
</glyph>
<glyph name="rightArrow" format="2">
  <advance width="670"/>
  <unicode hex="2192"/>
  <outline>
    <contour>
      <point x="43" y="460" type="line"/>
      <point x="43" y="270" type="line"/>
      <point x="380" y="270" type="line"/>
      <point x="289" y="125" type="line"/>
      <point x="481" y="125" type="line"/>
      <point x="632" y="365" type="line"/>
      <point x="481" y="605" type="line"/>
      <point x="289" y="605" type="line"/>
      <point x="380" y="460" type="line"/>
    </contour>
  </outline>
</glyph>
<glyph name="downArrow" format="2">
  <advance width="545"/>
  <unicode hex="2193"/>
  <outline>
    <contour>
      <point x="177" y="654" type="line"/>
      <point x="177" y="317" type="line"/>
      <point x="32" y="408" type="line"/>
      <point x="32" y="216" type="line"/>
      <point x="272" y="65" type="line"/>
      <point x="512" y="216" type="line"/>
      <point x="512" y="408" type="line"/>
      <point x="367" y="317" type="line"/>
      <point x="367" y="654" type="line"/>
    </contour>
  </outline>
</glyph>
<glyph name="leftRightArrow" format="2">
  <advance width="829"/>
  <unicode hex="2194"/>
  <outline>
    <contour>
      <point x="171" y="125" type="line"/>
      <point x="363" y="125" type="line"/>
      <point x="272" y="270" type="line"/>
      <point x="557" y="270" type="line"/>
      <point x="466" y="125" type="line"/>
      <point x="658" y="125" type="line"/>
      <point x="809" y="365" type="line"/>
      <point x="658" y="605" type="line"/>
      <point x="466" y="605" type="line"/>
      <point x="557" y="460" type="line"/>
      <point x="272" y="460" type="line"/>
      <point x="363" y="605" type="line"/>
      <point x="171" y="605" type="line"/>
      <point x="20" y="365" type="line"/>
    </contour>
  </outline>
</glyph>
<glyph name="emptyset" format="2">
  <advance width="730"/>
  <unicode hex="2205"/>
  <outline>
    <contour>
      <point x="365" y="0" type="curve" smooth="yes"/>
      <point x="569" y="0"/>
      <point x="723" y="149"/>
      <point x="723" y="366" type="curve" smooth="yes"/>
      <point x="723" y="579"/>
      <point x="569" y="729"/>
      <point x="365" y="729" type="curve" smooth="yes"/>
      <point x="161" y="729"/>
      <point x="7" y="580"/>
      <point x="7" y="366" type="curve" smooth="yes"/>
      <point x="7" y="149"/>
      <point x="161" y="0"/>
    </contour>
    <contour>
      <point x="365" y="71" type="curve" smooth="yes"/>
      <point x="270" y="71"/>
      <point x="186" y="116"/>
      <point x="135" y="189" type="curve"/>
      <point x="625" y="488" type="line"/>
      <point x="640" y="451"/>
      <point x="648" y="410"/>
      <point x="648" y="366" type="curve" smooth="yes"/>
      <point x="648" y="193"/>
      <point x="525" y="71"/>
    </contour>
    <contour>
      <point x="103" y="249" type="line"/>
      <point x="90" y="284"/>
      <point x="82" y="324"/>
      <point x="82" y="366" type="curve" smooth="yes"/>
      <point x="82" y="538"/>
      <point x="207" y="658"/>
      <point x="365" y="658" type="curve" smooth="yes"/>
      <point x="459" y="658"/>
      <point x="539" y="617"/>
      <point x="591" y="548" type="curve"/>
    </contour>
  </outline>
</glyph>
<glyph name="product" format="2">
  <advance width="832"/>
  <unicode hex="220F"/>
  <outline>
    <contour>
      <point x="43" y="-151" type="line"/>
      <point x="272" y="-151" type="line"/>
      <point x="272" y="532" type="line"/>
      <point x="559" y="532" type="line"/>
      <point x="559" y="-151" type="line"/>
      <point x="789" y="-151" type="line"/>
      <point x="789" y="729" type="line"/>
      <point x="43" y="729" type="line"/>
    </contour>
  </outline>
</glyph>
<glyph name="summation" format="2">
  <advance width="673"/>
  <unicode hex="2211"/>
  <outline>
    <contour>
      <point x="16" y="-151" type="line"/>
      <point x="659" y="-151" type="line"/>
      <point x="659" y="48" type="line"/>
      <point x="483" y="48" type="line"/>
      <point x="318" y="46" type="line"/>
      <point x="318" y="56" type="line"/>
      <point x="565" y="289" type="line"/>
      <point x="318" y="522" type="line"/>
      <point x="318" y="532" type="line"/>
      <point x="483" y="530" type="line"/>
      <point x="659" y="530" type="line"/>
      <point x="659" y="729" type="line"/>
      <point x="16" y="729" type="line"/>
      <point x="16" y="518" type="line"/>
      <point x="247" y="302" type="line"/>
      <point x="247" y="276" type="line"/>
      <point x="16" y="60" type="line"/>
    </contour>
  </outline>
</glyph>
<glyph name="minus" format="2">
  <advance width="720"/>
  <unicode hex="2212"/>
  <outline>
    <contour>
      <point x="110" y="274" type="line"/>
      <point x="611" y="274" type="line"/>
      <point x="611" y="448" type="line"/>
      <point x="110" y="448" type="line"/>
    </contour>
  </outline>
</glyph>
<glyph name="radical" format="2">
  <advance width="839"/>
  <unicode hex="221A"/>
  <outline>
    <contour>
      <point x="230" y="-151" type="line"/>
      <point x="557" y="-151" type="line"/>
      <point x="850" y="729" type="line"/>
      <point x="593" y="729" type="line"/>
      <point x="400" y="80" type="line"/>
      <point x="390" y="80" type="line"/>
      <point x="297" y="456" type="line"/>
      <point x="1" y="456" type="line"/>
      <point x="1" y="239" type="line"/>
      <point x="108" y="239" type="line"/>
    </contour>
  </outline>
</glyph>
<glyph name="infinity" format="2">
  <advance width="920"/>
  <unicode hex="221E"/>
  <outline>
    <contour>
      <point x="255" y="107" type="curve" smooth="yes"/>
      <point x="344" y="107"/>
      <point x="417" y="152"/>
      <point x="459" y="222" type="curve"/>
      <point x="503" y="151"/>
      <point x="575" y="107"/>
      <point x="663" y="107" type="curve" smooth="yes"/>
      <point x="809" y="107"/>
      <point x="908" y="208"/>
      <point x="908" y="361" type="curve" smooth="yes"/>
      <point x="908" y="517"/>
      <point x="808" y="622"/>
      <point x="662" y="622" type="curve" smooth="yes"/>
      <point x="572" y="622"/>
      <point x="500" y="567"/>
      <point x="459" y="500" type="curve"/>
      <point x="416" y="571"/>
      <point x="342" y="622"/>
      <point x="257" y="622" type="curve" smooth="yes"/>
      <point x="111" y="622"/>
      <point x="12" y="517"/>
      <point x="12" y="361" type="curve" smooth="yes"/>
      <point x="12" y="208"/>
      <point x="111" y="107"/>
    </contour>
    <contour>
      <point x="270" y="299" type="curve" smooth="yes"/>
      <point x="229" y="299"/>
      <point x="207" y="331"/>
      <point x="207" y="366" type="curve" smooth="yes"/>
      <point x="207" y="401"/>
      <point x="230" y="431"/>
      <point x="270" y="431" type="curve" smooth="yes"/>
      <point x="314" y="431"/>
      <point x="350" y="394"/>
      <point x="367" y="366" type="curve"/>
      <point x="343" y="328"/>
      <point x="308" y="299"/>
    </contour>
    <contour>
      <point x="648" y="299" type="curve" smooth="yes"/>
      <point x="606" y="299"/>
      <point x="571" y="335"/>
      <point x="553" y="366" type="curve"/>
      <point x="568" y="393"/>
      <point x="604" y="431"/>
      <point x="648" y="431" type="curve" smooth="yes"/>
      <point x="687" y="431"/>
      <point x="711" y="401"/>
      <point x="711" y="366" type="curve" smooth="yes"/>
      <point x="711" y="332"/>
      <point x="688" y="299"/>
    </contour>
  </outline>
</glyph>
<glyph name="integral" format="2">
  <advance width="502"/>
  <unicode hex="222B"/>
  <outline>
    <contour>
      <point x="-4" y="-151" type="line"/>
      <point x="196" y="-151" type="line" smooth="yes"/>
      <point x="302" y="-151"/>
      <point x="363" y="-86"/>
      <point x="363" y="16" type="curve" smooth="yes"/>
      <point x="363" y="560" type="line"/>
      <point x="506" y="560" type="line"/>
      <point x="506" y="729" type="line"/>
      <point x="305" y="729" type="line" smooth="yes"/>
      <point x="199" y="729"/>
      <point x="138" y="663"/>
      <point x="138" y="562" type="curve" smooth="yes"/>
      <point x="138" y="17" type="line"/>
      <point x="-4" y="17" type="line"/>
    </contour>
  </outline>
</glyph>
<glyph name="approxequal" format="2">
  <advance width="720"/>
  <unicode hex="2248"/>
  <outline>
    <contour>
      <point x="466" y="129" type="curve" smooth="yes"/>
      <point x="537" y="129"/>
      <point x="629" y="177"/>
      <point x="618" y="351" type="curve"/>
      <point x="516" y="351" type="line"/>
      <point x="515" y="324"/>
      <point x="497" y="293"/>
      <point x="452" y="293" type="curve" smooth="yes"/>
      <point x="380" y="293"/>
      <point x="342" y="358"/>
      <point x="250" y="358" type="curve" smooth="yes"/>
      <point x="163" y="358"/>
      <point x="91" y="291"/>
      <point x="102" y="141" type="curve"/>
      <point x="204" y="141" type="line"/>
      <point x="201" y="162"/>
      <point x="216" y="199"/>
      <point x="257" y="199" type="curve" smooth="yes"/>
      <point x="315" y="199"/>
      <point x="357" y="129"/>
    </contour>
    <contour>
      <point x="466" y="373" type="curve" smooth="yes"/>
      <point x="537" y="373"/>
      <point x="629" y="421"/>
      <point x="618" y="595" type="curve"/>
      <point x="516" y="595" type="line"/>
      <point x="515" y="568"/>
      <point x="497" y="537"/>
      <point x="452" y="537" type="curve" smooth="yes"/>
      <point x="380" y="537"/>
      <point x="342" y="602"/>
      <point x="250" y="602" type="curve" smooth="yes"/>
      <point x="163" y="602"/>
      <point x="91" y="535"/>
      <point x="102" y="385" type="curve"/>
      <point x="204" y="385" type="line"/>
      <point x="201" y="406"/>
      <point x="216" y="443"/>
      <point x="257" y="443" type="curve" smooth="yes"/>
      <point x="315" y="443"/>
      <point x="357" y="373"/>
    </contour>
  </outline>
</glyph>
<glyph name="notequal" format="2">
  <advance width="720"/>
  <unicode hex="2260"/>
  <outline>
    <contour>
      <point x="155" y="51" type="line"/>
      <point x="276" y="51" type="line"/>
      <point x="566" y="680" type="line"/>
      <point x="446" y="680" type="line"/>
    </contour>
    <contour>
      <point x="110" y="137" type="line"/>
      <point x="611" y="137" type="line"/>
      <point x="611" y="311" type="line"/>
      <point x="110" y="311" type="line"/>
    </contour>
    <contour>
      <point x="110" y="411" type="line"/>
      <point x="611" y="411" type="line"/>
      <point x="611" y="585" type="line"/>
      <point x="110" y="585" type="line"/>
    </contour>
  </outline>
</glyph>
<glyph name="lessequal" format="2">
  <advance width="720"/>
  <unicode hex="2264"/>
  <outline>
    <contour>
      <point x="626" y="170" type="line"/>
      <point x="626" y="354" type="line"/>
      <point x="288" y="419" type="line"/>
      <point x="288" y="429" type="line"/>
      <point x="626" y="488" type="line"/>
      <point x="626" y="673" type="line"/>
      <point x="81" y="537" type="line"/>
      <point x="81" y="310" type="line"/>
    </contour>
    <contour>
      <point x="81" y="0" type="line"/>
      <point x="626" y="0" type="line"/>
      <point x="626" y="143" type="line"/>
      <point x="81" y="143" type="line"/>
    </contour>
  </outline>
</glyph>
<glyph name="greaterequal" format="2">
  <advance width="720"/>
  <unicode hex="2265"/>
  <outline>
    <contour>
      <point x="94" y="170" type="line"/>
      <point x="639" y="310" type="line"/>
      <point x="639" y="537" type="line"/>
      <point x="94" y="673" type="line"/>
      <point x="94" y="488" type="line"/>
      <point x="432" y="429" type="line"/>
      <point x="432" y="419" type="line"/>
      <point x="94" y="354" type="line"/>
    </contour>
    <contour>
      <point x="94" y="0" type="line"/>
      <point x="639" y="0" type="line"/>
      <point x="639" y="143" type="line"/>
      <point x="94" y="143" type="line"/>
    </contour>
  </outline>
</glyph>
<glyph name="whiteCircle" format="2">
  <advance width="860"/>
  <unicode hex="25CB"/>
  <anchor x="430" y="364" name="center"/>
  <outline>
    <contour>
      <point x="430" y="-11" type="curve" smooth="yes"/>
      <point x="659" y="-11"/>
      <point x="820" y="135"/>
      <point x="820" y="364" type="curve" smooth="yes"/>
      <point x="820" y="593"/>
      <point x="659" y="739"/>
      <point x="430" y="739" type="curve" smooth="yes"/>
      <point x="202" y="739"/>
      <point x="40" y="593"/>
      <point x="40" y="364" type="curve" smooth="yes"/>
      <point x="40" y="135"/>
      <point x="202" y="-11"/>
    </contour>
    <contour>
      <point x="430" y="67" type="curve" smooth="yes"/>
      <point x="250" y="67"/>
      <point x="122" y="181"/>
      <point x="122" y="364" type="curve" smooth="yes"/>
      <point x="122" y="547"/>
      <point x="250" y="661"/>
      <point x="430" y="661" type="curve" smooth="yes"/>
      <point x="611" y="661"/>
      <point x="738" y="547"/>
      <point x="738" y="364" type="curve" smooth="yes"/>
      <point x="738" y="181"/>
      <point x="611" y="67"/>
    </contour>
  </outline>
</glyph>
<glyph name="blackCircle" format="2">
  <advance width="860"/>
  <unicode hex="25CF"/>
  <anchor x="430" y="364" name="center"/>
  <outline>
    <contour>
      <point x="430" y="-11" type="curve" smooth="yes"/>
      <point x="202" y="-11"/>
      <point x="40" y="135"/>
      <point x="40" y="364" type="curve" smooth="yes"/>
      <point x="40" y="593"/>
      <point x="202" y="739"/>
      <point x="430" y="739" type="curve" smooth="yes"/>
      <point x="659" y="739"/>
      <point x="820" y="593"/>
      <point x="820" y="364" type="curve" smooth="yes"/>
      <point x="820" y="135"/>
      <point x="659" y="-11"/>
    </contour>
  </outline>
</glyph>
<glyph name="whiteFrowningFace" format="2">
  <advance width="838"/>
  <unicode hex="2639"/>
  <outline>
    <contour>
      <point x="419" y="-10" type="curve" smooth="yes"/>
      <point x="637" y="-10"/>
      <point x="798" y="143"/>
      <point x="798" y="367" type="curve" smooth="yes"/>
      <point x="798" y="585"/>
      <point x="637" y="739"/>
      <point x="419" y="739" type="curve" smooth="yes"/>
      <point x="201" y="739"/>
      <point x="40" y="586"/>
      <point x="40" y="367" type="curve" smooth="yes"/>
      <point x="40" y="143"/>
      <point x="201" y="-10"/>
    </contour>
    <contour>
      <point x="199" y="191" type="curve"/>
      <point x="262" y="191" type="line"/>
      <point x="290" y="235"/>
      <point x="349" y="265"/>
      <point x="419" y="265" type="curve" smooth="yes"/>
      <point x="485" y="265"/>
      <point x="546" y="238"/>
      <point x="576" y="191" type="curve"/>
      <point x="639" y="191" type="line"/>
      <point x="610" y="275"/>
      <point x="521" y="322"/>
      <point x="419" y="322" type="curve" smooth="yes"/>
      <point x="317" y="322"/>
      <point x="228" y="275"/>
    </contour>
    <contour>
      <point x="419" y="63" type="curve" smooth="yes"/>
      <point x="238" y="63"/>
      <point x="117" y="185"/>
      <point x="117" y="367" type="curve" smooth="yes"/>
      <point x="117" y="546"/>
      <point x="238" y="666"/>
      <point x="419" y="666" type="curve" smooth="yes"/>
      <point x="600" y="666"/>
      <point x="721" y="546"/>
      <point x="721" y="367" type="curve" smooth="yes"/>
      <point x="721" y="185"/>
      <point x="600" y="63"/>
    </contour>
    <contour>
      <point x="337" y="403" type="curve" smooth="yes"/>
      <point x="367" y="403"/>
      <point x="390" y="424"/>
      <point x="390" y="454" type="curve" smooth="yes"/>
      <point x="390" y="484"/>
      <point x="367" y="505"/>
      <point x="337" y="505" type="curve" smooth="yes"/>
      <point x="307" y="505"/>
      <point x="283" y="484"/>
      <point x="283" y="454" type="curve" smooth="yes"/>
      <point x="283" y="424"/>
      <point x="307" y="403"/>
    </contour>
    <contour>
      <point x="503" y="403" type="curve" smooth="yes"/>
      <point x="533" y="403"/>
      <point x="556" y="424"/>
      <point x="556" y="454" type="curve" smooth="yes"/>
      <point x="556" y="484"/>
      <point x="533" y="505"/>
      <point x="503" y="505" type="curve" smooth="yes"/>
      <point x="473" y="505"/>
      <point x="449" y="484"/>
      <point x="449" y="454" type="curve" smooth="yes"/>
      <point x="449" y="424"/>
      <point x="473" y="403"/>
    </contour>
  </outline>
</glyph>
<glyph name="checkmark" format="2">
  <advance width="959"/>
  <unicode hex="2713"/>
  <outline>
    <contour>
      <point x="354" y="67" type="line"/>
      <point x="850" y="533" type="line"/>
      <point x="744" y="658" type="line"/>
      <point x="367" y="299" type="line"/>
      <point x="226" y="463" type="line"/>
      <point x="109" y="356" type="line"/>
    </contour>
  </outline>
</glyph>
<glyph name="fi" format="2">
  <advance width="748"/>
  <unicode hex="FB01"/>
  <outline>
    <contour>
      <point x="93" y="0" type="line"/>
      <point x="314" y="0" type="line"/>
      <point x="314" y="379" type="line"/>
      <point x="484" y="379" type="line"/>
      <point x="484" y="0" type="line"/>
      <point x="705" y="0" type="line"/>
      <point x="705" y="544" type="line"/>
      <point x="314" y="544" type="line"/>
      <point x="314" y="558" type="line" smooth="yes"/>
      <point x="314" y="579"/>
      <point x="326" y="589"/>
      <point x="354" y="589" type="curve" smooth="yes"/>
      <point x="440" y="589" type="line"/>
      <point x="440" y="729" type="line"/>
      <point x="274" y="729" type="line" smooth="yes"/>
      <point x="157" y="729"/>
      <point x="93" y="675"/>
      <point x="93" y="576" type="curve" smooth="yes"/>
      <point x="93" y="544" type="line"/>
      <point x="4" y="544" type="line"/>
      <point x="4" y="379" type="line"/>
      <point x="93" y="379" type="line"/>
    </contour>
    <contour>
      <point x="595" y="586" type="curve" smooth="yes"/>
      <point x="666" y="586"/>
      <point x="713" y="613"/>
      <point x="713" y="670" type="curve" smooth="yes"/>
      <point x="713" y="720"/>
      <point x="675" y="754"/>
      <point x="595" y="754" type="curve" smooth="yes"/>
      <point x="524" y="754"/>
      <point x="477" y="727"/>
      <point x="477" y="670" type="curve" smooth="yes"/>
      <point x="477" y="620"/>
      <point x="515" y="586"/>
    </contour>
  </outline>
</glyph>
<glyph name="G.ss06" format="2">
  <advance width="853"/>
  <anchor x="426" y="0" name="bottom"/>
  <anchor x="437" y="729" name="top"/>
  <outline>
    <contour>
      <point x="428" y="-10" type="curve" smooth="yes"/>
      <point x="650" y="-10"/>
      <point x="839" y="101"/>
      <point x="839" y="331" type="curve" smooth="yes"/>
      <point x="839" y="405" type="line"/>
      <point x="420" y="405" type="line"/>
      <point x="420" y="262" type="line"/>
      <point x="669" y="262" type="line"/>
      <point x="613" y="322" type="line"/>
      <point x="613" y="304" type="line" smooth="yes"/>
      <point x="613" y="223"/>
      <point x="558" y="169"/>
      <point x="431" y="169" type="curve" smooth="yes"/>
      <point x="316" y="169"/>
      <point x="243" y="231"/>
      <point x="243" y="365" type="curve" smooth="yes"/>
      <point x="243" y="486"/>
      <point x="305" y="560"/>
      <point x="437" y="560" type="curve" smooth="yes"/>
      <point x="518" y="560"/>
      <point x="582" y="531"/>
      <point x="601" y="473" type="curve"/>
      <point x="832" y="473" type="line"/>
      <point x="813" y="632"/>
      <point x="669" y="739"/>
      <point x="437" y="739" type="curve" smooth="yes"/>
      <point x="167" y="739"/>
      <point x="12" y="592"/>
      <point x="12" y="365" type="curve" smooth="yes"/>
      <point x="12" y="138"/>
      <point x="166" y="-10"/>
    </contour>
  </outline>
</glyph>
<glyph name="I.ss02" format="2">
  <advance width="589"/>
  <anchor x="295" y="0" name="bottom"/>
  <anchor x="568" y="0" name="ogonek"/>
  <anchor x="295" y="729" name="top"/>
  <anchor x="8" y="729" name="topleft"/>
  <outline>
    <contour>
      <point x="178" y="165" type="line"/>
      <point x="406" y="165" type="line"/>
      <point x="406" y="564" type="line"/>
      <point x="178" y="564" type="line"/>
    </contour>
    <contour>
      <point x="22" y="548" type="line"/>
      <point x="568" y="548" type="line"/>
      <point x="568" y="729" type="line"/>
      <point x="22" y="729" type="line"/>
    </contour>
    <contour>
      <point x="22" y="0" type="line"/>
      <point x="568" y="0" type="line"/>
      <point x="568" y="181" type="line"/>
      <point x="22" y="181" type="line"/>
    </contour>
  </outline>
</glyph>
<glyph name="_B.currency" format="2">
  <advance width="760"/>
  <anchor x="398" y="0" name="bottom"/>
  <outline>
    <contour>
      <point x="55" y="0" type="line"/>
      <point x="445" y="0" type="line" smooth="yes"/>
      <point x="656" y="0"/>
      <point x="740" y="86"/>
      <point x="740" y="206" type="curve" smooth="yes"/>
      <point x="740" y="291"/>
      <point x="690" y="356"/>
      <point x="601" y="376" type="curve"/>
      <point x="601" y="385" type="line"/>
      <point x="673" y="406"/>
      <point x="718" y="465"/>
      <point x="718" y="538" type="curve" smooth="yes"/>
      <point x="718" y="667"/>
      <point x="625" y="729"/>
      <point x="458" y="729" type="curve" smooth="yes"/>
      <point x="55" y="729" type="line"/>
    </contour>
    <contour>
      <point x="283" y="155" type="line"/>
      <point x="283" y="298" type="line"/>
      <point x="399" y="298" type="line" smooth="yes"/>
      <point x="465" y="298"/>
      <point x="498" y="279"/>
      <point x="498" y="228" type="curve" smooth="yes"/>
      <point x="498" y="184"/>
      <point x="473" y="155"/>
      <point x="400" y="155" type="curve" smooth="yes"/>
    </contour>
    <contour>
      <point x="283" y="447" type="line"/>
      <point x="283" y="573" type="line"/>
      <point x="390" y="573" type="line" smooth="yes"/>
      <point x="457" y="573"/>
      <point x="476" y="549"/>
      <point x="476" y="511" type="curve" smooth="yes"/>
      <point x="476" y="472"/>
      <point x="453" y="447"/>
      <point x="389" y="447" type="curve" smooth="yes"/>
    </contour>
  </outline>
</glyph>
<glyph name="_Thorn.bowl" format="2">
  <advance width="588"/>
  <anchor x="-2" y="0" name="_bottom"/>
  <outline>
    <contour>
      <point x="40" y="104" type="line"/>
      <point x="249" y="104" type="line" smooth="yes"/>
      <point x="428" y="104"/>
      <point x="548" y="185"/>
      <point x="548" y="357" type="curve" smooth="yes"/>
      <point x="548" y="509"/>
      <point x="452" y="610"/>
      <point x="249" y="610" type="curve" smooth="yes"/>
      <point x="40" y="610" type="line"/>
      <point x="40" y="435" type="line"/>
      <point x="224" y="435" type="line" smooth="yes"/>
      <point x="277" y="435"/>
      <point x="318" y="419"/>
      <point x="318" y="357" type="curve" smooth="yes"/>
      <point x="318" y="295"/>
      <point x="277" y="279"/>
      <point x="224" y="279" type="curve" smooth="yes"/>
      <point x="40" y="279" type="line"/>
    </contour>
  </outline>
</glyph>
<glyph name="_bitcoin.bars" format="2">
  <advance width="471"/>
  <anchor x="282" y="0" name="_bottom"/>
  <outline>
    <contour>
      <point x="40" y="-85" type="line"/>
      <point x="201" y="-85" type="line"/>
      <point x="201" y="90" type="line"/>
      <point x="40" y="90" type="line"/>
    </contour>
    <contour>
      <point x="270" y="-85" type="line"/>
      <point x="431" y="-85" type="line"/>
      <point x="431" y="90" type="line"/>
      <point x="270" y="90" type="line"/>
    </contour>
    <contour>
      <point x="41" y="689" type="line"/>
      <point x="201" y="689" type="line"/>
      <point x="201" y="815" type="line"/>
      <point x="41" y="815" type="line"/>
    </contour>
    <contour>
      <point x="271" y="689" type="line"/>
      <point x="431" y="689" type="line"/>
      <point x="431" y="815" type="line"/>
      <point x="271" y="815" type="line"/>
    </contour>
  </outline>
</glyph>
